<svg width="330" height="760" viewBox="0 0 330 760" fill="none" xmlns="http://www.w3.org/2000/svg">
<mask id="mask0_3262_19187" style="mask-type:alpha" maskUnits="userSpaceOnUse" x="0" y="0" width="330" height="760">
<path d="M0 0L330 0L330 760L2.22264e-05 760L0 0Z" fill="#F4F3FA"/>
</mask>
<g mask="url(#mask0_3262_19187)">
<path d="M123.611 573.532C119.291 584.008 107.834 586.304 103.076 586.806C81.2268 589.102 59.6903 576.044 49.4229 554.303C38.0286 530.051 32.8323 502.786 27.8238 476.382C25.8831 466.265 24.3179 454.713 29.5768 446.318C34.0219 439.286 43.0997 436.058 51.6141 438.569C58.3756 440.578 64.7614 445.6 71.2098 453.924C80.2251 465.547 86.5483 479.682 92.6837 493.243C94.8123 497.979 97.0035 502.929 99.32 507.665C103.264 515.845 107.647 523.881 111.966 531.702C113.97 535.289 115.911 538.948 117.851 542.608C121.42 549.352 125.114 557.46 125.114 565.353C125.176 568.151 124.675 570.878 123.611 573.532ZM29.2012 476.023C34.1471 502.284 39.3434 529.406 50.675 553.514C60.6294 574.752 81.665 587.452 102.951 585.228C107.459 584.726 118.352 582.573 122.359 572.887C126.24 563.415 121.357 552.222 116.724 543.469C114.784 539.809 112.78 536.222 110.839 532.634C106.582 524.813 102.137 516.777 98.193 508.526C95.8766 503.79 93.6854 498.84 91.5568 494.104C85.484 480.543 79.1608 466.552 70.2708 455.072C64.0102 446.964 57.8748 442.156 51.3637 440.219C43.3502 437.851 34.8983 440.793 30.7663 447.322C28.2621 451.269 27.3856 455.933 27.3856 460.883C27.3856 465.762 28.2621 470.929 29.2012 476.023Z" fill="#C5D3E9"/>
<path d="M462.685 56.8538L462.497 55.2753C445.156 58.2888 433.636 72.9978 421.365 88.6395C413.414 98.7564 405.213 109.16 395.384 116.048C383.363 124.443 368.901 127.385 354.94 130.183C339.477 133.34 323.449 136.569 310.678 147.26C300.974 155.368 293.899 167.207 287.075 178.615C278.31 193.324 269.984 207.172 256.524 214.06C249.387 217.719 241.31 218.867 233.485 220.015C224.407 221.307 215.078 222.67 207.002 227.908C199.552 232.787 193.667 240.608 187.97 248.285C179.956 258.976 172.381 269.093 160.987 271.03C155.29 271.963 149.092 270.6 143.144 269.308C134.379 267.371 125.364 265.29 117.977 271.102C108.335 278.636 108.773 292.986 109.212 306.762C109.337 311.713 109.525 316.879 109.212 321.543C108.335 334.099 103.264 345.651 98.3809 356.916C94.8123 365.096 91.0559 373.634 88.9273 382.531C83.2302 406.424 88.1134 433.977 103.953 466.695C107.459 473.942 111.278 481.117 114.909 488.077C124.237 505.728 133.878 523.952 139.137 543.971C142.769 557.819 142.518 568.51 138.511 576.618C131.374 590.896 115.723 592.69 100.509 594.484C95.6888 595.058 90.6803 595.632 86.0474 596.636C83.6058 597.138 81.1016 597.856 79.1608 599.65C74.7784 603.596 74.841 611.489 77.4079 616.439C79.6617 620.816 83.5432 624.189 89.616 627.059C112.092 637.821 136.884 632.655 160.862 627.633C181.835 623.256 203.559 618.735 223.906 624.691C243.439 630.431 259.779 645.283 275.618 659.634C282.067 665.445 288.703 671.544 295.465 676.854C303.729 683.383 312.619 689.195 321.196 694.792C330.587 700.962 340.29 707.276 349.243 714.595C363.329 726.147 381.047 745.304 385.367 770.991L386.744 770.704C382.362 744.515 364.394 724.999 350.057 713.303C341.042 705.913 331.338 699.527 321.884 693.356C313.307 687.76 304.48 681.948 296.278 675.49C289.517 670.181 282.881 664.154 276.495 658.342C260.593 643.92 244.128 628.924 224.282 623.112C203.622 617.085 181.772 621.606 160.611 625.982C136.821 630.933 112.217 636.027 90.1168 625.48C84.3571 622.754 80.6633 619.525 78.5973 615.507C76.2809 611.13 76.2183 604.17 80.0373 600.726C81.7902 599.148 84.1067 598.502 86.2979 597.999C90.8681 597.067 95.814 596.421 100.635 595.919C116.161 594.125 132.251 592.259 139.701 577.263C143.958 568.725 144.208 557.675 140.452 543.397C135.193 523.235 125.489 504.867 116.098 487.144C112.405 480.184 108.648 473.009 105.142 465.834C89.4908 433.475 84.6075 406.353 90.2421 382.89C92.3707 374.137 96.0018 365.67 99.5703 357.562C104.516 346.225 109.65 334.458 110.526 321.615C110.839 316.808 110.714 311.641 110.526 306.619C110.088 292.627 109.713 279.354 118.728 272.322C125.614 266.941 134.004 268.806 142.831 270.743C148.904 272.107 155.164 273.542 161.112 272.537C173.007 270.528 181.083 259.694 188.909 249.29C194.544 241.756 200.303 234.007 207.566 229.271C215.391 224.177 224.595 222.886 233.547 221.522C241.436 220.374 249.637 219.226 256.962 215.495C270.798 208.464 279.625 193.755 288.077 179.548C294.839 168.211 301.85 156.516 311.366 148.552C323.888 138.076 339.727 134.847 355.066 131.762C369.152 128.892 383.739 125.95 396.01 117.412C406.027 110.452 414.291 99.9044 422.304 89.7158C434.45 74.2893 445.844 59.7956 462.685 56.8538Z" fill="#C5D3E9"/>
<path d="M67.5787 376.146L64.8867 400.039C64.511 403.483 64.0101 407.788 61.6937 410.873C58.2504 415.393 53.8053 416.9 48.9221 415.178C38.5921 411.59 28.8256 395.16 27.8865 386.406C27.5108 382.747 27.5735 377.509 30.2029 373.491C32.7071 369.616 36.7139 367.822 40.345 366.459C45.9796 364.307 51.7393 362.513 57.5617 361.221C59.5025 360.791 61.3807 360.504 63.1337 361.221C65.3875 362.154 67.1405 364.665 67.7039 367.894C67.8917 368.97 67.9543 370.047 67.9543 371.123C67.8917 372.845 67.7039 374.567 67.5787 376.146ZM29.2012 386.191C30.0777 394.37 39.6564 410.299 49.2977 413.671C53.7428 415.25 57.4991 413.958 60.6294 409.797C62.6954 407.07 63.1336 403.052 63.5093 399.752L66.2014 375.859C66.5144 373.276 66.7648 370.621 66.3265 368.109C65.9509 366.029 64.7614 363.446 62.6328 362.585C61.1302 362.011 59.5025 362.298 57.7495 362.656C51.9898 363.948 46.2926 365.67 40.7207 367.822C37.34 369.114 33.521 370.836 31.2672 374.28C29.5768 376.935 29.076 380.235 29.076 383.105C29.0134 384.325 29.076 385.33 29.2012 386.191Z" fill="#C5D3E9"/>
<path d="M462.998 100.478C455.11 100.407 446.971 104.209 438.707 111.815C434.7 115.474 431.007 119.708 427.438 123.726C424.871 126.667 422.242 129.609 419.55 132.408C406.841 145.394 391.252 154.579 375.725 158.238C371.03 159.314 366.147 160.103 361.389 160.821C349.368 162.686 336.972 164.624 326.141 172.373C315.373 180.122 307.798 192.535 300.536 204.446C292.585 217.432 284.383 230.922 272.113 237.953C263.849 242.689 254.27 244.196 245.004 245.631C233.359 247.424 221.276 249.362 211.948 257.756C206.564 262.564 202.432 269.308 198.425 275.838C192.165 285.955 186.28 295.497 176.388 297.937C170.253 299.444 163.679 297.722 157.293 296C149.217 293.847 140.89 291.551 133.628 296.215C123.423 302.673 122.609 316.951 121.795 330.727C121.545 335.319 121.232 339.983 120.606 344.288C119.229 353.903 115.472 362.943 111.841 371.697C108.273 380.307 104.579 389.204 103.076 398.747C99.946 418.622 105.956 440.65 121.482 466.049C124.425 470.857 127.618 475.736 130.686 480.4C140.014 494.678 149.655 509.387 154.914 526.32C161.675 548.061 159.422 576.976 141.955 590.25C133.941 596.349 124.049 598.143 114.533 599.865C112.154 600.295 109.713 600.726 107.333 601.228C104.829 601.73 102.2 602.448 100.322 604.529C98.6313 606.394 97.88 609.121 98.3182 612.134C98.8817 616.081 101.261 619.812 104.266 621.534C109.399 624.404 115.347 623.328 121.044 621.964C127.367 620.458 133.816 618.735 140.014 617.157C158.107 612.421 176.826 607.471 195.608 606.251C215.955 604.888 244.816 607.614 266.791 628.278C271.111 632.368 275.118 637.104 278.937 641.696C283.632 647.292 288.453 653.104 294.025 657.768C303.791 666.019 315.436 670.611 326.705 675.06C333.654 677.786 340.854 680.657 347.49 684.316C377.165 700.603 398.514 735.402 401.77 773L403.147 772.857C399.829 734.757 378.23 699.455 348.054 682.953C341.292 679.222 334.092 676.423 327.143 673.625C315.999 669.176 304.417 664.656 294.838 656.548C289.392 651.956 284.571 646.216 279.938 640.691C276.057 636.099 272.05 631.292 267.667 627.13C245.38 606.107 216.143 603.309 195.545 604.744C176.638 606.036 157.857 610.915 139.701 615.722C133.503 617.372 127.117 619.022 120.794 620.529C115.347 621.821 109.65 622.897 104.892 620.242C102.262 618.735 100.196 615.435 99.6956 612.063C99.3826 609.551 99.946 607.399 101.323 605.82C102.951 604.027 105.33 603.381 107.647 602.95C110.026 602.448 112.467 602.018 114.846 601.587C124.55 599.793 134.567 597.999 142.831 591.685C160.862 577.909 163.241 548.133 156.291 525.89C150.97 508.813 141.266 493.961 131.875 479.61C128.807 474.947 125.677 470.139 122.735 465.332C107.396 440.291 101.449 418.622 104.516 399.249C106.019 389.922 109.65 381.096 113.156 372.63C116.85 363.733 120.606 354.62 122.046 344.79C122.672 340.414 122.985 335.678 123.235 331.086C124.049 317.74 124.801 303.892 134.379 297.865C141.203 293.56 148.904 295.641 157.043 297.794C163.554 299.516 170.315 301.381 176.764 299.803C187.156 297.22 193.479 286.959 199.615 277.057C203.559 270.672 207.691 263.999 212.887 259.335C221.902 251.155 233.297 249.433 245.317 247.496C254.708 246.061 264.412 244.483 272.801 239.675C285.385 232.428 293.712 218.796 301.725 205.665C308.925 193.826 316.375 181.557 326.955 174.023C337.536 166.418 349.807 164.552 361.639 162.686C366.397 161.969 371.28 161.18 376.039 160.103C391.815 156.372 407.592 147.117 420.489 133.914C423.243 131.116 425.873 128.103 428.44 125.161C431.946 121.143 435.639 116.981 439.584 113.322C447.597 106.003 455.423 102.272 462.998 102.344V100.478Z" fill="#C5D3E9"/>
<path d="M203.121 586.735C200.679 589.892 197.361 592.403 192.666 594.771C184.339 598.932 165.369 603.811 159.296 595.99C156.354 592.259 156.98 586.232 161.049 578.196L165.181 570.017C168.437 563.631 172.506 555.595 179.08 551.577C187.156 546.698 198.237 549.424 203.872 557.604C206.564 561.478 207.879 566.501 207.879 571.523C207.879 577.12 206.251 582.645 203.121 586.735ZM160.298 594.914C165.62 601.802 183.525 597.569 192.039 593.264C196.547 590.968 199.74 588.6 201.994 585.587C207.628 578.34 207.941 566.214 202.745 558.608C197.549 551.003 187.156 548.42 179.706 553.012C173.445 556.814 169.501 564.564 166.308 570.806L162.176 578.985C159.923 583.434 158.796 587.165 158.796 590.107C158.858 592.044 159.359 593.694 160.298 594.914Z" fill="#C5D3E9"/>
<path d="M461.809 133.771C449.35 132.766 436.891 137.717 427.563 147.188C423.369 151.493 419.8 156.731 416.294 161.754C410.66 170.005 405.338 177.754 397.45 182.059C389.436 186.436 380.609 186.077 371.28 185.79C363.956 185.503 356.443 185.288 349.368 187.441C332.778 192.607 322.573 209.396 312.681 225.612C304.48 239.173 295.965 253.164 283.695 260.842C274.053 266.869 262.596 268.591 251.515 270.241C237.93 272.25 223.906 274.403 213.388 284.448C208.693 288.968 204.999 294.852 201.43 300.52C196.798 307.91 192.415 314.942 185.841 319.319C181.334 322.332 176.012 323.911 170.879 325.346C164.681 327.14 158.295 328.933 153.098 333.454C145.273 340.342 141.955 351.822 139.263 362.943C134.567 382.46 130.185 403.267 133.127 423.932C137.197 452.417 154.476 475.234 169 491.88C173.007 496.472 177.139 500.992 181.209 505.441C193.855 519.217 206.94 533.495 216.393 550.5C217.958 553.37 219.523 556.384 221.026 559.254C225.847 568.653 230.855 578.411 238.618 585.013C245.755 591.04 254.458 593.623 262.847 596.134C268.231 597.784 273.803 599.434 278.937 601.946C290.331 607.614 299.659 617.659 308.612 627.417C314.935 634.305 321.509 641.337 328.771 647.005C338.224 654.324 349.055 659.131 359.51 663.867C366.961 667.239 374.661 670.683 381.861 674.988C409.282 691.563 434.137 729.16 428.502 768.982L429.88 769.269C435.639 728.73 410.409 690.486 382.487 673.625C375.287 669.248 367.524 665.804 360.011 662.432C349.619 657.768 338.913 652.961 329.585 645.714C322.385 640.189 315.874 633.157 309.551 626.341C300.473 616.511 291.082 606.323 279.437 600.583C274.241 597.999 268.607 596.277 263.16 594.699C254.896 592.188 246.319 589.605 239.37 583.793C231.794 577.479 226.911 567.864 222.153 558.536C220.65 555.595 219.085 552.581 217.52 549.711C207.941 532.563 194.794 518.212 182.085 504.293C178.078 499.916 173.884 495.324 169.939 490.804C155.54 474.301 138.449 451.699 134.442 423.716C131.499 403.411 135.819 382.818 140.515 363.446C143.144 352.539 146.337 341.346 153.85 334.745C158.796 330.44 164.743 328.718 171.066 326.924C176.263 325.418 181.709 323.911 186.405 320.682C193.229 316.09 197.862 308.628 202.432 301.453C205.938 295.856 209.569 290.116 214.139 285.739C224.407 275.909 237.617 273.972 251.578 271.82C262.784 270.169 274.366 268.376 284.258 262.205C296.779 254.384 305.419 240.177 313.746 226.473C323.888 209.755 333.529 193.898 349.619 188.876C356.505 186.723 363.956 187.01 371.155 187.297C380.233 187.656 389.624 187.943 397.951 183.423C406.089 178.974 411.786 170.723 417.296 162.686C420.739 157.664 424.245 152.498 428.377 148.336C437.392 139.08 449.538 134.345 461.621 135.278L461.809 133.771Z" fill="#C5D3E9"/>
<path d="M461.683 157.52C451.792 156.875 445.343 166.131 439.083 175.171C436.14 179.404 433.01 183.853 429.629 187.225C419.675 196.983 405.651 198.418 392.066 199.782C377.165 201.288 361.702 202.867 351.998 215.567C348.241 220.446 345.862 226.473 343.609 232.285C341.981 236.375 340.29 240.608 338.162 244.411C328.771 261.057 312.368 267.515 295.026 274.331C282.818 279.138 270.109 284.161 260.03 293.058C256.085 296.574 252.454 300.664 249.011 304.682C244.566 309.848 239.933 315.157 234.549 319.032C228.163 323.624 220.776 326.207 213.639 328.718C206.94 331.086 199.99 333.525 193.792 337.615C171.129 352.611 164.368 385.33 167.623 411.088C171.192 439.071 184.527 463.682 197.799 486.57C211.51 510.105 228.226 536.294 252.329 548.276C258.777 551.505 265.727 553.657 272.426 555.738C282.192 558.823 292.334 561.981 300.849 568.438C306.358 572.6 311.179 578.196 315.811 583.506C319.317 587.596 323.011 591.829 327.018 595.488C336.471 604.17 347.866 609.551 358.884 614.789C363.768 617.157 368.839 619.525 373.659 622.18C421.866 648.799 454.609 707.85 455.11 769.197H456.487C455.986 707.276 422.93 647.651 374.286 620.745C369.402 618.09 364.331 615.65 359.448 613.282C348.492 608.045 337.223 602.663 327.894 594.197C323.95 590.609 320.319 586.448 316.813 582.358C312.118 576.976 307.297 571.38 301.663 567.075C292.96 560.474 282.756 557.317 272.864 554.231C266.165 552.151 259.278 549.998 252.955 546.841C229.165 535.002 212.637 509.028 199.051 485.709C185.841 463.036 172.632 438.569 169.063 410.873C165.807 385.617 172.444 353.616 194.544 338.979C200.554 334.961 207.44 332.593 214.077 330.225C221.339 327.714 228.852 325.059 235.363 320.323C240.872 316.305 245.568 310.924 250.075 305.758C253.519 301.812 257.087 297.722 260.969 294.278C270.86 285.524 283.444 280.573 295.59 275.838C312.368 269.237 329.773 262.42 339.414 245.272C341.605 241.397 343.296 237.092 344.986 232.931C347.24 227.262 349.556 221.307 353.187 216.643C362.578 204.446 377.04 202.939 392.379 201.432C406.215 200.069 420.489 198.562 430.756 188.517C434.262 185.073 437.392 180.624 440.397 176.247C446.721 167.135 452.668 158.597 461.809 159.242L461.683 157.52Z" fill="#C5D3E9"/>
<path d="M344.736 353.544C343.609 371.625 341.417 389.85 339.289 407.501C336.972 426.658 334.593 446.461 330.086 465.404C327.957 474.157 324.827 485.494 319.004 495.324C313.119 505.225 305.168 512.185 296.591 514.912C289.642 517.136 281.503 516.777 271.674 513.979C253.581 508.813 230.48 497.118 219.899 479.682C208.129 460.453 199.552 438.138 195.044 415.25C193.104 405.492 191.476 392.935 195.545 381.886C200.429 368.683 211.823 361.293 222.779 354.19C225.408 352.468 228.038 350.746 230.605 348.952C240.309 342.136 249.199 333.382 257.713 324.915C266.478 316.233 275.556 307.265 285.698 300.305C294.275 294.349 310.866 285.524 325.39 293.417C333.717 297.937 340.165 307.552 343.108 319.821C344.735 326.566 345.236 333.525 345.236 340.198C345.236 344.79 344.986 349.311 344.736 353.544ZM196.359 414.963C200.804 437.708 209.319 459.735 220.963 478.821C231.356 495.826 254.145 507.378 271.925 512.472C281.503 515.199 289.454 515.486 296.153 513.405C304.355 510.822 312.055 504.077 317.752 494.463C323.512 484.848 326.58 473.655 328.646 465.045C333.153 446.174 335.532 426.443 337.849 407.357C339.977 389.778 342.169 371.553 343.296 353.544C343.922 343.355 344.422 331.516 341.73 320.323C338.913 308.484 332.715 299.229 324.764 294.923C310.803 287.39 294.713 295.928 286.324 301.74C276.307 308.628 267.292 317.597 258.527 326.207C249.95 334.673 241.06 343.427 231.231 350.387C228.664 352.181 225.972 353.903 223.405 355.625C212.637 362.656 201.43 369.903 196.735 382.603C194.982 387.41 194.293 392.505 194.293 397.599C194.356 403.698 195.295 409.725 196.359 414.963Z" fill="#C5D3E9"/>
<path d="M464 188.947L463.499 187.441C440.961 197.557 419.111 210.186 398.577 224.966C384.678 234.94 370.028 247.64 366.522 266.582C364.456 277.632 366.648 288.968 368.839 299.874C369.152 301.596 369.527 303.247 369.841 304.969C378.48 351.535 374.223 401.187 357.758 444.883C355.566 450.767 353.062 456.65 350.683 462.318C346.739 471.646 342.669 481.332 339.602 491.306C333.779 510.32 332.903 527.253 336.91 541.675C340.729 555.308 349.431 567.936 362.703 579.344C369.841 585.443 377.666 590.753 385.242 595.847C389.561 598.789 394.069 601.802 398.389 604.959C423.369 623.256 445.156 647.938 461.433 676.352L462.56 675.49C446.22 646.862 424.308 622.036 399.14 603.596C394.82 600.439 390.313 597.426 385.93 594.484C378.418 589.389 370.654 584.152 363.517 578.124C350.433 566.931 341.918 554.518 338.162 541.244C334.218 527.181 335.094 510.607 340.854 491.88C343.859 481.978 347.928 472.364 351.873 463.036C354.252 457.368 356.756 451.412 359.01 445.529C375.6 401.545 379.92 351.535 371.218 304.682C370.905 302.96 370.592 301.309 370.216 299.587C368.088 288.825 365.959 277.632 367.962 266.941C371.406 248.572 385.805 236.159 399.391 226.33C419.8 211.621 441.524 199.064 464 188.947Z" fill="#C5D3E9"/>
<path d="M463.061 224.034L462.372 222.67C450.54 230.276 439.396 239.46 429.316 249.864C421.365 258.043 411.787 269.38 407.968 284.161C405.213 294.995 405.839 306.475 406.465 317.597L406.528 318.171C408.03 345.077 408.781 371.266 401.832 396.092C398.764 406.998 394.194 417.474 389.749 427.663C384.115 440.578 378.292 453.852 375.538 468.202C371.593 488.579 374.223 510.894 382.675 529.406C393.067 552.079 411.223 568.151 428.753 583.649C439.771 593.407 451.228 603.524 460.682 615.22L461.684 614.143C452.105 602.305 440.648 592.188 429.567 582.358C412.162 566.931 394.132 551.003 383.864 528.616C375.538 510.463 372.971 488.508 376.852 468.489C379.607 454.354 385.367 441.152 390.939 428.308C395.384 418.12 400.017 407.572 403.084 396.523C410.096 371.482 409.345 345.077 407.842 318.027L407.78 317.453C407.154 306.475 406.528 295.139 409.282 284.591C412.976 270.241 422.43 259.12 430.193 251.012C440.21 240.68 451.291 231.639 463.061 224.034Z" fill="#C5D3E9"/>
<path d="M463.499 573.03C451.166 561.406 438.394 549.352 428.002 535.002C416.294 518.858 409.408 502.284 407.467 485.566C405.025 464.399 410.722 443.591 416.545 425.941C418.047 421.349 419.737 416.685 421.303 412.164C426.311 397.886 431.507 383.105 434.074 367.751C435.577 358.854 436.203 349.741 436.829 340.916C437.455 332.377 438.018 323.48 439.458 314.942C441.399 303.031 446.971 281.506 462.31 271.317L461.621 269.954C445.782 280.502 440.084 302.529 438.081 314.655C436.641 323.265 436.078 332.234 435.452 340.844C434.826 349.669 434.2 358.71 432.697 367.535C430.13 382.747 424.996 397.456 419.988 411.662C418.423 416.183 416.795 420.846 415.23 425.438C409.658 442.228 403.585 464.184 406.089 485.853C408.03 502.858 415.042 519.719 426.875 536.078C437.33 550.5 450.164 562.626 462.56 574.322L463.499 573.03Z" fill="#C5D3E9"/>
<path d="M441.399 -4.06272C441.399 -4.20623 441.399 -4.42148 441.399 -4.56498L440.022 -4.49323C440.272 4.97789 433.26 12.6552 426.687 16.7451C423.306 18.8258 419.675 20.4761 416.169 22.0546C412.1 23.8484 407.842 25.7857 404.023 28.3687C394.82 34.611 388.247 44.5127 381.923 54.1273C376.539 62.2351 371.03 70.5583 363.956 76.6571C351.309 87.5632 335.094 90.3615 319.38 93.0881C305.607 95.4558 291.395 97.9671 279.25 105.788C272.676 110.021 266.854 115.69 261.282 121.214C257.212 125.232 252.955 129.394 248.51 132.91C243.752 136.641 227.099 148.265 212.825 139.439C204.686 134.417 199.177 123.367 197.674 109.089C196.985 102.487 197.048 95.6711 197.173 89.07C197.236 83.4734 197.298 77.7334 196.923 72.065C194.544 37.4811 172.819 5.48015 144.208 -5.713L143.77 -4.20623C171.88 6.84342 193.229 38.1986 195.545 72.2085C195.921 77.8051 195.858 83.5452 195.796 89.07C195.733 95.7428 195.608 102.631 196.297 109.304C197.862 124.084 203.622 135.636 212.136 140.874C222.216 147.117 236.114 144.677 249.261 134.273C253.769 130.686 258.026 126.524 262.158 122.434C267.73 116.981 273.427 111.313 279.876 107.151C291.771 99.4739 305.857 97.0344 319.505 94.6666C335.407 91.8683 351.81 89.07 364.707 77.8769C371.906 71.6345 377.541 63.1679 382.925 55.0601C389.186 45.5889 395.697 35.759 404.649 29.732C408.406 27.2207 412.538 25.3552 416.607 23.4896C420.176 21.9111 423.869 20.2608 427.313 18.1083C434.199 13.9468 441.399 5.91066 441.399 -4.06272Z" fill="#C5D3E9"/>
<path d="M412.1 -3.77572L410.91 -4.63673C408.781 -0.69043 404.9 1.53385 401.144 3.61463C400.33 4.04513 399.516 4.54739 398.702 5.04965C387.558 11.7225 378.856 22.9156 370.404 33.6783C359.573 47.5262 349.368 60.5849 334.531 65.1769C327.832 67.2577 320.757 67.3295 313.871 67.3295C308.987 67.3295 303.916 67.4012 298.97 68.1187C292.459 69.1232 285.886 71.3475 279.563 73.5718C266.541 78.0204 254.27 82.2537 242.5 76.8006C228.414 70.2712 222.403 53.625 216.08 35.9026C210.07 19.1846 203.872 1.82085 190.036 -5.64125L189.473 -4.20623C202.808 3.04062 208.943 20.0456 214.828 36.5483C221.026 53.7685 227.412 71.491 241.999 78.3074C254.27 83.9757 267.292 79.4554 280.001 75.1503C286.324 72.9978 292.835 70.7735 299.221 69.769C304.042 69.0515 309.113 68.9797 313.933 68.9797C320.883 68.908 328.082 68.908 334.906 66.7555C350.12 62.0199 360.95 48.172 371.468 34.8263C379.857 24.1354 388.497 13.0858 399.391 6.48467C400.204 5.98241 400.956 5.5519 401.77 5.1214C405.651 2.82537 409.721 0.529336 412.1 -3.77572Z" fill="#C5D3E9"/>
<path d="M369.966 -5.13899L368.839 -6C362.453 4.90614 355.817 16.171 347.052 24.9964C337.285 34.7545 326.142 39.6336 315.749 38.7726C313.62 38.6291 311.492 38.1986 309.426 37.7681C306.483 37.1941 303.478 36.6201 300.41 36.6918C297.468 36.7636 294.588 37.4093 291.833 38.0551C289.767 38.5573 287.701 38.9878 285.635 39.2748C276.495 40.3511 267.104 36.5483 260.53 29.158C256.524 24.6377 253.581 18.8976 250.764 13.301C247.195 6.34116 243.502 -0.833932 237.742 -5.713L236.928 -4.42148C242.5 0.242332 245.943 6.98692 249.574 14.162C252.454 19.8303 255.459 25.6422 259.591 30.306C266.415 38.0551 276.244 42.0014 285.823 40.9251C287.952 40.7099 290.143 40.2076 292.209 39.7054C294.964 39.0596 297.781 38.4138 300.536 38.3421C303.478 38.2703 306.421 38.8443 309.3 39.4183C311.429 39.8489 313.558 40.2794 315.749 40.4229C326.517 41.3556 338.037 36.2613 348.054 26.2162C356.881 17.2473 363.517 5.83891 369.966 -5.13899Z" fill="#C5D3E9"/>
</g>
</svg>
