<svg width="360" height="370" viewBox="0 0 360 370" fill="none" xmlns="http://www.w3.org/2000/svg">
<path d="M180.821 62.3292C206.898 62.3762 219.369 71.3516 226.275 76.6883C232.542 81.5311 236.088 84.9004 236.477 89.7045C236.768 93.2955 238.878 91.3099 242.531 94.4925C244.055 95.8201 245.74 98.4519 247.138 102.113C250.454 110.8 250.119 119.557 250.119 119.557L248.697 134.742L246.083 162.644C257.518 158.268 247.765 191.256 244.402 200.345C241.038 209.434 237.339 207.078 237.339 207.078C232.967 229.294 223.214 244.778 223.214 244.778L224.222 268.678C223.886 271.035 226.913 272.718 226.913 272.718L236.666 276.42C235.966 289.802 242.72 301.33 242.72 301.33L339.242 346.437C358.413 354.515 354.713 370 354.713 370H179.494H179.506H4.28686C4.28686 370 0.587618 354.515 19.7575 346.437L116.28 301.33C116.28 301.33 123.507 290.36 122.334 276.42L132.087 272.718C132.087 272.718 135.114 271.035 134.777 268.678L135.786 244.778C135.786 244.778 126.033 229.294 121.661 207.078C121.661 207.078 117.962 209.434 114.598 200.345C111.235 191.256 101.482 158.268 112.916 162.644L108.881 119.557C108.881 119.557 108.664 104.567 120.652 95.9941C127.171 91.3323 121.326 73.8825 156.718 67.6252C157.96 67.4056 155.809 67.2105 154.125 66.1167C152.2 64.8663 149.943 63.1045 150.514 63.3452C150.949 63.5283 155.923 65.6971 160.732 66.2395C161.52 66.3286 163.658 66.4149 163.951 66.3973C164.952 66.337 163.852 66.4675 161.147 64.4797C157.454 61.7679 155.345 56.0439 156.145 57.137C157.347 58.7782 164.885 62.0015 169.698 62.1889C173.006 62.3173 178.897 62.2464 180.821 62.3292Z" fill="#666565"/>
</svg>
