<svg width="130" height="297" viewBox="0 0 130 297" fill="none" xmlns="http://www.w3.org/2000/svg">
<path d="M0 1.49902L0 0C6.60264 2.15625 11.8588 8.08179 14.8737 13.7998C16.8268 17.3804 18.3242 21.2214 19.7564 24.9324L19.9294 25.365C21.5651 29.4561 23.2193 33.5938 25.4203 37.3669C30.889 46.6765 39.808 53.4473 48.4016 59.9575C55.7582 65.5564 63.4403 71.4155 69.1042 78.9023C79.1619 92.1836 81.7494 109.041 84.2645 125.426L84.3382 125.906L84.3431 125.939C86.49 140.121 88.7054 154.756 95.6661 167.116C99.2922 173.556 104.179 179.275 108.943 184.85L109.533 185.541C113.244 189.837 117.02 194.264 120.275 198.952C129.715 212.623 131.928 227.076 126.264 237.558C121.512 246.411 111.03 252.401 97.6192 254.029C91.9833 254.695 86.1783 254.628 80.519 254.563L79.2602 254.549C74.2473 254.484 69.0391 254.419 63.9611 254.81C37.5075 256.875 12.824 273.484 0 296.598L0 293.696C13.3618 271.338 37.7893 255.43 63.8309 253.377C68.974 252.987 74.1822 253.052 79.2602 253.117C85.2497 253.247 91.4344 253.312 97.4239 252.596C110.379 251.034 120.405 245.305 124.962 236.841C132.97 221.998 122.423 204.681 119.038 199.733C115.848 195.111 112.072 190.684 108.426 186.452C103.413 180.658 98.2702 174.603 94.4292 167.768C87.333 155.137 85.0544 140.359 82.906 126.037L82.8931 125.952C80.4233 109.637 77.8759 92.8115 67.9975 79.6836C62.4973 72.3713 55.0033 66.6677 47.689 61.1008L47.6836 61.0964L47.5552 60.999C38.8315 54.4238 29.8473 47.5879 24.1834 38.0178C21.8397 34.0466 20.0819 29.6196 18.4544 25.3879C17.0221 21.7422 15.5247 17.9663 13.6368 14.4507C10.7766 9.18188 5.98256 3.64258 0 1.49902Z" fill="#B7B7B7"/>
<path d="M0 37.606L0 34.7996C1.06392 36.4294 1.97151 38.1907 2.86711 39.9287L2.86777 39.9302L3.09014 40.3616C3.48076 41.208 3.87137 41.9893 4.32709 42.8354C10.2841 54.1021 20.234 63.0503 29.8852 71.73L30.0426 71.8713L30.3011 72.105C42.3301 82.969 54.7471 94.1838 59.0133 109.891C60.9014 116.751 60.9642 123.976 61.0251 130.978L61.0315 131.701C61.0315 136.714 61.0966 141.987 61.7476 147C62.653 153.596 64.6507 160.322 66.5917 166.856L66.7578 167.418C70.6246 180.497 74.582 193.882 69.4948 206.504C63.3101 221.672 47.2297 228.313 31.6051 234.758C19.8492 239.562 7.81241 244.528 0 253.151L0 251.053C7.95445 242.959 19.5482 238.182 30.8385 233.53L30.8407 233.529L31.0192 233.456C47.0995 226.881 62.2033 220.631 68.1277 205.983C73.054 193.797 69.2676 181.094 65.2506 167.618L65.1981 167.442C63.1799 160.867 61.1617 154.031 60.2503 147.26C59.5992 142.117 59.5341 136.844 59.5341 131.766C59.5341 124.604 59.469 117.248 57.5811 110.282C53.4177 94.8643 41.584 84.2568 29.0299 73.0037L29.001 72.978L28.579 72.5984L28.5766 72.5962C18.9424 63.9265 8.99193 54.9722 3.02504 43.5515C2.56932 42.7053 2.1136 41.8589 1.72299 41.0127C1.17165 39.8721 0.609211 38.7202 0 37.606Z" fill="#B7B7B7"/>
<path d="M0 79.3579L0 77.6462C7.93627 83.0974 15.7789 88.9426 22.2303 96.2197C31.3447 106.636 35.967 118.615 35.1207 129.812C34.9904 132.091 34.5998 134.305 34.2092 136.518C33.6884 139.513 33.1676 142.573 33.2327 145.633C33.2978 148.497 33.8837 151.427 34.4696 154.291C34.9253 156.44 35.3811 158.718 35.5764 160.932C36.5529 170.892 32.9723 181.114 25.9412 188.21C21.7095 192.506 16.4362 195.631 11.2931 198.626C7.26017 200.965 3.37716 203.229 0 205.991L0 204.193C3.29004 201.638 6.93231 199.493 10.5118 197.389C15.5898 194.459 20.7981 191.4 24.8995 187.233C31.6051 180.397 35.0555 170.632 34.079 161.127C33.8186 158.979 33.428 156.83 32.9723 154.682C32.3863 151.817 31.8004 148.823 31.7353 145.763C31.6702 142.573 32.191 139.448 32.7119 136.388C33.1025 134.24 33.4931 132.026 33.6233 129.812C34.4045 119.006 29.9775 107.417 21.1236 97.2612C14.9987 90.2898 7.57873 84.6135 0 79.3579Z" fill="#B7B7B7"/>
</svg>
