<svg width="230" height="488" viewBox="0 0 230 488" fill="none" xmlns="http://www.w3.org/2000/svg">
<mask id="mask0_3262_19127" style="mask-type:alpha" maskUnits="userSpaceOnUse" x="-78" y="0" width="308" height="488">
<rect width="294" height="479" transform="matrix(-0.999592 -0.0285462 -0.0285462 0.999592 229.555 8.39453)" fill="#B4AEDD"/>
</mask>
<g mask="url(#mask0_3262_19127)">
<path d="M-222.855 333.57C-222.855 333.57 -146.429 343.791 -133.291 381.747C-120.152 419.703 -96.2786 426.093 -81.6735 422.973C-67.0684 419.852 -34.61 425.916 -23.9205 416.773C-13.2311 407.629 -8.75713 400.699 -10.8529 381.064C-12.9487 361.428 0.02854 358.018 -1.07359 340.683C-2.17572 323.349 -4.9354 320.299 -4.45173 307.829C-3.96806 295.359 -1.91026 269.39 9.54278 258.996C21.1187 248.545 29.714 227.009 27.6185 203.191C25.556 179.284 7.63335 159.976 44.8444 130.756C82.0554 101.537 123.214 66.8258 131.073 57.0548C153.51 29.466 155.759 6.32044 142.801 -20.1457C128.965 -48.6676 84.3988 -36.4183 66.9708 -41.4701C20.9678 -54.8369 34.8014 -121.068 34.8014 -121.068" stroke="#B4AEDD" stroke-width="1.3" stroke-miterlimit="10"/>
<path d="M-213.081 319.402C-213.081 319.402 -179.794 308.43 -151.426 321.769C-123.057 335.109 -106.849 364.396 -74.4215 373.611C-41.9941 382.826 -42.1322 354.217 -40.9374 338.132C-39.7426 322.046 -27.8842 317.512 -33.878 291.249C-39.8718 264.985 -46.291 262.738 -34.3947 251.69C-22.5314 240.733 -2.17387 237.779 -3.15931 215.388C-4.26762 193.054 -21.2709 172.349 -7.55936 149.93C6.15219 127.512 18.8603 115.639 49.2982 93.2223C79.7361 70.8052 116.943 39.646 111.206 11.8443C105.469 -15.9574 43.9975 -12.1384 29.0828 -33.8132C14.1682 -55.488 12.6349 -86.137 12.6349 -86.137" stroke="#B4AEDD" stroke-width="1.3" stroke-miterlimit="10"/>
<path d="M-211.037 307.402C-211.037 307.402 -167.108 298.286 -149.095 285.295C-131.082 272.304 -116.783 319.354 -102.947 332.27C-89.1115 345.187 -66.1645 360.52 -60.5313 342.897C-54.9881 325.241 -48.7295 305.908 -52.8879 290.516C-57.0463 275.123 -71.547 263.187 -59.6853 244.987C-47.8236 226.787 -24.8067 219.911 -28.3563 190.87C-31.9059 161.829 -32.8564 142.409 -15.9511 126.871C1.04414 111.365 60.689 68.2226 73.6057 54.3867C86.4894 40.6407 94.0585 12.7107 70.7532 4.48823C47.448 -3.73423 10.5904 -3.35113 -2.15789 -64.1124" stroke="#B4AEDD" stroke-width="1.3" stroke-miterlimit="10"/>
<path d="M-8.06258 68.2496C-3.63434 83.7411 12.565 89.3632 30.1811 74.3912C47.7972 59.4192 72.7936 44.9042 70.4693 28.9586C68.2021 13.136 29.7723 1.92862 13.2708 16.0846C-3.2066 30.4533 -10.9797 58.1047 -8.06258 68.2496Z" stroke="#B4AEDD" stroke-width="1.3" stroke-miterlimit="10"/>
<path d="M5.96608 50.5417C1.17762 67.2501 20.0363 68.9497 33.4223 57.7333C46.8411 46.427 55.8571 31.2657 47.433 25.0211C39.0089 18.7766 15.7405 16.5851 5.96608 50.5417Z" stroke="#B4AEDD" stroke-width="1.3" stroke-miterlimit="10"/>
<path d="M20.0795 47.6455C21.9153 54.3349 33.3198 47.697 34.5487 42.9451C35.7777 38.1932 32.0814 32.9649 27.3996 33.4954C22.7747 34.1488 17.4564 37.8122 20.0795 47.6455Z" stroke="#B4AEDD" stroke-width="1.3" stroke-miterlimit="10"/>
<path d="M-209.426 296.867C-209.426 296.867 -166.518 283.297 -155.267 271.503C-144.016 259.71 -135.514 260.169 -126.812 270.391C-116.64 282.171 -109.403 264.625 -96.323 267.066C-81.2555 269.928 -77.3864 254.617 -71.9817 240.684C-66.577 226.751 -44.3445 207.246 -48.2901 191.829C-54.85 166.276 -58.6877 146.105 -35.4919 123.69C-20.4954 109.187 -17.9595 85.5348 -26.3122 64.3234C-34.6648 43.1121 -19.8501 25.483 -10.5558 14.2992C5.83426 -5.40512 -8.85189 -30.7701 -18.8768 -46.5758" stroke="#B4AEDD" stroke-width="1.3" stroke-miterlimit="10"/>
<path d="M-205.838 287.07C-205.838 287.07 -161.42 259.06 -146.577 247.765C-131.735 236.469 -112.34 256.214 -99.4193 248.499C-86.4987 240.784 -87.3261 217.125 -76.6454 208.284C-65.9648 199.444 -72.8301 179.185 -72.2652 167.05C-70.6783 131.219 -47.1165 113.936 -43.3511 105.318C-31.5786 78.7224 -53.3189 61.4853 -45.7133 43.7679C-38.1078 26.0506 -37.9525 -22.0333 -43.5612 -36.5289" stroke="#B4AEDD" stroke-width="1.3" stroke-miterlimit="10"/>
</g>
</svg>
