<svg width="77" height="77" viewBox="0 0 77 77" fill="none" xmlns="http://www.w3.org/2000/svg">
<path d="M69.994 64.7107H68.7988H67.3394V24.8915H75.3033L38.1516 1.00833L1 24.8915C1 24.8915 8.96384 25.1039 8.96384 24.8915V64.7107H6.30923C4.84919 64.7107 3.65461 65.9053 3.65461 67.3653V72.6746C3.65461 74.1346 4.84919 75.3292 6.30923 75.3292H70.02C71.48 75.3292 72.6746 74.1346 72.6746 72.6746V67.3653C72.6746 65.9053 71.48 64.7107 70.02 64.7107H69.994Z" fill="white"/>
<path d="M68.7988 64.7107H70.02C71.48 64.7107 72.6746 65.9053 72.6746 67.3653V72.6746C72.6746 74.1346 71.48 75.3292 70.02 75.3292H6.30923C4.84919 75.3292 3.65461 74.1346 3.65461 72.6746V67.3653C3.65461 65.9053 4.84919 64.7107 6.30923 64.7107H8.96384V24.8915C8.96384 25.1039 1 24.8915 1 24.8915L38.1646 1M38.1387 1L75.3033 24.8915H67.3394V64.7107H69.994" stroke="#7F6644" stroke-width="1.89615" stroke-miterlimit="10" stroke-linecap="round" stroke-linejoin="round"/>
<path d="M56.7242 24.8925V64.7117H43.4512V24.8925C43.4512 24.8925 56.1137 24.2819 56.7242 24.8925Z" stroke="#33CCCC" stroke-width="1.89615" stroke-miterlimit="10" stroke-linecap="round" stroke-linejoin="round"/>
<path d="M32.8297 24.8945H19.5566V64.7137H32.8297V24.8945Z" stroke="#33CCCC" stroke-width="1.89615" stroke-miterlimit="10" stroke-linecap="round" stroke-linejoin="round"/>
</svg>
