<svg width="77" height="77" viewBox="0 0 77 77" fill="none" xmlns="http://www.w3.org/2000/svg">
<path d="M67.5317 70.1929H8.98382C4.56611 70.1929 1.00002 66.6269 1.00002 62.2091L1 51.5666L1.00002 19.6283V8.9838C1.00002 4.5661 4.56611 1 8.98382 1H67.5317C71.9494 1 75.5155 4.5661 75.5155 8.9838V62.2091C75.5155 66.6269 71.9494 70.1929 67.5317 70.1929Z" fill="white"/>
<path d="M11.6436 70.1949V75.5174M64.8695 70.1949V75.5174M1 19.6283H11.6451M1 51.5666H11.6451M67.5317 70.1929H8.98382C4.56611 70.1929 1.00002 66.6269 1.00002 62.2091V8.9838C1.00002 4.5661 4.56611 1 8.98382 1H67.5317C71.9494 1 75.5155 4.5661 75.5155 8.9838V62.2091C75.5155 66.6269 71.9494 70.1929 67.5317 70.1929ZM11.6436 11.6437H64.8689V59.5465H11.6436V11.6437Z" stroke="#7F6644" stroke-width="1.89615" stroke-miterlimit="10" stroke-linecap="round" stroke-linejoin="round"/>
<path d="M45.7908 28.0649L51.4327 22.423M45.7908 43.1251L51.4327 48.767M30.7267 43.1251L25.0848 48.767M30.7259 28.0638L25.084 22.4219M48.9041 35.5937C48.9041 41.4728 44.1381 46.2387 38.259 46.2387C32.3799 46.2387 27.614 41.4728 27.614 35.5937C27.614 29.7146 32.3799 24.9486 38.259 24.9486C44.1381 24.9486 48.9041 29.7146 48.9041 35.5937Z" stroke="#33CCCC" stroke-width="1.89615" stroke-miterlimit="10" stroke-linecap="round" stroke-linejoin="round"/>
</svg>
