<svg width="61" height="77" viewBox="0 0 61 77" fill="none" xmlns="http://www.w3.org/2000/svg">
<rect x="1" width="58" height="76" rx="10" fill="white"/>
<path d="M30.2012 30.198V37.2327C30.2012 38.2414 29.0862 38.852 28.1836 38.3476L20.9896 32.8526H20.8834L13.6098 38.3742C12.7338 38.8786 11.5923 38.268 11.5923 37.2592V30.198M11.6185 1V30.2008M30.2017 30.2008V1M51.4377 75.3292H8.96384C4.55718 75.3292 1 71.772 1 67.3653V8.96384C1 4.55718 4.55718 1 8.96384 1H51.4377C55.8443 1 59.4015 4.55718 59.4015 8.96384V67.3653C59.4015 71.7455 55.8443 75.3292 51.4377 75.3292Z" stroke="#7F6644" stroke-width="1.89615" stroke-miterlimit="10" stroke-linecap="round" stroke-linejoin="round"/>
<path d="M11.6191 48.7812H48.7837M11.6191 62.0547H48.7837M40.8198 35.5078H48.7837" stroke="#33CCCC" stroke-width="1.89615" stroke-miterlimit="10" stroke-linecap="round" stroke-linejoin="round"/>
</svg>
