<svg width="77" height="77" viewBox="0 0 77 77" fill="none" xmlns="http://www.w3.org/2000/svg">
<path d="M32.856 27.5465H11.6191V17.3263C11.6191 15.6274 12.9995 14.2734 14.6719 14.2734H29.7767C31.4756 14.2734 32.8295 15.6539 32.8295 17.3263V27.5465H32.856ZM64.7125 27.5465H43.4756V17.3263C43.4756 15.6274 44.856 14.2734 46.5284 14.2734H61.6331C63.3321 14.2734 64.686 15.6539 64.686 17.3263V27.5465H64.7125Z" stroke="#33CCCC" stroke-width="1.89615" stroke-miterlimit="10" stroke-linecap="round" stroke-linejoin="round"/>
<path d="M1 27.5449H75.3292M1 46.1279H75.3292M70.0199 75.3292H6.30923C3.38915 75.3292 1 72.94 1 70.02V6.30923C1 3.38915 3.38915 1 6.30923 1H70.0199C72.94 1 75.3292 3.38915 75.3292 6.30923V70.02C75.3292 72.9666 72.9666 75.3292 70.0199 75.3292Z" stroke="#7F6644" stroke-width="1.89615" stroke-miterlimit="10" stroke-linecap="round" stroke-linejoin="round"/>
</svg>
