<svg width="61" height="77" viewBox="0 0 61 77" fill="none" xmlns="http://www.w3.org/2000/svg">
<path d="M8.96384 75.3292H51.4377C55.8443 75.3292 59.4015 71.772 59.4015 67.3653V8.96384C59.4015 4.55718 55.8443 1 51.4377 1H8.96384C4.55718 1 1 4.55718 1 8.96384V67.3653C1 71.772 4.55718 75.3292 8.96384 75.3292Z" fill="white" stroke="#7F6644" stroke-width="1.89615" stroke-miterlimit="10" stroke-linecap="round" stroke-linejoin="round"/>
<path d="M30.5827 48.4964C22.2737 38.3823 22.2737 22.0034 30.5827 11.8893M30.5843 11.9197C38.8932 22.0337 38.8932 38.4127 30.5843 48.5268M12 30.2061H49.1646M17.311 62.0544H43.8572M49.1654 30.2034C49.1654 40.4661 40.8458 48.7857 30.5831 48.7857C20.3204 48.7857 12.0008 40.4661 12.0008 30.2034C12.0008 19.9407 20.3204 11.6211 30.5831 11.6211C40.8458 11.6211 49.1654 19.9407 49.1654 30.2034Z" stroke="#33CCCC" stroke-width="1.89615" stroke-miterlimit="10" stroke-linecap="round" stroke-linejoin="round"/>
</svg>
