<svg width="77" height="77" viewBox="0 0 77 77" fill="none" xmlns="http://www.w3.org/2000/svg">
<rect x="1" y="6" width="53" height="70" rx="5" fill="white"/>
<rect x="17" y="1" width="21" height="10" fill="white"/>
<rect x="48.5" y="19.3008" width="27" height="27" rx="13.5" fill="white"/>
<path d="M54.0923 70.0215C54.0923 72.9416 51.7031 75.3307 48.783 75.3307H6.30923C3.38915 75.3307 1 72.9416 1 70.0215V11.62C1 8.69995 3.38915 6.31079 6.30923 6.31079H16.9277M38.1638 6.31079H47.8531C50.7732 6.31079 53.1623 8.69995 53.1623 11.62M54.0922 70.0199V54.0922M16.9284 1H38.1654V11.6185H16.9284V1ZM75.3274 32.8571C75.3274 40.1876 69.3848 46.1301 62.0543 46.1301C54.7238 46.1301 48.7812 40.1876 48.7812 32.8571C48.7812 25.5265 54.7238 19.584 62.0543 19.584C69.3848 19.584 75.3274 25.5265 75.3274 32.8571Z" stroke="#7F6644" stroke-width="1.89615" stroke-miterlimit="10" stroke-linecap="round" stroke-linejoin="round"/>
<path d="M11.6191 35.5083H32.856M11.6191 24.8945H24.8922M11.6191 46.1298H40.8199M66.304 30.7299L61.3399 36.1984L58.6852 33.2517" stroke="#33CCCC" stroke-width="1.89615" stroke-miterlimit="10" stroke-linecap="round" stroke-linejoin="round"/>
</svg>
