<svg width="77" height="77" viewBox="0 0 77 77" fill="none" xmlns="http://www.w3.org/2000/svg">
<path d="M27.5195 72.3312L69.1704 45.0153C70.3915 44.1923 70.7366 42.573 69.9403 41.3253L59.136 24.8933M35.5099 3.78906L52.9508 13.213C54.225 13.9297 54.7293 15.5225 54.0126 16.8232L49.8714 24.5217L47.1902 29.8574L35.6161 50.8554L27.5461 66.0928" stroke="#33CCCC" stroke-width="1.89615" stroke-miterlimit="10" stroke-linecap="round" stroke-linejoin="round"/>
<path d="M3.65461 75.3292C2.19458 75.3292 1 74.1346 1 72.6746V48.783V32.8553V16.9277V3.65461C1 2.19458 2.19458 1 3.65461 1H24.8915C26.3516 1 27.5461 2.19458 27.5461 3.65461V16.9277V32.8553V48.783V72.6746C27.5461 74.1346 26.3516 75.3292 24.8915 75.3292H3.65461Z" fill="white"/>
<path d="M24.8915 75.3292H3.65461C2.19458 75.3292 1 74.1346 1 72.6746V3.65461C1 2.19458 2.19458 1 3.65461 1H24.8915C26.3516 1 27.5461 2.19458 27.5461 3.65461V48.783M24.8915 75.3292C26.3516 75.3292 27.5461 74.1346 27.5461 72.6746V48.783M24.8915 75.3292L72.6746 75.3291C74.1346 75.3291 75.3292 74.1346 75.3292 72.6745V51.4376M27.5461 48.783L1 48.783M1 32.8553H27.5461M1 16.9277H27.5461" stroke="#7F6644" stroke-width="1.89615" stroke-miterlimit="10" stroke-linecap="round" stroke-linejoin="round"/>
</svg>
