<svg width="77" height="77" viewBox="0 0 77 77" fill="none" xmlns="http://www.w3.org/2000/svg">
<path d="M47.1571 7.49716L43.8919 3.64798C40.8922 0.117341 35.4502 0.117341 32.4505 3.64798L29.1854 7.49716C27.6191 9.35539 25.2565 10.3111 22.8408 10.1252L17.7971 9.70049C13.178 9.32885 9.32885 13.178 9.70049 17.7971L10.1252 22.8408C10.3111 25.2565 9.32885 27.6191 7.49717 29.1853L3.64798 32.4506C0.117341 35.4503 0.117341 40.8922 3.64798 43.8919L7.49717 47.1571C9.3554 48.7233 10.3111 51.0859 10.1252 53.5016L9.70049 58.5454C9.32885 63.1644 13.178 67.0136 17.7971 66.6419L22.8408 66.2172C25.2565 66.0314 27.6191 67.0136 29.1854 68.8453L32.4505 72.6945C35.4502 76.2251 40.8922 76.2251 43.8919 72.6945L47.1571 68.8453C48.7233 66.9871 51.0859 66.0314 53.5016 66.2172L58.5454 66.6419C63.1644 67.0136 67.0136 63.1644 66.642 58.5454L66.2172 53.5016C66.0314 51.0859 67.0136 48.7233 68.8453 47.1571L72.6945 43.8919C76.2251 40.8922 76.2251 35.4503 72.6945 32.4506L68.8453 29.1853C66.9871 27.6191 66.0314 25.2565 66.2172 22.8408L66.642 17.7971C67.0136 13.178 63.1644 9.32885 58.5454 9.70049L53.5016 10.1252C51.0859 10.3111 48.7233 9.32884 47.1571 7.49716Z" fill="white" stroke="#7F6644" stroke-width="1.89615" stroke-miterlimit="10" stroke-linecap="round" stroke-linejoin="round"/>
<path d="M51.99 28.2578L33.9917 48.0878L24.3555 37.4693" stroke="#33CCCC" stroke-width="1.89615" stroke-miterlimit="10" stroke-linecap="round" stroke-linejoin="round"/>
</svg>
