<svg width="232" height="324" viewBox="0 0 232 324" fill="none" xmlns="http://www.w3.org/2000/svg">
<mask id="mask0_3262_18770" style="mask-type:alpha" maskUnits="userSpaceOnUse" x="0" y="0" width="232" height="324">
<rect width="232" height="324" fill="#C4C4C4"/>
</mask>
<g mask="url(#mask0_3262_18770)">
<path d="M23.1992 -20.1992C29.3992 -4.89922 37.3992 18.9008 59.4992 34.2008C81.5992 49.5008 78.1992 58.6008 66.2992 76.2008C54.3992 93.8008 39.5992 105.101 55.4992 138.501C71.3992 171.901 108.199 162.901 141.099 153.201C173.999 143.601 204.3 131.4 210 145C215.7 158.6 203.5 210.3 220 233C236.5 255.7 289.699 274.501 289.699 274.501" stroke="#B7B7B7" stroke-width="1.3" stroke-miterlimit="10"/>
<path d="M15 -16.1992C17.3 -4.59922 28.9 26.6008 43.6 38.2008C58.3 49.8008 59.8 65.4008 48.7 82.4008C37.6 99.4008 35.7 120.101 43.6 140.501C51.5 160.901 74.2 186.701 124.1 178.501C174 170.301 180.2 172.5 181 194C181.9 215.5 207.1 261.201 232.9 271.501C258.7 281.701 297.5 291.101 297.5 291.101" stroke="#B7B7B7" stroke-width="1.3" stroke-miterlimit="10"/>
<path d="M76.5684 104.735C73.7629 118.616 81.2718 138 100.663 138C120.054 138 144.395 133.565 150.254 120.751C156.112 107.938 146.706 88.39 129.873 92.8253C113.04 97.2606 102.313 90.5255 97.1145 83.544C91.9986 76.5624 78.5488 94.9608 76.5684 104.735Z" stroke="#B7B7B7" stroke-width="1.3" stroke-miterlimit="10"/>
<path d="M114.482 126C127.974 126 132.056 118.026 131.999 113.84C131.943 109.655 130.185 105.074 121.398 104.169C112.611 103.264 104.674 106.205 102.18 107.902C90.2178 116.103 100.932 126 114.482 126Z" stroke="#B7B7B7" stroke-width="1.3" stroke-miterlimit="10"/>
<path d="M43.5996 -23C43.5996 -23 50.9996 -1.7 74.7996 19.8C98.5996 41.3 99.4996 57.8 113.4 67.7C127.3 77.6 170.7 67.4 175.8 90.9C180.9 114.4 200.2 119.8 222 132.6C243.8 145.4 226.5 206.3 237.9 222.7C249.2 239.1 311.3 262.4 311.3 262.4" stroke="#B7B7B7" stroke-width="1.3" stroke-miterlimit="10"/>
<path d="M74.1992 -20.1992C77.2992 -9.09922 100.699 16.9008 113.599 31.7008C126.499 46.5008 170.299 51.8008 182.199 62.3008C194.099 72.8008 200.599 90.3008 211.399 99.4008C222.199 108.501 254.199 130.001 253.599 148.201C252.999 166.401 254.499 198.101 268.899 212.801C283.399 227.501 321.599 244.801 321.599 244.801" stroke="#B7B7B7" stroke-width="1.3" stroke-miterlimit="10"/>
<path d="M138.099 21.9028C144.599 29.2028 174.799 50.2028 190.399 37.4028C205.999 24.6028 180.199 13.2028 164.199 9.70282C148.299 6.10282 130.499 13.4028 138.099 21.9028Z" stroke="#B7B7B7" stroke-width="1.3" stroke-miterlimit="10"/>
<path d="M109.401 -21.8984C109.401 -21.8984 108.401 -8.19844 114.501 -3.99844C132.901 8.50156 173.101 -19.3984 192.901 -2.39844C212.701 14.6016 219.501 23.1016 218.201 34.8016C216.901 46.5016 206.301 62.0016 213.101 72.0016C219.901 82.0016 253.701 101.402 260.701 115.702C267.701 130.002 275.101 151.202 272.201 163.902C269.401 176.602 281.501 205.702 300.901 214.202C320.301 222.702 339.501 238.202 339.501 238.202" stroke="#B7B7B7" stroke-width="1.3" stroke-miterlimit="10"/>
</g>
</svg>
