<svg width="208" height="312" viewBox="0 0 208 312" fill="none" xmlns="http://www.w3.org/2000/svg">
<path opacity="0.6" d="M100.518 311.391C85.6895 311.391 72.5723 309.68 61.166 306.258C50.0449 302.836 40.4922 298.416 32.5078 292.998C24.5234 287.58 17.8223 282.02 12.4043 276.316C7.27149 270.328 3.13672 265.053 0 260.49L21.8145 235.254C27.5176 240.957 33.791 246.518 40.6348 251.936C47.4785 257.068 55.1777 261.203 63.7324 264.34C72.5723 267.477 82.6953 269.045 94.1016 269.045C106.078 269.045 115.916 266.906 123.615 262.629C131.314 258.066 137.018 252.078 140.725 244.664C144.432 236.965 146.285 228.553 146.285 219.428C146.285 201.178 139.869 188.061 127.037 180.076C114.49 172.092 95.5274 168.385 70.1484 168.955L73.5703 138.586C89.5391 136.875 102.371 133.311 112.066 127.893C122.047 122.475 129.318 115.346 133.881 106.506C138.729 97.666 141.152 87.8281 141.152 76.9922C141.152 63.3047 137.303 52.4688 129.604 44.4844C121.904 36.2148 111.211 32.0801 97.5235 32.0801C89.5391 32.0801 81.9824 33.5059 74.8535 36.3574C68.0098 39.209 62.7344 42.7734 59.0274 47.0508C63.3047 53.0391 66.2988 58.1719 68.0098 62.4492C70.0059 66.7266 71.0039 70.291 71.0039 73.1426C71.0039 76.5645 69.8633 80.2715 67.582 84.2637C65.3008 87.9707 61.8789 91.1074 57.3164 93.6738C53.0391 95.9551 47.6211 97.0957 41.0625 97.0957C33.9336 97.0957 27.9453 95.6699 23.0977 92.8184C18.5352 89.6817 15.1133 85.5469 12.832 80.4141C10.8359 75.2813 9.83789 70.0059 9.83789 64.5879C9.83789 54.0371 13.5449 43.7715 20.959 33.791C28.6582 23.8106 39.7793 15.6836 54.3223 9.41016C68.8652 3.13672 86.2598 0 106.506 0C125.326 0 141.438 2.85156 154.84 8.55468C168.527 14.2578 179.078 22.5274 186.492 33.3633C194.191 44.1992 198.041 57.6016 198.041 73.5703C198.041 85.2617 195.475 95.9551 190.342 105.65C185.494 115.061 178.365 123.188 168.955 130.031C159.545 136.875 148.566 142.15 136.02 145.857V147.568C149.992 149.85 162.397 153.842 173.232 159.545C184.068 165.248 192.48 173.232 198.469 183.498C204.742 193.479 207.879 206.311 207.879 221.994C207.879 236.252 205.027 248.941 199.324 260.063C193.906 270.898 186.207 280.166 176.227 287.865C166.531 295.564 155.125 301.41 142.008 305.402C129.176 309.395 115.346 311.391 100.518 311.391Z" fill="white"/>
</svg>
