<svg width="203" height="306" viewBox="0 0 203 306" fill="none" xmlns="http://www.w3.org/2000/svg">
<path opacity="0.6" d="M6.41602 305.83L2.56641 272.467C24.2383 249.939 42.6309 230.264 57.7441 213.439C73.1426 196.615 85.6895 181.93 95.3848 169.383C105.365 156.836 113.207 145.715 118.91 136.02C124.613 126.039 128.605 116.771 130.887 108.217C133.168 99.377 134.309 90.252 134.309 80.8418C134.309 65.7285 130.459 53.8945 122.76 45.3399C115.061 36.7852 104.225 32.5078 90.252 32.5078C81.4121 32.5078 73.5703 33.9336 66.7266 36.7852C59.8828 39.3516 54.6074 42.6309 50.9004 46.6231C53.4668 50.9004 55.6055 54.6074 57.3164 57.7441C59.3125 60.8809 60.7383 63.7324 61.5938 66.2988C62.4492 68.5801 62.877 70.8613 62.877 73.1426C62.877 79.416 60.168 85.1192 54.75 90.252C49.332 95.3848 42.0606 97.9512 32.9356 97.9512C21.5293 97.9512 13.1172 94.6719 7.69922 88.1133C2.56641 81.5547 0 73.8555 0 65.0156C0 53.6094 4.13477 43.0586 12.4043 33.3633C20.959 23.3828 32.6504 15.3984 47.4785 9.41016C62.5918 3.13672 80.1289 0 100.09 0C119.766 0 136.732 3.42187 150.99 10.2656C165.533 16.8242 176.654 26.2344 184.354 38.4961C192.338 50.7578 196.33 65.3008 196.33 82.125C196.33 91.25 195.047 100.375 192.48 109.5C190.199 118.34 186.064 127.607 180.076 137.303C174.373 146.998 166.389 157.834 156.123 169.811C145.857 181.787 132.883 195.332 117.199 210.445C101.801 225.559 82.9805 242.953 60.7383 262.629H120.621C128.891 262.629 135.449 262.201 140.297 261.346C145.43 260.49 149.564 258.494 152.701 255.357C156.123 252.221 159.26 247.516 162.111 241.242C164.963 234.969 168.1 226.557 171.521 216.006H202.746L194.191 305.83H6.41602Z" fill="white"/>
</svg>
