<svg width="40" height="40" viewBox="0 0 40 40" fill="none" xmlns="http://www.w3.org/2000/svg">
<path fill-rule="evenodd" clip-rule="evenodd" d="M1.64026 1.94325C1.56491 2.05945 1.5 2.24756 1.5 2.56637V37.594C1.5 38.0918 1.91469 38.5 2.40649 38.5H9.56234C10.0608 38.5 10.4688 38.0852 10.4688 37.594V12.384C10.4688 11.3306 11.3221 10.4779 12.3753 10.4779H37.5935C38.0919 10.4779 38.5 10.0631 38.5 9.57189V2.40604C38.5 1.90815 38.0853 1.5 37.5935 1.5H3.80065C2.99783 1.5 2.40507 1.51354 2.00447 1.67056C1.82461 1.74106 1.71315 1.83082 1.64026 1.94325ZM37.5935 0.5C38.6316 0.5 39.5 1.34988 39.5 2.40604V9.57189C39.5 10.61 38.6496 11.4779 37.5935 11.4779H12.3753C11.874 11.4779 11.4688 11.8832 11.4688 12.384V37.594C11.4688 38.6321 10.6184 39.5 9.56234 39.5H2.40649C1.36842 39.5 0.5 38.6501 0.5 37.594V2.56637C0.5 2.19125 0.500757 1.86683 0.531545 1.61139C0.56209 1.35797 0.631621 1.07136 0.851618 0.851436C1.07158 0.631541 1.35821 0.562059 1.61164 0.531532C1.86713 0.500757 2.19162 0.5 2.56688 0.5H3.77048C3.77688 0.5 3.78328 0.5 3.78968 0.5H37.5935ZM16.5822 3.47261C16.8584 3.47261 17.0822 3.69647 17.0822 3.97261V6.77235C17.0822 7.04849 16.8584 7.27235 16.5822 7.27235C16.3061 7.27235 16.0822 7.04849 16.0822 6.77235V3.97261C16.0822 3.69647 16.3061 3.47261 16.5822 3.47261ZM22.1839 3.47261C22.46 3.47261 22.6839 3.69647 22.6839 3.97261V6.77235C22.6839 7.04849 22.46 7.27235 22.1839 7.27235C21.9078 7.27235 21.6839 7.04849 21.6839 6.77235V3.97261C21.6839 3.69647 21.9078 3.47261 22.1839 3.47261ZM27.7849 3.47261C28.0611 3.47261 28.2849 3.69647 28.2849 3.97261V6.77235C28.2849 7.04849 28.0611 7.27235 27.7849 7.27235C27.5088 7.27235 27.2849 7.04849 27.2849 6.77235V3.97261C27.2849 3.69647 27.5088 3.47261 27.7849 3.47261ZM33.3983 3.47261C33.6745 3.47261 33.8983 3.69647 33.8983 3.97261V6.77235C33.8983 7.04849 33.6745 7.27235 33.3983 7.27235C33.1222 7.27235 32.8983 7.04849 32.8983 6.77235V3.97261C32.8983 3.69647 33.1222 3.47261 33.3983 3.47261ZM5.3678 5.16039C5.2554 5.16039 5.16456 5.25144 5.16456 5.36341C5.16456 5.47538 5.2554 5.56643 5.3678 5.56643C5.48021 5.56643 5.57105 5.47538 5.57105 5.36341C5.57105 5.25144 5.48021 5.16039 5.3678 5.16039ZM4.16456 5.36341C4.16456 4.69885 4.70342 4.16039 5.3678 4.16039C6.03218 4.16039 6.57105 4.69885 6.57105 5.36341C6.57105 6.02797 6.03219 6.56643 5.3678 6.56643C4.70342 6.56643 4.16456 6.02797 4.16456 5.36341ZM3.4737 16.5759C3.4737 16.2997 3.69755 16.0759 3.9737 16.0759H6.77434C7.05049 16.0759 7.27434 16.2997 7.27434 16.5759C7.27434 16.852 7.05049 17.0759 6.77434 17.0759H3.9737C3.69755 17.0759 3.4737 16.852 3.4737 16.5759ZM3.4737 22.18C3.4737 21.9038 3.69755 21.68 3.9737 21.68H6.77434C7.05049 21.68 7.27434 21.9038 7.27434 22.18C7.27434 22.4561 7.05049 22.68 6.77434 22.68H3.9737C3.69755 22.68 3.4737 22.4561 3.4737 22.18ZM3.4737 27.7794C3.4737 27.5032 3.69755 27.2794 3.9737 27.2794H6.77434C7.05049 27.2794 7.27434 27.5032 7.27434 27.7794C7.27434 28.0555 7.05049 28.2794 6.77434 28.2794H3.9737C3.69755 28.2794 3.4737 28.0555 3.4737 27.7794ZM3.4737 33.3885C3.4737 33.1123 3.69755 32.8885 3.9737 32.8885H6.77434C7.05049 32.8885 7.27434 33.1123 7.27434 33.3885C7.27434 33.6646 7.05049 33.8885 6.77434 33.8885H3.9737C3.69755 33.8885 3.4737 33.6646 3.4737 33.3885Z" fill="#666565"/>
</svg>
