<svg width="53" height="52" viewBox="0 0 53 52" fill="none" xmlns="http://www.w3.org/2000/svg">
<path fill-rule="evenodd" clip-rule="evenodd" d="M25.723 39.9381V43.741H28.2893V39.9705C32.2348 39.5598 34.9087 36.8477 34.9087 33.369C34.9087 31.3154 34.3149 29.8133 33.01 28.7554C31.8709 27.8319 30.2633 27.3125 28.2893 26.9482V20.0339C29.1155 20.1925 29.742 20.4968 30.2132 20.913C30.8173 21.4464 31.2348 22.2242 31.4476 23.3025L31.5587 23.8652H34.4285L34.316 23.0694C34.0763 21.3743 33.3637 19.9602 32.1991 18.9408C31.1776 18.0466 29.8507 17.4929 28.2893 17.2878V14.5541H25.723V17.2417C24.0302 17.422 22.5556 18.0253 21.4584 18.9844C20.2101 20.0756 19.4843 21.6003 19.4843 23.3724C19.4843 25.1322 20.0742 26.5138 21.2957 27.5297C22.3669 28.4207 23.8695 28.9837 25.723 29.3486V37.1948C24.3517 36.9875 23.4693 36.4951 22.884 35.8784C22.1881 35.1453 21.8281 34.1488 21.663 32.9783L21.5783 32.3778H18.6L18.699 33.1632C18.9169 34.8923 19.5326 36.5495 20.7861 37.8083C21.9332 38.9602 23.5536 39.7174 25.723 39.9381ZM27.5924 19.239C27.8348 19.2579 28.067 19.2864 28.2893 19.3246C30.4839 19.701 31.7063 21.0112 32.1318 23.1672C31.6631 20.7927 30.2285 19.4442 27.5924 19.239ZM26.4203 17.8905C22.7299 18.037 20.1817 20.2357 20.1817 23.3724C20.1817 26.5385 22.2612 28.0629 26.4203 28.7665V37.9715V28.7665C22.2612 28.0629 20.1817 26.5385 20.1817 23.3724C20.1817 20.2357 22.7299 18.037 26.4203 17.8905ZM19.3914 33.0758C19.4211 33.3115 19.458 33.5444 19.5036 33.7738C20.0875 36.7117 22.0191 39.0732 26.4203 39.2907C21.6755 39.0562 19.8014 36.3298 19.3914 33.0758ZM32.6302 33.4862C32.6302 35.978 30.6678 37.8542 27.5924 38.0008C27.8316 37.9894 28.064 37.9675 28.2893 37.9357C30.9608 37.5585 32.6302 35.7841 32.6302 33.4862C32.6302 30.8829 31.4779 29.7653 28.2893 29.1038C28.067 29.0577 27.8348 29.0138 27.5924 28.9718C31.3122 29.6167 32.6302 30.7013 32.6302 33.4862ZM26.4208 19.239V27.3593V19.239ZM31.9323 33.4862C31.9323 34.5376 31.523 35.4419 30.7941 36.1073C30.1921 36.6569 29.3478 37.0641 28.2893 37.2301V29.8174C29.6471 30.1113 30.5062 30.4758 31.0449 30.9504C31.6346 31.4698 31.9323 32.208 31.9323 33.4862ZM22.4021 23.2552C22.4021 22.2421 22.7706 21.4683 23.4149 20.9222C23.9521 20.4669 24.7225 20.1361 25.723 19.9992V26.4963C24.4092 26.1773 23.619 25.7823 23.1449 25.337C22.6187 24.8427 22.4021 24.2086 22.4021 23.2552Z" fill="#7F6644"/>
<path fill-rule="evenodd" clip-rule="evenodd" d="M27.3843 0.309167C27.1313 0.104954 26.8174 -0.00181527 26.5 2.34617e-05C26.1825 -0.0018196 25.8687 0.104957 25.6157 0.309169L0.652034 16.0314C0.131782 16.359 -0.11282 16.989 0.0498146 17.5823C0.21245 18.1756 0.744802 18.5924 1.35927 18.6084L1.59229 18.6142C1.74041 18.6178 1.95179 18.6228 2.20538 18.6283C2.71216 18.6394 3.38922 18.6526 4.06742 18.6615C4.5175 18.6674 4.97297 18.6714 5.38166 18.6714V42.1783H4.98254C3.25514 42.1783 1.79396 43.565 1.79396 45.3317V48.8466C1.79396 50.6134 3.25514 52 4.98254 52H48.035C49.7624 52 51.2235 50.6133 51.2235 48.8466V45.3317C51.2235 43.565 49.7624 42.1783 48.035 42.1783H47.6183V18.6089H51.6051C52.2266 18.6089 52.773 18.1974 52.9452 17.5998C53.1175 17.0022 52.8739 16.3626 52.348 16.0314L27.3843 0.309167ZM6.42374 15.8621C6.3532 15.8661 6.25904 15.8696 6.1422 15.8723L26.5 3.05092L46.7698 15.8169H46.2236C45.4533 15.8169 44.8289 16.4419 44.8289 17.2129V43.5743C44.8289 44.3453 45.4533 44.9703 46.2236 44.9703H48.035C48.2768 44.9703 48.4341 45.1614 48.4341 45.3317V48.8466C48.4341 49.0169 48.2768 49.2081 48.035 49.2081H4.98254C4.7407 49.2081 4.58342 49.0169 4.58342 48.8466V45.3317C4.58342 45.1614 4.74069 44.9703 4.98254 44.9703H6.77639C7.54668 44.9703 8.17112 44.3453 8.17112 43.5743V17.2129C8.17112 16.4419 7.54668 15.8169 6.77639 15.8169C6.65529 15.8169 6.53698 15.8325 6.42374 15.8621Z" fill="#7F6644"/>
</svg>
