<svg width="32" height="37" viewBox="0 0 32 37" fill="none" xmlns="http://www.w3.org/2000/svg">
<path d="M0.639489 37C0.281375 37 0 36.7193 0 36.3621V5.7414C0 5.38416 0.281375 5.10347 0.639489 5.10347C0.997603 5.10347 1.27898 5.38416 1.27898 5.7414V36.3621C1.27898 36.7193 0.997603 37 0.639489 37Z" fill="#666565"/>
<path d="M0.639489 6.37931C0.281375 6.37931 0 6.09865 0 5.7414C0 2.57727 2.58354 0 5.7554 0C6.11352 0 6.39489 0.280689 6.39489 0.637931C6.39489 0.995172 6.11352 1.27586 5.7554 1.27586C3.28697 1.27586 1.27898 3.27899 1.27898 5.7414C1.27898 6.09865 0.997603 6.37931 0.639489 6.37931Z" fill="#666565"/>
<path d="M15.9873 1.27586H5.7554C5.39729 1.27586 5.11594 0.995172 5.11594 0.637931C5.11594 0.280689 5.39729 0 5.7554 0H15.9873C16.3454 0 16.6267 0.280689 16.6267 0.637931C16.6267 0.995172 16.3454 1.27586 15.9873 1.27586Z" fill="#666565"/>
<path d="M21.1031 6.37931C20.745 6.37931 20.4637 6.09862 20.4637 5.74137C20.4637 3.27896 18.4557 1.27586 15.9873 1.27586C15.6291 1.27586 15.3477 0.995172 15.3477 0.637931C15.3477 0.280689 15.6291 0 15.9873 0C19.1591 0 21.7426 2.57724 21.7426 5.74137C21.7426 6.09862 21.4613 6.37931 21.1031 6.37931Z" fill="#666565"/>
<path d="M27.4981 12.7586H14.7083C14.3502 12.7586 14.0688 12.478 14.0688 12.1207C14.0688 8.25485 17.2279 5.10347 21.1032 5.10347C24.9785 5.10347 28.1376 8.25485 28.1376 12.1207C28.1376 12.478 27.8562 12.7586 27.4981 12.7586ZM15.3861 11.4828H26.8202C26.5005 8.61209 24.0576 6.37931 21.1031 6.37931C18.1487 6.37931 15.7059 8.61209 15.3861 11.4828Z" fill="#666565"/>
<path d="M16.0128 17.8619C15.6547 17.8619 15.3733 17.5812 15.3733 17.224C15.3733 16.8668 15.6547 16.5861 16 16.5861H16.0128C16.3709 16.5861 16.6523 16.8668 16.6523 17.224C16.6523 17.5812 16.3709 17.8619 16.0128 17.8619Z" fill="#666565"/>
<path d="M21.1286 17.8619C20.7705 17.8619 20.4891 17.5812 20.4891 17.224C20.4891 16.8668 20.7705 16.5861 21.1158 16.5861H21.1286C21.4867 16.5861 21.7681 16.8668 21.7681 17.224C21.7681 17.5812 21.4867 17.8619 21.1286 17.8619Z" fill="#666565"/>
<path d="M26.2446 17.8619C25.8865 17.8619 25.6051 17.5812 25.6051 17.224C25.6051 16.8668 25.8865 16.5861 26.2318 16.5861H26.2446C26.6027 16.5861 26.8841 16.8668 26.8841 17.224C26.8841 17.5812 26.6027 17.8619 26.2446 17.8619Z" fill="#666565"/>
<path d="M13.4548 22.9654C13.0967 22.9654 12.8153 22.6847 12.8153 22.3275C12.8153 21.9702 13.0967 21.6896 13.442 21.6896H13.4548C13.8129 21.6896 14.0943 21.9702 14.0943 22.3275C14.0943 22.6847 13.8129 22.9654 13.4548 22.9654Z" fill="#666565"/>
<path d="M18.5707 22.9654C18.2126 22.9654 17.9312 22.6847 17.9312 22.3275C17.9312 21.9702 18.2126 21.6896 18.5579 21.6896H18.5707C18.9288 21.6896 19.2102 21.9702 19.2102 22.3275C19.2102 22.6847 18.9288 22.9654 18.5707 22.9654Z" fill="#666565"/>
<path d="M23.6866 22.9654C23.3285 22.9654 23.0471 22.6847 23.0471 22.3275C23.0471 21.9702 23.3285 21.6896 23.6738 21.6896H23.6866C24.0447 21.6896 24.3261 21.9702 24.3261 22.3275C24.3261 22.6847 24.0447 22.9654 23.6866 22.9654Z" fill="#666565"/>
<path d="M28.8025 22.9654C28.4444 22.9654 28.1631 22.6847 28.1631 22.3275C28.1631 21.9702 28.4444 21.6896 28.7898 21.6896H28.8025C29.1607 21.6896 29.442 21.9702 29.442 22.3275C29.442 22.6847 29.1607 22.9654 28.8025 22.9654Z" fill="#666565"/>
<path d="M10.8968 28.0689C10.5387 28.0689 10.2573 27.7882 10.2573 27.431C10.2573 27.0737 10.5259 26.793 10.884 26.793H10.8968C11.2549 26.793 11.5363 27.0737 11.5363 27.431C11.5363 27.7882 11.2549 28.0689 10.8968 28.0689Z" fill="#666565"/>
<path d="M16.0128 28.0689C15.6547 28.0689 15.3733 27.7882 15.3733 27.431C15.3733 27.0737 15.6547 26.793 16 26.793H16.0128C16.3709 26.793 16.6523 27.0737 16.6523 27.431C16.6523 27.7882 16.3709 28.0689 16.0128 28.0689Z" fill="#666565"/>
<path d="M21.1286 28.0689C20.7705 28.0689 20.4891 27.7882 20.4891 27.431C20.4891 27.0737 20.7705 26.793 21.1158 26.793H21.1286C21.4867 26.793 21.7681 27.0737 21.7681 27.431C21.7681 27.7882 21.4867 28.0689 21.1286 28.0689Z" fill="#666565"/>
<path d="M26.2446 28.0689C25.8865 28.0689 25.6051 27.7882 25.6051 27.431C25.6051 27.0737 25.8865 26.793 26.2318 26.793H26.2446C26.6027 26.793 26.8841 27.0737 26.8841 27.431C26.8841 27.7882 26.6027 28.0689 26.2446 28.0689Z" fill="#666565"/>
<path d="M31.3605 28.0689C31.0024 28.0689 30.721 27.7882 30.721 27.431C30.721 27.0737 31.0024 26.793 31.3477 26.793H31.3605C31.7186 26.793 32 27.0737 32 27.431C32 27.7882 31.7186 28.0689 31.3605 28.0689Z" fill="#666565"/>
</svg>
