<svg width="37" height="38" viewBox="0 0 37 38" fill="none" xmlns="http://www.w3.org/2000/svg">
<path fill-rule="evenodd" clip-rule="evenodd" d="M3.5 1.5C2.41433 1.5 1.5 2.41991 1.5 3.57143V13.3551H5.5V8.90714C5.5 7.81865 6.36346 6.92857 7.4375 6.92857H14.55C15.6421 6.92857 16.4875 7.83725 16.4875 8.90714V13.3551H20.5V8.90714C20.5 7.81865 21.3635 6.92857 22.4375 6.92857H29.55C30.6421 6.92857 31.4875 7.83724 31.4875 8.90714V13.3551H35.5V3.57143C35.5 2.41991 34.5857 1.5 33.5 1.5H3.5ZM36.5 3.57143C36.5 1.89437 35.1643 0.5 33.5 0.5H3.5C1.83567 0.5 0.5 1.89437 0.5 3.57143V34.4286C0.5 36.1056 1.83567 37.5 3.5 37.5H33.5C35.1643 37.5 36.5 36.1056 36.5 34.4286V3.57143ZM35.5 14.3551H31.0451C31.0303 14.3565 31.0152 14.3571 31 14.3571H21C20.9848 14.3571 20.9697 14.3565 20.9549 14.3551H16.0451C16.0303 14.3565 16.0152 14.3571 16 14.3571H6C5.98479 14.3571 5.96974 14.3565 5.95488 14.3551H1.5V22.3592H35.5V14.3551ZM35.5 23.3592H1.5V34.4286C1.5 35.5801 2.41433 36.5 3.5 36.5H33.5C34.5857 36.5 35.5 35.5801 35.5 34.4286V23.3592ZM6.5 13.3551H15.4875V8.90714C15.4875 8.35704 15.0579 7.92857 14.55 7.92857H7.4375C6.93653 7.92857 6.5 8.34992 6.5 8.90714V13.3551ZM21.5 13.3551H30.4875V8.90714C30.4875 8.35704 30.0579 7.92857 29.55 7.92857H22.4375C21.9365 7.92857 21.5 8.34992 21.5 8.90714V13.3551Z" fill="#666565"/>
</svg>
