<svg width="22" height="30" viewBox="0 0 22 30" fill="none" xmlns="http://www.w3.org/2000/svg">
<path d="M21.0233 29.6972C21.3737 29.6972 21.6604 29.3823 21.6604 28.9973V1.0009C21.6604 0.615954 21.3737 0.300995 21.0233 0.300995H0.63707C0.286681 0.300995 0 0.615954 0 1.0009V28.9973C0 29.3823 0.286681 29.6972 0.63707 29.6972H21.0233ZM12.4229 28.2974H9.23751V23.398H12.4229V28.2974ZM1.27414 1.70082H20.3862V28.2974H13.697V22.6981C13.697 22.3132 13.4103 21.9982 13.0599 21.9982H8.60044C8.25006 21.9982 7.96337 22.3132 7.96337 22.6981V28.2974H1.27414V1.70082Z" fill="#666565"/>
<path d="M6.3707 3.80055H3.82242C3.47203 3.80055 3.18535 4.1155 3.18535 4.50046V7.3001C3.18535 7.68505 3.47203 8.00001 3.82242 8.00001H6.3707C6.72109 8.00001 7.00777 7.68505 7.00777 7.3001V4.50046C7.00777 4.1155 6.72109 3.80055 6.3707 3.80055ZM5.73363 6.60019H4.45949V5.20037H5.73363V6.60019ZM9.55605 8.00001H12.1043C12.4547 8.00001 12.7414 7.68505 12.7414 7.3001V4.50046C12.7414 4.1155 12.4547 3.80055 12.1043 3.80055H9.55605C9.20566 3.80055 8.91898 4.1155 8.91898 4.50046V7.3001C8.91898 7.68505 9.20566 8.00001 9.55605 8.00001ZM10.1931 5.20037H11.4673V6.60019H10.1931V5.20037ZM15.2897 8.00001H17.838C18.1883 8.00001 18.475 7.68505 18.475 7.3001V4.50046C18.475 4.1155 18.1883 3.80055 17.838 3.80055H15.2897C14.9393 3.80055 14.6526 4.1155 14.6526 4.50046V7.3001C14.6526 7.68505 14.9393 8.00001 15.2897 8.00001ZM15.9267 5.20037H17.2009V6.60019H15.9267V5.20037ZM6.3707 9.39983H3.82242C3.47203 9.39983 3.18535 9.71479 3.18535 10.0997V12.8994C3.18535 13.2843 3.47203 13.5993 3.82242 13.5993H6.3707C6.72109 13.5993 7.00777 13.2843 7.00777 12.8994V10.0997C7.00777 9.71479 6.72109 9.39983 6.3707 9.39983ZM5.73363 12.1995H4.45949V10.7996H5.73363V12.1995ZM9.55605 13.5993H12.1043C12.4547 13.5993 12.7414 13.2843 12.7414 12.8994V10.0997C12.7414 9.71479 12.4547 9.39983 12.1043 9.39983H9.55605C9.20566 9.39983 8.91898 9.71479 8.91898 10.0997V12.8994C8.91898 13.2843 9.20566 13.5993 9.55605 13.5993ZM10.1931 10.7996H11.4673V12.1995H10.1931V10.7996ZM15.2897 13.5993H17.838C18.1883 13.5993 18.475 13.2843 18.475 12.8994V10.0997C18.475 9.71479 18.1883 9.39983 17.838 9.39983H15.2897C14.9393 9.39983 14.6526 9.71479 14.6526 10.0997V12.8994C14.6526 13.2843 14.9393 13.5993 15.2897 13.5993ZM15.9267 10.7996H17.2009V12.1995H15.9267V10.7996ZM6.3707 14.9991H3.82242C3.47203 14.9991 3.18535 15.3141 3.18535 15.699V18.4987C3.18535 18.8836 3.47203 19.1986 3.82242 19.1986H6.3707C6.72109 19.1986 7.00777 18.8836 7.00777 18.4987V15.699C7.00777 15.3141 6.72109 14.9991 6.3707 14.9991ZM5.73363 17.7987H4.45949V16.3989H5.73363V17.7987ZM9.55605 19.1986H12.1043C12.4547 19.1986 12.7414 18.8836 12.7414 18.4987V15.699C12.7414 15.3141 12.4547 14.9991 12.1043 14.9991H9.55605C9.20566 14.9991 8.91898 15.3141 8.91898 15.699V18.4987C8.91898 18.8836 9.20566 19.1986 9.55605 19.1986ZM10.1931 16.3989H11.4673V17.7987H10.1931V16.3989ZM15.2897 19.1986H17.838C18.1883 19.1986 18.475 18.8836 18.475 18.4987V15.699C18.475 15.3141 18.1883 14.9991 17.838 14.9991H15.2897C14.9393 14.9991 14.6526 15.3141 14.6526 15.699V18.4987C14.6526 18.8836 14.9393 19.1986 15.2897 19.1986ZM15.9267 16.3989H17.2009V17.7987H15.9267V16.3989Z" fill="#666565"/>
</svg>
