<svg width="29" height="77" viewBox="0 0 29 77" fill="none" xmlns="http://www.w3.org/2000/svg">
<g filter="url(#filter0_d_3696_31188)">
<path d="M21.7744 68H7.22487C5.72016 68 4.5 66.7607 4.5 65.2324V19.7805C4.5 19.3916 4.58045 19.0072 4.73688 18.6524L11.7725 2.64001C12.7208 0.48223 15.7228 0.445158 16.7224 2.57949L24.2356 18.6267C24.4091 18.9982 24.5 19.4045 24.5 19.8153V65.2324C24.4993 66.7607 23.2791 68 21.7744 68Z" fill="#7F6644"/>
<path d="M21.7744 68H7.22487C5.72016 68 4.5 66.7607 4.5 65.2324V19.7805C4.5 19.3916 4.58045 19.0072 4.73688 18.6524L11.7725 2.64001C12.7208 0.48223 15.7228 0.445158 16.7224 2.57949L24.2356 18.6267C24.4091 18.9982 24.5 19.4045 24.5 19.8153V65.2324C24.4993 66.7607 23.2791 68 21.7744 68Z" stroke="white" stroke-width="0.6325" stroke-miterlimit="10"/>
</g>
<defs>
<filter id="filter0_d_3696_31188" x="0.183594" y="0.683594" width="28.6328" height="75.6328" filterUnits="userSpaceOnUse" color-interpolation-filters="sRGB">
<feFlood flood-opacity="0" result="BackgroundImageFix"/>
<feColorMatrix in="SourceAlpha" type="matrix" values="0 0 0 0 0 0 0 0 0 0 0 0 0 0 0 0 0 0 127 0" result="hardAlpha"/>
<feOffset dy="4"/>
<feGaussianBlur stdDeviation="2"/>
<feComposite in2="hardAlpha" operator="out"/>
<feColorMatrix type="matrix" values="0 0 0 0 0 0 0 0 0 0 0 0 0 0 0 0 0 0 0.25 0"/>
<feBlend mode="normal" in2="BackgroundImageFix" result="effect1_dropShadow_3696_31188"/>
<feBlend mode="normal" in="SourceGraphic" in2="effect1_dropShadow_3696_31188" result="shape"/>
</filter>
</defs>
</svg>
