<svg width="24" height="24" viewBox="0 0 24 24" fill="none" xmlns="http://www.w3.org/2000/svg">
<path fill-rule="evenodd" clip-rule="evenodd" d="M0.430703 1.13114C0.944102 0.617744 1.77649 0.617744 2.28988 1.13114L11.5853 10.4265L20.8807 1.13114C21.3941 0.617744 22.2264 0.617744 22.7398 1.13114C23.2532 1.64454 23.2532 2.47693 22.7398 2.99032L13.4444 12.2857L22.7398 21.5811C23.2532 22.0945 23.2532 22.9269 22.7398 23.4403C22.2264 23.9537 21.3941 23.9537 20.8807 23.4403L11.5853 14.1449L2.28989 23.4403C1.77649 23.9537 0.944103 23.9537 0.430704 23.4403C-0.082695 22.9269 -0.0826958 22.0945 0.430703 21.5811L9.72608 12.2857L0.430703 2.99032C-0.0826954 2.47693 -0.0826954 1.64454 0.430703 1.13114Z" fill="#666565"/>
</svg>
