<svg width="27" height="38" viewBox="0 0 27 38" fill="none" xmlns="http://www.w3.org/2000/svg">
<path d="M21.2593 29.4433H6.06066C4.94609 29.4433 4.03418 28.5377 4.03418 27.4168V17.9366C4.03418 16.8221 4.93976 15.9102 6.06066 15.9102H21.2593C22.3738 15.9102 23.2858 16.8157 23.2858 17.9366V27.4168C23.2858 28.5377 22.3738 29.4433 21.2593 29.4433ZM6.06066 17.316C5.71869 17.316 5.44005 17.5947 5.44005 17.9366V27.4168C5.44005 27.7587 5.71869 28.0374 6.06066 28.0374H21.2593C21.6012 28.0374 21.8799 27.7587 21.8799 27.4168V17.9366C21.8799 17.5947 21.6012 17.316 21.2593 17.316H6.06066Z" fill="#7F6644"/>
<path d="M8.79571 29.1676C8.40941 29.1676 8.09277 28.851 8.09277 28.4647V16.8631C8.09277 16.4768 8.40941 16.1602 8.79571 16.1602C9.18201 16.1602 9.49865 16.4768 9.49865 16.8631V28.4647C9.49865 28.851 9.18834 29.1676 8.79571 29.1676Z" fill="#7F6644"/>
<path d="M18.4852 29.307C18.0989 29.307 17.7822 28.9903 17.7822 28.604V16.8631C17.7822 16.4768 18.0989 16.1602 18.4852 16.1602C18.8715 16.1602 19.1881 16.4768 19.1881 16.8631V28.5977C19.1881 28.9903 18.8715 29.307 18.4852 29.307Z" fill="#7F6644"/>
<path d="M16.3008 16.7948C15.9145 16.7948 15.5978 16.4782 15.5978 16.0919C15.5978 15.6233 15.2179 15.2496 14.7556 15.2496H12.5265C12.0578 15.2496 11.6842 15.6296 11.6842 16.0919C11.6842 16.4782 11.3676 16.7948 10.9813 16.7948C10.595 16.7948 10.2783 16.4782 10.2783 16.0919C10.2783 14.8507 11.2852 13.8438 12.5265 13.8438H14.7556C15.9968 13.8438 17.0037 14.8507 17.0037 16.0919C17.0037 16.4845 16.6934 16.7948 16.3008 16.7948Z" fill="#7F6644"/>
<path d="M24.7168 34.0766H1.97582C0.886583 34.0766 0 33.1901 0 32.1008C0 31.0116 0.886583 30.125 1.97582 30.125H24.7168C25.806 30.125 26.6926 31.0116 26.6926 32.1008C26.6926 33.1901 25.806 34.0766 24.7168 34.0766ZM1.97582 31.5309C1.65918 31.5309 1.40587 31.7842 1.40587 32.1008C1.40587 32.4175 1.65918 32.6708 1.97582 32.6708H24.7168C25.0334 32.6708 25.2867 32.4175 25.2867 32.1008C25.2867 31.7842 25.0334 31.5309 24.7168 31.5309H1.97582Z" fill="#7F6644"/>
<path d="M25.0586 31.5301C24.6723 31.5301 24.3557 31.2135 24.3557 30.8272V12.3292C24.3557 8.3142 21.088 5.04649 17.073 5.04649H10.5059C6.49096 5.04649 3.22326 8.3142 3.22326 12.3292V30.8272C3.22326 31.2135 2.90662 31.5301 2.52032 31.5301C2.13402 31.5301 1.81738 31.2135 1.81738 30.8272V12.3292C1.81738 7.5416 5.71203 3.64062 10.5059 3.64062H17.073C21.8606 3.64062 25.7615 7.53527 25.7615 12.3292V30.8272C25.7615 31.2135 25.4449 31.5301 25.0586 31.5301Z" fill="#7F6644"/>
<path d="M5.16143 37.9908C3.97087 37.9908 3.00195 37.0219 3.00195 35.8313C3.00195 34.6408 3.97087 33.6719 5.16143 33.6719C6.35198 33.6719 7.3209 34.6408 7.3209 35.8313C7.31457 37.0219 6.35198 37.9908 5.16143 37.9908ZM5.16143 35.0777C4.74346 35.0777 4.40783 35.4134 4.40783 35.8313C4.40783 36.2493 4.74346 36.5849 5.16143 36.5849C5.57939 36.5849 5.91503 36.2493 5.91503 35.8313C5.90869 35.4197 5.57306 35.0777 5.16143 35.0777Z" fill="#7F6644"/>
<path d="M22.0823 37.9908C20.8918 37.9908 19.9229 37.0219 19.9229 35.8313C19.9229 34.6408 20.8918 33.6719 22.0823 33.6719C23.2729 33.6719 24.2418 34.6408 24.2418 35.8313C24.2418 37.0219 23.2729 37.9908 22.0823 37.9908ZM22.0823 35.0777C21.6644 35.0777 21.3287 35.4134 21.3287 35.8313C21.3287 36.2493 21.6644 36.5849 22.0823 36.5849C22.5003 36.5849 22.8359 36.2493 22.8359 35.8313C22.8359 35.4197 22.494 35.0777 22.0823 35.0777Z" fill="#7F6644"/>
<path d="M13.8001 4.31894C12.6095 4.31894 11.6406 3.35003 11.6406 2.15947C11.6406 0.968912 12.6095 0 13.8001 0C14.9907 0 15.9596 0.968912 15.9596 2.15947C15.9596 3.35636 14.9907 4.31894 13.8001 4.31894ZM13.8001 1.4122C13.3821 1.4122 13.0465 1.74784 13.0465 2.1658C13.0465 2.58377 13.3821 2.9194 13.8001 2.9194C14.2181 2.9194 14.5537 2.58377 14.5537 2.1658C14.5537 1.74784 14.2181 1.4122 13.8001 1.4122Z" fill="#7F6644"/>
</svg>
