<svg width="36" height="36" viewBox="0 0 36 36" fill="none" xmlns="http://www.w3.org/2000/svg">
<path d="M34.1909 6.44715H32.3078V0.902427C32.3078 0.406492 31.8967 0 31.3951 0C30.8935 0 30.4824 0.406492 30.4824 0.902427V6.44715H23.9534V0.902427C23.9534 0.406492 23.5422 0 23.0406 0C22.539 0 22.1279 0.406492 22.1279 0.902427V6.44715H20.2448C19.2416 6.44715 18.4276 7.25203 18.4276 8.2439V9.1382C18.4276 10.1301 19.2416 10.935 20.2448 10.935H20.253V14.5041C20.253 17.5041 23.0571 19.9431 26.5107 19.9756V28.8862C26.5107 31.9106 24.0603 34.187 20.8122 34.187H20.6806C17.6053 34.187 15.196 31.7154 15.196 28.5528V8.70731C15.196 4.60162 11.8163 1.26015 7.66376 1.26015H7.53219C3.37962 1.26015 0 4.60162 0 8.70731V23.1382C0 23.6341 0.411146 24.0407 0.912744 24.0407C1.41434 24.0407 1.82549 23.6341 1.82549 23.1382V8.70731C1.82549 5.60162 4.38281 3.07317 7.52397 3.07317H7.65554C10.7967 3.07317 13.354 5.60162 13.354 8.70731V28.5528C13.354 32.7236 16.5692 36 20.6724 36H20.804C25.0963 36 28.3362 32.9431 28.3362 28.8862V19.9593C31.5925 19.7398 34.1662 17.3821 34.1662 14.5041V10.935H34.1827C35.1859 10.935 35.9999 10.1301 35.9999 9.1382V8.2439C36.0082 7.25203 35.1859 6.44715 34.1909 6.44715ZM32.349 14.4959C32.349 16.5203 30.3343 18.1626 27.851 18.1626H26.5847C24.1014 18.1626 22.0868 16.5203 22.0868 14.4959V10.9268H32.349V14.4959ZM34.1744 9.12194L20.253 9.1382L20.2448 8.26015L34.1744 8.2439V9.12194Z" fill="#7F6644"/>
</svg>
