<svg width="36" height="37" viewBox="0 0 36 37" fill="none" xmlns="http://www.w3.org/2000/svg">
<path d="M18.0002 30.8149C10.9331 30.8149 5.18652 25.0683 5.18652 18.0012C5.18652 10.9341 10.9331 5.1875 18.0002 5.1875C25.0673 5.1875 30.8139 10.9341 30.8139 18.0012C30.8139 25.0683 25.0673 30.8149 18.0002 30.8149ZM18.0002 6.88419C11.87 6.88419 6.88321 11.871 6.88321 18.0012C6.88321 24.1314 11.87 29.1182 18.0002 29.1182C24.1304 29.1182 29.1172 24.1314 29.1172 18.0012C29.1172 11.871 24.1304 6.88419 18.0002 6.88419Z" fill="#7F6644"/>
<path d="M18.0004 27.3524C12.8439 27.3524 8.64648 23.1549 8.64648 17.9985C8.64648 12.842 12.8439 8.64453 18.0004 8.64453C23.1569 8.64453 27.3543 12.842 27.3543 17.9985C27.3543 23.1549 23.1569 27.3524 18.0004 27.3524ZM18.0004 10.3339C13.7734 10.3339 10.3358 13.7715 10.3358 17.9985C10.3358 22.2254 13.7734 25.6631 18.0004 25.6631C22.2274 25.6631 25.665 22.2254 25.665 17.9985C25.665 13.7715 22.2274 10.3339 18.0004 10.3339Z" fill="#7F6644"/>
<path d="M18.0002 21.2386C16.215 21.2386 14.7617 19.7854 14.7617 18.0002C14.7617 16.215 16.215 14.7617 18.0002 14.7617C19.7854 14.7617 21.2387 16.215 21.2387 18.0002C21.2387 19.7854 19.7854 21.2386 18.0002 21.2386ZM18.0002 16.451C17.1445 16.451 16.451 17.1445 16.451 18.0002C16.451 18.8559 17.1445 19.5493 18.0002 19.5493C18.8559 19.5493 19.5494 18.8559 19.5494 18.0002C19.5494 17.1445 18.8559 16.451 18.0002 16.451Z" fill="#7F6644"/>
<path d="M18.0007 16.422C17.5359 16.422 17.1523 16.0458 17.1523 15.5737V9.73115C17.1523 9.26641 17.5286 8.88281 18.0007 8.88281C18.4654 8.88281 18.849 9.25903 18.849 9.73115V15.5737C18.849 16.0384 18.4654 16.422 18.0007 16.422Z" fill="#7F6644"/>
<path d="M18.0007 6.68348C17.5359 6.68348 17.1523 6.30727 17.1523 5.83514V0.848352C17.1523 0.383606 17.5286 0 18.0007 0C18.4654 0 18.849 0.376229 18.849 0.848352V5.83514C18.849 6.29989 18.4654 6.68348 18.0007 6.68348Z" fill="#7F6644"/>
<path d="M16.2793 17.1267C16.0654 17.1267 15.8441 17.0456 15.6818 16.8759L11.5507 12.7448C11.2188 12.4128 11.2188 11.8817 11.5507 11.5498C11.8827 11.2178 12.4138 11.2178 12.7458 11.5498L16.8769 15.6808C17.2088 16.0128 17.2088 16.5439 16.8769 16.8759C16.7146 17.0456 16.5006 17.1267 16.2793 17.1267Z" fill="#7F6644"/>
<path d="M9.39806 10.2444C9.18412 10.2444 8.96282 10.1633 8.80053 9.99363L5.27436 6.46747C4.9424 6.1355 4.9424 5.60437 5.27436 5.27241C5.60632 4.94045 6.13746 4.94045 6.46942 5.27241L9.99558 8.79857C10.3275 9.13053 10.3275 9.66167 9.99558 9.99363C9.83329 10.1633 9.61199 10.2444 9.39806 10.2444Z" fill="#7F6644"/>
<path d="M15.5731 18.8451H9.73799C9.27324 18.8451 8.88965 18.4689 8.88965 17.9968C8.88965 17.532 9.26587 17.1484 9.73799 17.1484H15.5731C16.0379 17.1484 16.4215 17.5247 16.4215 17.9968C16.4215 18.4615 16.0379 18.8451 15.5731 18.8451Z" fill="#7F6644"/>
<path d="M5.83514 18.8451H0.848341C0.383595 18.8451 0 18.4689 0 17.9968C0 17.532 0.376218 17.1484 0.848341 17.1484H5.83514C6.29989 17.1484 6.68348 17.5247 6.68348 17.9968C6.68348 18.4615 6.29989 18.8451 5.83514 18.8451Z" fill="#7F6644"/>
<path d="M12.1561 24.6892C11.9421 24.6892 11.7208 24.6081 11.5585 24.4384C11.2266 24.1064 11.2266 23.5753 11.5585 23.2433L15.6896 19.1123C16.0216 18.7803 16.5527 18.7803 16.8847 19.1123C17.2166 19.4442 17.2166 19.9753 16.8847 20.3073L12.7536 24.4384C12.584 24.6081 12.37 24.6892 12.1561 24.6892Z" fill="#7F6644"/>
<path d="M5.87189 30.9749C5.65796 30.9749 5.43665 30.8938 5.27436 30.7241C4.9424 30.3921 4.9424 29.861 5.27436 29.529L8.80053 26.0029C9.13249 25.6709 9.66362 25.6709 9.99558 26.0029C10.3275 26.3348 10.3275 26.866 9.99558 27.1979L6.46942 30.7241C6.30713 30.8938 6.08582 30.9749 5.87189 30.9749Z" fill="#7F6644"/>
<path d="M17.9997 27.1139C17.535 27.1139 17.1514 26.7376 17.1514 26.2655V20.4304C17.1514 19.9656 17.5276 19.582 17.9997 19.582C18.4645 19.582 18.848 19.9582 18.848 20.4304V26.2655C18.848 26.7376 18.4645 27.1139 17.9997 27.1139Z" fill="#7F6644"/>
<path d="M17.9997 36.0038C17.535 36.0038 17.1514 35.6276 17.1514 35.1555V30.1687C17.1514 29.7039 17.5276 29.3203 17.9997 29.3203C18.4645 29.3203 18.848 29.6965 18.848 30.1687V35.1555C18.848 35.6202 18.4645 36.0038 17.9997 36.0038Z" fill="#7F6644"/>
<path d="M23.8428 24.6892C23.6289 24.6892 23.4076 24.6081 23.2453 24.4384L19.1142 20.3073C18.7822 19.9753 18.7822 19.4442 19.1142 19.1123C19.4462 18.7803 19.9773 18.7803 20.3093 19.1123L24.4403 23.2433C24.7723 23.5753 24.7723 24.1064 24.4403 24.4384C24.278 24.6081 24.0641 24.6892 23.8428 24.6892Z" fill="#7F6644"/>
<path d="M30.1285 30.9749C29.9146 30.9749 29.6933 30.8938 29.531 30.7241L26.0048 27.1979C25.6729 26.866 25.6729 26.3348 26.0048 26.0029C26.3368 25.6709 26.8679 25.6709 27.1999 26.0029L30.7261 29.529C31.058 29.861 31.058 30.3921 30.7261 30.7241C30.5638 30.8938 30.3425 30.9749 30.1285 30.9749Z" fill="#7F6644"/>
<path d="M26.2622 18.8451H20.4196C19.9549 18.8451 19.5713 18.4689 19.5713 17.9968C19.5713 17.532 19.9475 17.1484 20.4196 17.1484H26.2622C26.7269 17.1484 27.1105 17.5247 27.1105 17.9968C27.1105 18.4615 26.7343 18.8451 26.2622 18.8451Z" fill="#7F6644"/>
<path d="M35.1506 18.8451H30.1638C29.699 18.8451 29.3154 18.4689 29.3154 17.9968C29.3154 17.532 29.6916 17.1484 30.1638 17.1484H35.1506C35.6153 17.1484 35.9989 17.5247 35.9989 17.9968C35.9989 18.4615 35.6153 18.8451 35.1506 18.8451Z" fill="#7F6644"/>
<path d="M19.7195 17.1267C19.5056 17.1267 19.2843 17.0456 19.122 16.8759C18.7901 16.5439 18.7901 16.0128 19.122 15.6808L23.2531 11.5498C23.5851 11.2178 24.1162 11.2178 24.4482 11.5498C24.7801 11.8817 24.7801 12.4128 24.4482 12.7448L20.3171 16.8759C20.1474 17.0456 19.9335 17.1267 19.7195 17.1267Z" fill="#7F6644"/>
<path d="M26.6014 10.2444C26.3875 10.2444 26.1661 10.1633 26.0039 9.99363C25.6719 9.66167 25.6719 9.13053 26.0039 8.79857L29.53 5.27241C29.862 4.94045 30.3931 4.94045 30.7251 5.27241C31.057 5.60437 31.057 6.1355 30.7251 6.46747L27.1989 9.99363C27.0366 10.1633 26.8227 10.2444 26.6014 10.2444Z" fill="#7F6644"/>
</svg>
