<svg width="38" height="33" viewBox="0 0 38 33" fill="none" xmlns="http://www.w3.org/2000/svg">
<path d="M35.3999 8.06509H22.0944V1.73892C22.0944 0.778975 21.3154 0 20.3555 0H16.799C16.2089 0 15.6896 0.298996 15.3748 0.747494H13.9349C12.975 0.747494 12.196 1.52647 12.196 2.48641V8.06509H1.73891C0.778969 8.06509 0 8.84407 0 9.80401V31.2611C0 32.221 0.778969 33 1.73891 33H35.3999C36.3598 33 37.1388 32.221 37.1388 31.2611V9.80401C37.1466 8.84407 36.3598 8.06509 35.3999 8.06509ZM20.3555 9.76467V10.6381V9.76467C20.3476 9.76467 20.3476 9.76467 20.3555 9.76467ZM20.3398 1.73892V9.76467L16.799 9.77253L16.7911 1.74678L20.3398 1.73892ZM13.927 2.50215H15.0601V8.08083C15.0365 8.08083 15.0129 8.06509 14.9893 8.06509H13.9349L13.927 2.50215ZM1.75465 31.2611L1.74678 9.81187H14.9893C15.0129 9.81187 15.0365 9.79613 15.0601 9.79613C15.0758 10.7403 15.8469 11.5114 16.799 11.5114H20.3555C21.2997 11.5114 22.0708 10.7561 22.0944 9.81187L35.3999 9.80401L35.4077 31.2532L1.75465 31.2611Z" fill="#7F6644"/>
<path d="M14.045 13.1484H5.60219C4.64225 13.1484 3.86328 13.9274 3.86328 14.8873V26.1785C3.86328 27.1384 4.64225 27.9174 5.60219 27.9174H14.045C15.0049 27.9174 15.7839 27.1384 15.7839 26.1785V14.8873C15.7839 13.9353 15.0049 13.1484 14.045 13.1484ZM14.0371 26.1706L5.61793 26.1785L5.61006 14.9031L14.0371 14.8952V26.1706ZM14.045 27.044V26.1706V27.044Z" fill="#7F6644"/>
<path d="M31.1817 14.7773H18.9779C18.4979 14.7773 18.1045 15.1708 18.1045 15.6507C18.1045 16.1307 18.4979 16.5241 18.9779 16.5241H31.1817C31.6617 16.5241 32.0551 16.1307 32.0551 15.6507C32.0551 15.1708 31.6617 14.7773 31.1817 14.7773Z" fill="#7F6644"/>
<path d="M31.1817 19.7656H18.9779C18.4979 19.7656 18.1045 20.159 18.1045 20.639C18.1045 21.119 18.4979 21.5124 18.9779 21.5124H31.1817C31.6617 21.5124 32.0551 21.119 32.0551 20.639C32.0551 20.1512 31.6617 19.7656 31.1817 19.7656Z" fill="#7F6644"/>
<path d="M27.1138 24.7461H18.9779C18.4979 24.7461 18.1045 25.1395 18.1045 25.6195C18.1045 26.0995 18.4979 26.4929 18.9779 26.4929H27.1138C27.5938 26.4929 27.9872 26.0995 27.9872 25.6195C27.9872 25.1395 27.5938 24.7461 27.1138 24.7461Z" fill="#7F6644"/>
</svg>
