<svg width="35" height="30" viewBox="0 0 35 30" fill="none" xmlns="http://www.w3.org/2000/svg">
<path d="M18.3967 18.7912C18.3658 18.7912 18.3348 18.7912 18.3039 18.7912C17.9094 18.7758 17.6078 18.6443 17.4222 18.3968C16.5405 17.2444 11.9927 12.1707 11.9463 12.1243L6.09152 5.48059C5.77441 5.12482 5.81306 4.58341 6.16884 4.26631C6.52461 3.94921 7.06602 3.98788 7.38312 4.34366L13.2302 10.9796C13.3926 11.1653 17.0355 15.218 18.4199 16.8963C20.0286 15.0865 23.6328 10.9796 23.6328 10.9796L29.4798 4.34366C29.797 3.98788 30.3384 3.95694 30.6941 4.26631C31.0499 4.58341 31.0808 5.12482 30.7715 5.48059L24.9244 12.1166C24.9244 12.1166 20.7015 16.935 19.348 18.4432C19.1237 18.6675 18.8143 18.7912 18.3967 18.7912Z" fill="#7F6644"/>
<path d="M18.4044 28.9213C17.9326 28.9213 17.5459 28.5346 17.5459 28.0628V18.5265C17.5459 18.0547 17.9326 17.668 18.4044 17.668C18.8762 17.668 19.2629 18.0547 19.2629 18.5265V28.0628C19.2629 28.5346 18.8762 28.9213 18.4044 28.9213Z" fill="#7F6644"/>
<path d="M24.9933 29.0022H11.9611C11.4893 29.0022 11.1025 28.6155 11.1025 28.1437C11.1025 27.6719 11.4893 27.2852 11.9611 27.2852H24.9933C25.465 27.2852 25.8517 27.6719 25.8517 28.1437C25.8517 28.6155 25.4728 29.0022 24.9933 29.0022Z" fill="#7F6644"/>
<path d="M29.6497 10.5767C26.7339 10.5767 24.3672 8.20228 24.3672 5.29421C24.3672 2.3784 26.7416 0.0117188 29.6497 0.0117188C32.5655 0.0117188 34.9399 2.38613 34.9399 5.29421C34.9399 8.20228 32.5655 10.5767 29.6497 10.5767ZM29.6497 1.72099C27.6852 1.72099 26.0842 3.32197 26.0842 5.29421C26.0842 7.2587 27.6852 8.8597 29.6497 8.8597C31.6142 8.8597 33.2229 7.2587 33.2229 5.29421C33.2229 3.32197 31.6219 1.72099 29.6497 1.72099Z" fill="#7F6644"/>
<path d="M25.2641 10.0178H10.9171C10.4453 10.0178 10.0586 9.63106 10.0586 9.15927C10.0586 8.68748 10.4453 8.30078 10.9171 8.30078H25.2641C25.7359 8.30078 26.1226 8.68748 26.1226 9.15927C26.1226 9.63106 25.7359 10.0178 25.2641 10.0178Z" fill="#7F6644"/>
<path d="M25.2646 5.68185H7.10461C6.63282 5.68185 6.24609 5.29513 6.24609 4.82334C6.24609 4.35156 6.63282 3.96484 7.10461 3.96484H25.2646C25.7364 3.96484 26.1231 4.35156 26.1231 4.82334C26.1231 5.29513 25.7364 5.68185 25.2646 5.68185Z" fill="#7F6644"/>
<path d="M16.8189 12.3482C16.8189 12.3482 9.74206 4.68356 7.12789 1.82962C5.42635 3.07484 1.42774 6.19947 1.38907 6.23041C1.01783 6.52431 0.476431 6.4547 0.18253 6.08346C-0.111371 5.71221 -0.0417607 5.17082 0.329483 4.87692C0.515105 4.72997 4.93137 1.2805 6.43181 0.213171C6.85719 -0.0884642 7.70022 -0.0961965 8.11787 0.360124C10.4536 2.91242 18.0873 11.1803 18.0873 11.1803L16.8189 12.3482Z" fill="#7F6644"/>
</svg>
