<svg width="38" height="31" viewBox="0 0 38 31" fill="none" xmlns="http://www.w3.org/2000/svg">
<path d="M3.15721 30.7948C2.62892 30.7948 2.13207 30.5871 1.76101 30.2157C0.993726 29.4477 0.993726 28.1949 1.76101 27.4206L4.69805 24.5311C5.00622 24.2289 5.50937 24.2289 5.81125 24.5374C6.11313 24.8459 6.11313 25.3432 5.80496 25.6517L2.87419 28.5412C2.72325 28.6922 2.72325 28.9503 2.88048 29.1077C2.98111 29.2084 3.10059 29.2273 3.16349 29.2273C3.22638 29.2273 3.34588 29.2147 3.44651 29.1077L8.20114 24.3485C8.50931 24.0401 9.00615 24.0401 9.31432 24.3485C9.62249 24.657 9.62249 25.1543 9.31432 25.4628L4.55969 30.222C4.17605 30.5871 3.6855 30.7948 3.15721 30.7948Z" fill="#7F6644"/>
<path d="M28.1749 30.7974C27.6466 30.7974 27.1498 30.5896 26.7787 30.2182L22.0241 25.459C21.7159 25.1505 21.7159 24.6532 22.0241 24.3447C22.3323 24.0363 22.8291 24.0363 23.1373 24.3447L27.8919 29.1039C27.9925 29.2047 28.112 29.2236 28.1749 29.2236C28.2378 29.2236 28.3573 29.211 28.4579 29.1039C28.6152 28.9466 28.6152 28.6948 28.4579 28.5374L25.3259 25.3331C25.024 25.0246 25.0303 24.5273 25.3385 24.2188C25.6467 23.9167 26.1435 23.923 26.4517 24.2314L29.5774 27.4294C30.3384 28.1912 30.3384 29.4502 29.5711 30.2182C29.2001 30.5896 28.7032 30.7974 28.1749 30.7974Z" fill="#7F6644"/>
<path d="M25.314 25.5374H2.566C1.15093 25.5374 0 24.3854 0 22.9689C0 21.5525 1.15093 20.4005 2.566 20.4005H24.4901L33.7164 13.7464C34.1566 13.4317 34.6723 13.2617 35.2132 13.2617C36.0371 13.2617 36.8169 13.6583 37.3012 14.3319C37.7037 14.8859 37.8609 15.5658 37.754 16.2457C37.6408 16.9255 37.2761 17.5173 36.7226 17.9202L26.8234 25.059C26.3706 25.3737 25.8549 25.5374 25.314 25.5374ZM2.55971 21.9743C2.01255 21.9743 1.56602 22.4213 1.56602 22.9689C1.56602 23.5166 2.01255 23.9636 2.55971 23.9636H25.3077C25.5153 23.9636 25.7165 23.9006 25.8926 23.7747L35.7918 16.6423C36.0056 16.4849 36.1503 16.2582 36.1943 15.9938C36.2383 15.7294 36.1754 15.465 36.0182 15.251C35.71 14.8229 35.0622 14.7159 34.6283 15.0244L24.987 21.9743H2.55971Z" fill="#7F6644"/>
<path d="M4.72313 13.5473L4.62879 12.7667C4.2766 9.7576 5.23884 6.77995 7.352 4.38147C9.44002 2.00817 12.4022 0.484729 15.6978 0.0944246C16.2386 0.0314723 16.7858 0 17.3267 0C23.553 0 28.7416 4.23038 29.4082 9.84573L29.5026 10.6263L4.72313 13.5473ZM17.3267 1.56751C16.8487 1.56751 16.3581 1.59899 15.8802 1.65565C12.9745 2.00189 10.3645 3.33646 8.52808 5.42018C6.90547 7.27098 6.06901 9.50579 6.1319 11.7973L27.7164 9.24769C26.7793 4.82215 22.4587 1.56751 17.3267 1.56751Z" fill="#7F6644"/>
<path d="M10.8944 11.8398C10.4668 11.8398 10.1209 11.4999 10.1083 11.0718C9.9322 3.79447 13.2655 1.18194 13.4101 1.07492C13.756 0.810523 14.2466 0.879765 14.5107 1.226C14.7686 1.57224 14.7057 2.06328 14.3598 2.32139C14.3095 2.35916 11.5234 4.64433 11.6806 11.0277C11.6932 11.4621 11.3473 11.8209 10.9133 11.8335C10.907 11.8398 10.9007 11.8398 10.8944 11.8398Z" fill="#7F6644"/>
<path d="M18.3333 21.949C17.9434 21.949 17.6038 21.6594 17.5535 21.2628L14.956 1.40768C14.8994 0.979609 15.2013 0.583014 15.6353 0.526357C16.0567 0.4697 16.4592 0.771862 16.5158 1.20623L19.1132 21.0614C19.1698 21.4895 18.8679 21.886 18.434 21.9427C18.4025 21.949 18.3711 21.949 18.3333 21.949Z" fill="#7F6644"/>
<path d="M22.6908 10.8106C22.3072 10.8106 21.9738 10.5336 21.9172 10.1433C20.9487 3.81032 17.7852 2.06025 17.7538 2.04136C17.3702 1.83991 17.2255 1.36148 17.4205 0.983767C17.6217 0.599757 18.0871 0.448666 18.4708 0.643819C18.628 0.725657 22.3701 2.70865 23.4707 9.9041C23.5336 10.3322 23.2443 10.7351 22.8103 10.798C22.7726 10.8106 22.7286 10.8106 22.6908 10.8106Z" fill="#7F6644"/>
</svg>
