<svg width="22" height="21" viewBox="0 0 22 21" fill="none" xmlns="http://www.w3.org/2000/svg">
<path fill-rule="evenodd" clip-rule="evenodd" d="M8.08584 3.07692C8.08584 3.89498 7.38071 4.65385 6.39058 4.65385C5.40045 4.65385 4.69531 3.89498 4.69531 3.07692C4.69531 2.25887 5.40045 1.5 6.39058 1.5C7.38071 1.5 8.08584 2.25887 8.08584 3.07692ZM9.50916 3.75C9.19039 5.12561 7.91518 6.15385 6.39058 6.15385C4.89498 6.15385 3.63937 5.16436 3.29122 3.82812H0V2.32812H3.29059C3.63787 0.990672 4.89408 0 6.39058 0C7.85779 0 9.09402 0.952273 9.46913 2.25H21.5V3.75H9.50916Z" fill="white"/>
<path fill-rule="evenodd" clip-rule="evenodd" d="M13.4142 10.0769C13.4142 9.25889 14.1193 8.50002 15.1094 8.50002C16.0996 8.50002 16.8047 9.25889 16.8047 10.0769C16.8047 10.895 16.0996 11.6539 15.1094 11.6539C14.1193 11.6539 13.4142 10.895 13.4142 10.0769ZM11.9908 9.40387C12.3096 8.02826 13.5848 7.00002 15.1094 7.00002C16.605 7.00002 17.8606 7.98951 18.2088 9.32574H21.5V10.8257H18.2094C17.8621 12.1632 16.6059 13.1539 15.1094 13.1539C13.6422 13.1539 12.406 12.2016 12.0309 10.9039L0 10.9039V9.40387L11.9908 9.40387Z" fill="white"/>
<path fill-rule="evenodd" clip-rule="evenodd" d="M8.08584 17.0769C8.08584 17.895 7.38071 18.6538 6.39058 18.6538C5.40045 18.6538 4.69531 17.895 4.69531 17.0769C4.69531 16.2589 5.40045 15.5 6.39058 15.5C7.38071 15.5 8.08584 16.2589 8.08584 17.0769ZM9.50916 17.75C9.19039 19.1256 7.91518 20.1538 6.39058 20.1538C4.89498 20.1538 3.63937 19.1644 3.29122 17.8281H0V16.3281H3.29059C3.63787 14.9907 4.89408 14 6.39058 14C7.85779 14 9.09402 14.9523 9.46913 16.25H21.5V17.75H9.50916Z" fill="white"/>
</svg>
