<svg width="38" height="33" viewBox="0 0 38 33" fill="none" xmlns="http://www.w3.org/2000/svg">
<path d="M25.9429 23.9038C25.468 23.9038 25.0787 23.5145 25.0787 23.0395V4.40703C25.0787 2.92764 23.8718 1.72855 22.4002 1.72855C20.9208 1.72855 19.7217 2.93542 19.7217 4.40703V6.97648C19.7217 7.45144 19.3324 7.84076 18.8574 7.84076C18.3825 7.84076 17.9932 7.45144 17.9932 6.97648V4.40703C17.9932 1.97771 19.9709 0 22.4002 0C24.8295 0 26.8072 1.97771 26.8072 4.40703V23.0395C26.8072 23.5145 26.4179 23.9038 25.9429 23.9038Z" fill="white"/>
<path d="M12.7388 23.9038C12.2639 23.9038 11.8746 23.5145 11.8746 23.0395V4.40703C11.8746 2.92764 10.6677 1.72855 9.19608 1.72855C7.72447 1.72855 6.51761 2.93542 6.51761 4.40703V6.97648C6.51761 7.45144 6.1283 7.84076 5.65334 7.84076C5.17838 7.84076 4.78906 7.45144 4.78906 6.97648V4.40703C4.78906 1.97771 6.76676 0 9.19608 0C11.6254 0 13.6031 1.97771 13.6031 4.40703V23.0395C13.6031 23.5145 13.2138 23.9038 12.7388 23.9038Z" fill="white"/>
<path d="M25.2744 12.295H12.8008C12.3258 12.295 11.9365 11.9056 11.9365 11.4307C11.9365 10.9557 12.3258 10.5664 12.8008 10.5664H25.2744C25.7494 10.5664 26.1387 10.9557 26.1387 11.4307C26.1387 11.9134 25.7494 12.295 25.2744 12.295Z" fill="white"/>
<path d="M25.2744 19.2168H12.8008C12.3258 19.2168 11.9365 18.8275 11.9365 18.3526C11.9365 17.8776 12.3258 17.4883 12.8008 17.4883H25.2744C25.7494 17.4883 26.1387 17.8776 26.1387 18.3526C26.1387 18.8275 25.7494 19.2168 25.2744 19.2168Z" fill="white"/>
<path d="M30.4521 26.5909C28.6456 26.5909 27.6879 25.7578 26.9249 25.0804C26.2319 24.473 25.6869 23.9981 24.5345 23.9981C23.3821 23.9981 22.8371 24.473 22.1441 25.0804C21.3733 25.75 20.4234 26.5909 18.6169 26.5909C16.8105 26.5909 15.8528 25.7578 15.0898 25.0804C14.3968 24.473 13.8518 23.9981 12.6994 23.9981C11.547 23.9981 11.002 24.473 10.309 25.0804C9.53817 25.75 8.58825 26.5909 6.78184 26.5909C4.97543 26.5909 4.0255 25.7578 3.25466 25.0804C2.56169 24.473 2.01664 23.9981 0.864275 23.9981C0.389313 23.9981 0 23.6088 0 23.1338C0 22.6588 0.389313 22.2695 0.864275 22.2695C2.67069 22.2695 3.62061 23.1027 4.39145 23.7801C5.08443 24.3874 5.62947 24.8623 6.78184 24.8623C7.9342 24.8623 8.47924 24.3874 9.17221 23.7801C9.94305 23.1104 10.893 22.2695 12.6994 22.2695C14.5058 22.2695 15.4635 23.1027 16.2266 23.7801C16.9196 24.3874 17.4646 24.8623 18.6169 24.8623C19.7693 24.8623 20.3144 24.3874 21.0073 23.7801C21.7782 23.1104 22.7281 22.2695 24.5345 22.2695C26.3409 22.2695 27.2986 23.1027 28.0617 23.7801C28.7547 24.3874 29.2997 24.8623 30.4521 24.8623C31.6044 24.8623 32.1495 24.3874 32.8424 23.7801C33.6133 23.1104 34.571 22.2695 36.3696 22.2695C36.8446 22.2695 37.2339 22.6588 37.2339 23.1338C37.2339 23.6088 36.8446 23.9981 36.3696 23.9981C35.2173 23.9981 34.6722 24.473 33.9792 25.0804C33.2162 25.7578 32.2585 26.5909 30.4521 26.5909Z" fill="white"/>
<path d="M30.5383 32.6769C28.7864 32.6769 27.8598 31.836 27.1201 31.1585C26.4427 30.5356 25.9522 30.0918 24.8699 30.0918C23.7876 30.0918 23.2971 30.5434 22.6197 31.1585C21.88 31.836 20.9534 32.6769 19.2015 32.6769C17.4496 32.6769 16.5308 31.836 15.7834 31.1585C15.106 30.5356 14.6154 30.0918 13.5331 30.0918C12.4508 30.0918 11.9603 30.5434 11.2829 31.1585C10.5432 31.836 9.61664 32.6769 7.86473 32.6769C6.11282 32.6769 5.19404 31.836 4.45435 31.1585C3.77694 30.5356 3.28641 30.0918 2.20412 30.0918C1.72916 30.0918 1.33984 29.7025 1.33984 29.2276C1.33984 28.7526 1.72916 28.3633 2.20412 28.3633C3.95603 28.3633 4.87481 29.2042 5.6145 29.8816C6.29191 30.5045 6.78244 30.9483 7.86473 30.9483C8.94702 30.9483 9.43756 30.4967 10.115 29.8816C10.8547 29.2042 11.7812 28.3633 13.5253 28.3633C15.2773 28.3633 16.196 29.2042 16.9435 29.8816C17.6209 30.5045 18.1115 30.9483 19.1937 30.9483C20.276 30.9483 20.7666 30.4967 21.444 29.8816C22.1837 29.2042 23.1102 28.3633 24.8543 28.3633C26.6063 28.3633 27.5328 29.2042 28.2725 29.8816C28.9499 30.5045 29.4405 30.9483 30.5227 30.9483C31.605 30.9483 32.0956 30.4967 32.773 29.8816C33.5127 29.2042 34.4392 28.3633 36.1912 28.3633C36.6661 28.3633 37.0554 28.7526 37.0554 29.2276C37.0554 29.7025 36.6661 30.0918 36.1912 30.0918C35.1089 30.0918 34.6183 30.5434 33.9409 31.1585C33.2168 31.836 32.2902 32.6769 30.5383 32.6769Z" fill="white"/>
</svg>
