<svg width="40" height="39" viewBox="0 0 40 39" fill="none" xmlns="http://www.w3.org/2000/svg">
<path d="M39.2037 31.3153L39.2833 31.3617C39.3629 31.4148 39.4558 31.448 39.5487 31.4413C39.7014 31.4413 39.8407 31.3683 39.927 31.2423C40.0597 31.0365 40.0066 30.7645 39.8075 30.6185L27.7831 22.3368V15.5481H30.2583C30.6963 15.5415 31.0812 15.2628 31.2139 14.8514C31.3798 14.4067 31.2471 13.9024 30.8821 13.5972L20.9281 5.50124V4.57883H25.0424C25.2946 4.57883 25.5003 4.37312 25.5003 4.12095C25.5003 4.02804 25.4738 3.94178 25.4207 3.86214L24.3855 2.28942L25.434 0.716679C25.5733 0.510963 25.5202 0.225621 25.3145 0.0796287C25.2349 0.0265407 25.1353 0 25.0358 0H20.4636C20.2114 0 20.0057 0.205707 20.0057 0.457875V5.79322L10.1911 13.564C9.81947 13.8692 9.68011 14.3736 9.84601 14.8182C9.97209 15.2429 10.3636 15.5349 10.8082 15.5415H13.1574V22.4761L3.34273 32.4434H3.13701C1.49792 32.3505 0.09109 33.6113 0.00482199 35.2504C-0.088082 36.8895 1.17275 38.2963 2.81185 38.3826C2.92466 38.3892 3.03083 38.3892 3.14365 38.3826H5.39325V38.449C6.28911 38.4556 7.15843 38.1039 7.79549 37.4735L13.164 32.0917V37.9844C13.164 38.2366 13.3697 38.4423 13.6219 38.4423H15.2875C15.5397 38.4423 15.9113 38.2366 15.9113 37.9844V29.7027H25.0424V37.9114C25.0424 38.1636 25.4074 38.4423 25.6596 38.4423H27.3252C27.5907 38.4025 27.7831 38.1769 27.7831 37.9114V29.8155L38.9979 37.5398C39.0709 37.5929 39.1638 37.6195 39.2568 37.6195C39.5089 37.6195 39.7146 37.4137 39.7146 37.1616C39.7146 37.0156 39.6416 36.8762 39.5222 36.79L39.2103 36.5511C39.2169 36.5179 39.2169 36.4781 39.2103 36.4383V31.3153H39.2037ZM36.0051 34.401L34.6049 33.4388C34.6248 33.3923 34.6381 33.3392 34.6381 33.2862V28.1698L36.0117 29.1187C36.0117 29.1387 36.0117 29.1586 36.0117 29.1785V34.401H36.0051ZM31.4395 31.2489L30.0659 30.3V25.0177L31.4395 25.9666V31.2489ZM32.3487 26.5971L33.7223 27.546V32.8349L32.3487 31.886V26.5971ZM23.4564 2.55485L24.1997 3.66971H20.9215V0.929035H24.1997L23.4564 2.04388C23.3569 2.19651 23.3569 2.39559 23.4564 2.55485ZM10.8149 14.6324C10.7618 14.6324 10.7352 14.5726 10.722 14.5395C10.6888 14.4532 10.7087 14.3603 10.775 14.3006L20.6693 6.45682L30.3048 14.3006C30.3711 14.3603 30.3911 14.4598 30.3579 14.5395C30.3579 14.5793 30.3181 14.6324 30.265 14.6324H27.7831V13.2587C27.7831 13.0066 27.5774 12.8008 27.3252 12.8008H25.6596C25.4074 12.8008 25.0424 13.0066 25.0424 13.2587V13.8294C23.6688 12.5885 22.2155 11.8851 20.4702 11.8851C18.725 11.8851 17.2717 12.5818 15.898 13.8228V13.3317C15.898 13.0795 15.5264 12.7942 15.2742 12.7942H13.6152C13.3498 12.8274 13.1507 13.0596 13.1574 13.3317V14.6257H10.8149V14.6324ZM15.9047 15.1301C15.9047 15.1301 15.8582 15.1035 15.8781 15.0836C16.9664 13.6569 18.652 12.8141 20.4503 12.8008C22.2487 12.8008 24.1532 13.6635 25.0623 15.1632V21.9452H15.9047V15.1301ZM7.13852 36.79C6.674 37.2412 6.04358 37.4934 5.39325 37.4801H3.15692C2.02217 37.5531 1.04004 36.6971 0.960407 35.5623C0.887411 34.4275 1.74345 33.4454 2.87821 33.3658C2.97111 33.3592 3.06402 33.3592 3.15029 33.3658H3.54181C3.66126 33.3658 3.78071 33.2065 3.86698 33.1203L13.1574 23.7701V30.8043L7.13852 36.79ZM14.9889 37.5332H14.0731V13.7166H14.9889V37.5332ZM15.9047 28.8002V22.861H25.0424V28.8002H15.9047ZM26.8673 37.5332H25.9516V13.7166H26.8673V37.5332ZM27.7831 23.4317L29.1568 24.3939V29.6828L27.7831 28.7206V23.4317ZM36.9209 35.0314V29.7425L38.2945 30.6915V35.9737L36.9209 35.0314Z" fill="#7F6644"/>
<path d="M20.6764 11.5384C21.559 11.5384 22.2757 10.8217 22.2757 9.93912C22.2757 9.05653 21.559 8.33984 20.6764 8.33984C19.7938 8.33984 19.0771 9.05653 19.0771 9.93912C19.0771 10.8217 19.7938 11.5384 20.6764 11.5384ZM20.6764 9.25561C21.0547 9.25561 21.3599 9.56087 21.3599 9.93912C21.3599 10.3174 21.0547 10.6226 20.6764 10.6226C20.2982 10.6226 19.9929 10.3174 19.9929 9.93912C19.9929 9.56087 20.2982 9.25561 20.6764 9.25561Z" fill="#7F6644"/>
<path d="M20.675 23.5234C19.3147 23.5234 18.2197 24.625 18.2197 25.9788C18.2197 27.3325 19.3213 28.4341 20.675 28.4341C22.0288 28.4341 23.1304 27.3325 23.1304 25.9788C23.137 24.625 22.0354 23.5234 20.675 23.5234ZM20.675 27.5249C19.819 27.5249 19.1289 26.8348 19.1289 25.9788C19.1289 25.1227 19.819 24.4326 20.675 24.4326C21.5311 24.4326 22.2212 25.1227 22.2212 25.9788C22.2212 25.9788 22.2212 25.9788 22.2212 25.9854C22.2212 26.8348 21.5245 27.5249 20.675 27.5249Z" fill="#7F6644"/>
<path d="M15 14.0078L17.5 9.50781L11 14.5078L15 14.0078Z" fill="white"/>
<path d="M25.6923 14.0078L23 9.50781L30 14.5078L25.6923 14.0078Z" fill="white"/>
<path d="M14 13.5078H15V37.5078H14V13.5078Z" fill="white"/>
<path d="M26 13.5078H27V37.5078H26V13.5078Z" fill="white"/>
</svg>
