<svg width="35" height="26" viewBox="0 0 35 26" fill="none" xmlns="http://www.w3.org/2000/svg">
<path d="M7.53408 25.6001C5.72364 25.6001 4.25391 24.1304 4.25391 22.3199V3.28018C4.25391 1.46974 5.72364 0 7.53408 0C9.34453 0 10.8143 1.46974 10.8143 3.28018V22.3199C10.8143 24.1237 9.34453 25.6001 7.53408 25.6001ZM7.53408 1.47641C6.54535 1.47641 5.737 2.28476 5.737 3.27349V22.3132C5.737 23.302 6.54535 24.1103 7.53408 24.1103C8.52281 24.1103 9.33117 23.302 9.33117 22.3132V3.27349C9.33117 2.28476 8.52281 1.47641 7.53408 1.47641Z" fill="#7F6644"/>
<path d="M2.80585 20.9679C1.26263 20.9679 0 19.7119 0 18.162V8.32149C0 6.77827 1.25595 5.51562 2.80585 5.51562C4.34908 5.51562 5.61171 6.77159 5.61171 8.32149V18.162C5.61171 19.7119 4.35576 20.9679 2.80585 20.9679ZM2.80585 7.00541C2.07767 7.00541 1.4831 7.59997 1.4831 8.32816V18.1687C1.4831 18.8969 2.07767 19.4915 2.80585 19.4915C3.53404 19.4915 4.12862 18.8969 4.12862 18.1687V8.32816C4.12862 7.59997 3.53404 7.00541 2.80585 7.00541Z" fill="#7F6644"/>
<path d="M23.5283 15.444H10.0736C9.66606 15.444 9.33203 15.11 9.33203 14.7025C9.33203 14.295 9.66606 13.9609 10.0736 13.9609H23.5283C23.9358 13.9609 24.2699 14.295 24.2699 14.7025C24.2699 15.11 23.9425 15.444 23.5283 15.444Z" fill="#7F6644"/>
<path d="M23.5283 11.3737H10.0736C9.66606 11.3737 9.33203 11.0397 9.33203 10.6322C9.33203 10.2247 9.66606 9.89062 10.0736 9.89062H23.5283C23.9358 9.89062 24.2699 10.2247 24.2699 10.6322C24.2699 11.0397 23.9425 11.3737 23.5283 11.3737Z" fill="#7F6644"/>
<path d="M26.5761 25.6001C24.7656 25.6001 23.2959 24.1304 23.2959 22.3199V3.28018C23.2959 1.46974 24.7656 0 26.5761 0C28.3865 0 29.8563 1.46974 29.8563 3.28018V22.3199C29.8563 24.1237 28.3865 25.6001 26.5761 25.6001ZM26.5761 1.47641C25.5873 1.47641 24.779 2.28476 24.779 3.27349V22.3132C24.779 23.302 25.5873 24.1103 26.5761 24.1103C27.5648 24.1103 28.3732 23.302 28.3732 22.3132V3.27349C28.3732 2.28476 27.5715 1.47641 26.5761 1.47641Z" fill="#7F6644"/>
<path d="M31.3059 20.5851C29.7626 20.5851 28.5 19.3291 28.5 17.7792V7.93868C28.5 6.39546 29.756 5.13281 31.3059 5.13281C32.8491 5.13281 34.1117 6.38878 34.1117 7.93868V17.7792C34.1117 19.3291 32.8491 20.5851 31.3059 20.5851ZM31.3059 6.6226C30.5777 6.6226 29.9831 7.21718 29.9831 7.94536V17.7859C29.9831 18.5141 30.5777 19.1087 31.3059 19.1087C32.034 19.1087 32.6286 18.5141 32.6286 17.7859V7.94536C32.6286 7.21718 32.034 6.6226 31.3059 6.6226Z" fill="#7F6644"/>
</svg>
