<svg width="23" height="20" viewBox="0 0 23 20" fill="none" xmlns="http://www.w3.org/2000/svg">
<path fill-rule="evenodd" clip-rule="evenodd" d="M22.529 3.82812H0.960938V2.32812H22.529V3.82812Z" fill="white"/>
<path fill-rule="evenodd" clip-rule="evenodd" d="M22.529 10.75H0.960938V9.25H22.529V10.75Z" fill="white"/>
<path fill-rule="evenodd" clip-rule="evenodd" d="M22.529 17.6719H0.960938V16.1719H22.529V17.6719Z" fill="white"/>
<path d="M10.5468 3.07692C10.5468 4.77626 9.11621 6.15385 7.35152 6.15385C5.58682 6.15385 4.15625 4.77626 4.15625 3.07692C4.15625 1.37759 5.58682 0 7.35152 0C9.11621 0 10.5468 1.37759 10.5468 3.07692Z" fill="#9891C5"/>
<path fill-rule="evenodd" clip-rule="evenodd" d="M7.35152 4.65385C8.34165 4.65385 9.04678 3.89498 9.04678 3.07692C9.04678 2.25887 8.34165 1.5 7.35152 1.5C6.36139 1.5 5.65625 2.25887 5.65625 3.07692C5.65625 3.89498 6.36139 4.65385 7.35152 4.65385ZM7.35152 6.15385C9.11621 6.15385 10.5468 4.77626 10.5468 3.07692C10.5468 1.37759 9.11621 0 7.35152 0C5.58682 0 4.15625 1.37759 4.15625 3.07692C4.15625 4.77626 5.58682 6.15385 7.35152 6.15385Z" fill="white"/>
<path d="M20.1347 9.9988C20.1347 11.6981 18.7041 13.0757 16.9394 13.0757C15.1747 13.0757 13.7441 11.6981 13.7441 9.9988C13.7441 8.29946 15.1747 6.92188 16.9394 6.92188C18.7041 6.92188 20.1347 8.29946 20.1347 9.9988Z" fill="#9891C5"/>
<path fill-rule="evenodd" clip-rule="evenodd" d="M16.9394 11.5757C17.9295 11.5757 18.6347 10.8169 18.6347 9.9988C18.6347 9.18074 17.9295 8.42188 16.9394 8.42188C15.9493 8.42188 15.2441 9.18074 15.2441 9.9988C15.2441 10.8169 15.9493 11.5757 16.9394 11.5757ZM16.9394 13.0757C18.7041 13.0757 20.1347 11.6981 20.1347 9.9988C20.1347 8.29946 18.7041 6.92188 16.9394 6.92188C15.1747 6.92188 13.7441 8.29946 13.7441 9.9988C13.7441 11.6981 15.1747 13.0757 16.9394 13.0757Z" fill="white"/>
<path d="M10.5468 16.9246C10.5468 18.6239 9.11621 20.0015 7.35152 20.0015C5.58682 20.0015 4.15625 18.6239 4.15625 16.9246C4.15625 15.2252 5.58682 13.8477 7.35152 13.8477C9.11621 13.8477 10.5468 15.2252 10.5468 16.9246Z" fill="#9891C5"/>
<path fill-rule="evenodd" clip-rule="evenodd" d="M7.35152 18.5015C8.34165 18.5015 9.04678 17.7426 9.04678 16.9246C9.04678 16.1065 8.34165 15.3477 7.35152 15.3477C6.36139 15.3477 5.65625 16.1065 5.65625 16.9246C5.65625 17.7426 6.36139 18.5015 7.35152 18.5015ZM7.35152 20.0015C9.11621 20.0015 10.5468 18.6239 10.5468 16.9246C10.5468 15.2252 9.11621 13.8477 7.35152 13.8477C5.58682 13.8477 4.15625 15.2252 4.15625 16.9246C4.15625 18.6239 5.58682 20.0015 7.35152 20.0015Z" fill="white"/>
</svg>
