<svg width="37" height="33" viewBox="0 0 37 33" fill="none" xmlns="http://www.w3.org/2000/svg">
<path d="M3.77461 29.2139C3.8262 29.2147 3.86918 29.2153 3.92076 29.2161C4.92659 29.2314 5.89519 28.8677 6.64512 28.1824C7.42997 27.4633 7.90052 26.4899 7.95114 25.4241C8.01349 24.1521 7.47236 22.9827 6.58994 22.2037L11.1454 14.9879C11.53 15.14 11.9413 15.2322 12.3709 15.256C12.4225 15.2568 12.4655 15.2574 12.5171 15.2582C13.5229 15.2735 14.4915 14.9098 15.2414 14.2245C15.4071 14.0722 15.5558 13.9111 15.6873 13.7411L19.8908 16.093C19.8901 16.136 19.881 16.1703 19.8804 16.2132C19.7695 18.4135 21.4606 20.2971 23.6429 20.4163C23.6945 20.4171 23.746 20.4179 23.789 20.4186C24.7948 20.4339 25.7549 20.07 26.5134 19.3849C27.2982 18.6657 27.7688 17.6924 27.8194 16.6266C27.8679 15.6984 27.5887 14.834 27.1007 14.1299L30.2914 7.88238C30.5398 7.94637 30.7971 7.98469 31.0721 7.99748C31.1237 7.99826 31.1753 7.99905 31.2183 7.99971C32.2241 8.01502 33.1841 7.65119 33.9426 6.96604C34.7275 6.24689 35.198 5.27351 35.2486 4.20773C35.3595 2.00751 33.6684 0.123888 31.4861 0.00464297C30.4292 -0.0458565 29.4004 0.316929 28.6157 1.02748C27.8309 1.74664 27.3604 2.72001 27.3097 3.7858C27.2474 5.05783 27.7802 6.2099 28.6625 6.99745L25.6668 12.8609C25.1805 12.6126 24.6412 12.4496 24.0655 12.4236C23.0086 12.3731 21.9798 12.7359 21.1951 13.4465C20.9161 13.7003 20.6796 13.9805 20.4943 14.2959L16.487 12.0502C16.5242 11.8615 16.553 11.6641 16.5648 11.4579C16.6757 9.25766 14.9846 7.37404 12.8023 7.25479C11.7455 7.1957 10.7166 7.56709 9.93187 8.27764C9.14703 8.99679 8.67648 9.97016 8.62586 11.0359C8.56612 12.136 8.96347 13.1484 9.6397 13.9156L4.96091 21.3274C4.72111 21.2636 4.46372 21.2252 4.20595 21.2127C3.14046 21.1621 2.12027 21.525 1.33556 22.2355C0.550715 22.9547 0.0801603 23.9281 0.0295438 24.9939C-0.0989192 27.2196 1.58359 29.1031 3.77461 29.2139ZM29.8588 2.40541C30.2599 2.04166 30.7701 1.8516 31.3031 1.85972C31.3289 1.86011 31.3547 1.8605 31.3805 1.8609C32.549 1.9217 33.4537 2.93322 33.3928 4.11066C33.3668 4.68655 33.1181 5.20743 32.6908 5.59658C32.2723 5.97726 31.7362 6.17553 31.1606 6.14096C30.834 6.12739 30.5346 6.02822 30.2615 5.88644C29.5622 5.50594 29.1095 4.74213 29.1483 3.8912C29.1914 3.31558 29.4403 2.78609 29.8588 2.40541ZM22.4296 14.8243C22.8306 14.4605 23.3409 14.2705 23.8739 14.2786C23.8997 14.279 23.9255 14.2794 23.9513 14.2798C25.1198 14.3406 26.0244 15.3521 25.9635 16.5295C25.9376 17.1054 25.6889 17.6263 25.2616 18.0154C24.8431 18.3961 24.3069 18.5944 23.7313 18.5598C22.5628 18.499 21.6581 17.4875 21.719 16.3101C21.7622 15.7344 22.0109 15.2135 22.4296 14.8243ZM11.1575 9.6725C11.5586 9.30875 12.0688 9.11869 12.6018 9.12681C12.6276 9.1272 12.6534 9.12759 12.6792 9.12799C13.8477 9.18879 14.7524 10.2003 14.6915 11.3778C14.6655 11.9536 14.4168 12.4745 13.9895 12.8637C13.571 13.2444 13.0262 13.4425 12.4592 13.4081C11.2907 13.3473 10.386 12.3357 10.447 11.1583C10.4901 10.5827 10.7389 10.0532 11.1575 9.6725ZM2.56117 23.6304C2.96225 23.2667 3.47247 23.0766 4.01408 23.0849C4.03987 23.0852 4.06565 23.0856 4.09144 23.086C5.25996 23.1468 6.16465 24.1584 6.10373 25.3358C6.07777 25.9117 5.82908 26.4326 5.40181 26.8217C4.98328 27.2024 4.43853 27.4005 3.87153 27.3661C2.70301 27.3053 1.79832 26.2938 1.85924 25.1163C1.8938 24.5406 2.14263 24.0111 2.56117 23.6304Z" fill="#7F6644"/>
<path d="M13.1598 16.5324C13.1512 16.5322 13.1512 16.5322 13.1426 16.5321C12.6267 16.5329 12.2162 16.9481 12.2169 17.4641C12.2154 17.5673 12.2042 27.9058 12.2042 27.9058L14.0615 27.9083C14.0615 27.9083 14.0727 17.5698 14.0743 17.4666C14.0734 16.9591 13.667 16.5401 13.1598 16.5324Z" fill="#7F6644"/>
<path d="M23.2053 21.4848C23.1967 21.4847 23.1967 21.4847 23.1881 21.4846C22.6721 21.4853 22.2617 21.9005 22.2624 22.4166L22.2562 27.9127L24.1135 27.9152L24.1199 22.4105C24.119 21.903 23.7125 21.4925 23.2053 21.4848Z" fill="#7F6644"/>
<path d="M31.9007 8.92183C31.3848 8.92257 30.9743 9.33778 30.9751 9.85387C30.9735 9.95706 30.9581 27.9162 30.9581 27.9162L32.8155 27.9187C32.8155 27.9187 32.831 9.95094 32.8324 9.85635C32.8231 9.34013 32.408 8.92955 31.9007 8.92183Z" fill="#7F6644"/>
<path d="M36.0769 31.1422C34.7099 31.13 2.68256 30.9089 0.821973 31.1214C0.313711 31.1825 -0.0544315 31.6413 0.00662153 32.1497C0.0596012 32.6236 0.449959 32.965 0.914189 32.9721C0.957173 32.9727 0.99156 32.9732 1.03468 32.9653C2.49029 32.8068 26.8145 32.9364 36.0659 32.9999C36.5817 33.0077 37.0007 32.5927 37 32.0766C36.9991 31.5691 36.5928 31.15 36.0769 31.1422Z" fill="#7F6644"/>
</svg>
