<svg width="29" height="36" viewBox="0 0 29 36" fill="none" xmlns="http://www.w3.org/2000/svg">
<path d="M28.8023 33.3042C24.9299 28.7488 21.2201 27.8901 18.5376 28.1365L19.8086 22.812C19.9712 22.125 19.55 21.4305 18.8701 21.2587L15.7959 20.5119L19.3652 5.05376L19.6091 5.1135C19.8899 5.18071 20.1781 5.21805 20.459 5.21805C21.6414 5.21805 22.5873 4.59823 22.809 3.67223L23.0676 2.59687C23.1415 2.2683 23.0529 1.92478 22.8164 1.66341C22.6538 1.48418 22.4395 1.35724 22.1956 1.2975L17.0152 0.035452C16.4018 -0.113902 15.7885 0.222141 15.6555 0.789688L15.3968 1.86504C15.116 3.03747 16.0841 4.24725 17.599 4.62063L17.769 4.66544L14.1996 20.1236L11.0958 19.3694C10.4159 19.2051 9.72867 19.6308 9.5587 20.3178L7.77771 27.778C7.67425 28.2037 7.64469 28.6368 7.66686 29.07C3.24764 29.63 0.335974 32.9233 0.202954 33.0726C-0.0926466 33.4162 -0.063082 33.9389 0.276858 34.2451C0.616798 34.5438 1.1341 34.5139 1.43709 34.1704C1.46665 34.1331 4.60002 30.6158 8.98968 30.6382C12.0418 30.6606 15.0273 32.3632 17.8725 35.7088C18.035 35.9029 18.2641 36 18.4932 36C18.6854 36 18.8701 35.9328 19.0253 35.7984C19.3726 35.4997 19.4096 34.9769 19.114 34.6259C18.3824 33.7671 17.636 33.0054 16.8822 32.3408C17.4364 31.7658 17.8281 31.0564 18.0203 30.2722L18.1163 29.8541C21.3532 29.3164 24.5308 30.8323 27.546 34.3795C27.7085 34.5737 27.9376 34.6707 28.1667 34.6707C28.3589 34.6707 28.5436 34.6035 28.6988 34.4691C29.0609 34.1779 29.0979 33.6477 28.8023 33.3042ZM16.993 2.26083L17.1113 1.7829L21.3236 2.80597L21.2054 3.2839C21.1832 3.38098 20.9097 3.55274 20.459 3.55274C20.3038 3.55274 20.1486 3.53035 19.9934 3.49301L17.9833 3.0076C17.296 2.84331 16.9561 2.41018 16.993 2.26083ZM9.30744 28.9953C9.29266 28.719 9.30744 28.4427 9.37395 28.1664L11.0663 21.0646L13.8227 21.7366L13.4015 23.5737C13.298 24.0218 13.5715 24.4698 14.0149 24.5744C14.0814 24.5893 14.1405 24.5968 14.1996 24.5968C14.5765 24.5968 14.9091 24.3354 14.9977 23.9546L15.419 22.1324L18.1163 22.7896L16.424 29.8914C16.291 30.444 15.9954 30.9294 15.5816 31.3103C13.5641 29.8466 11.4653 29.0774 9.30744 28.9953Z" fill="#7F6644"/>
</svg>
