<svg width="51" height="51" viewBox="0 0 51 51" fill="none" xmlns="http://www.w3.org/2000/svg">
<path fill-rule="evenodd" clip-rule="evenodd" d="M25.4577 50.7787C39.3839 50.7787 50.6732 39.4893 50.6732 25.5632C50.6732 11.637 39.3839 0.347656 25.4577 0.347656C11.5316 0.347656 0.242188 11.637 0.242188 25.5632C0.242188 39.4893 11.5316 50.7787 25.4577 50.7787ZM19.3535 36.2059V38.8128H30.7866V36.2432L29.1108 35.908C28.6142 35.8087 28.3039 35.6225 28.1797 35.3494C28.0804 35.0763 28.0308 34.6791 28.0308 34.1577V19.8197L27.4721 19.5218L19.6142 19.9315L19.3535 22.7246L20.8059 22.948C21.377 23.0473 21.737 23.2459 21.8859 23.5439C22.0349 23.8418 22.1094 24.4253 22.1094 25.2942V34.0832C22.1094 34.7535 22.0473 35.2128 21.9232 35.4611C21.799 35.6846 21.5135 35.8335 21.0666 35.908L19.3535 36.2059ZM21.8859 15.537C22.5314 16.0832 23.4128 16.3563 24.5301 16.3563C25.6473 16.3563 26.5287 16.0708 27.1742 15.4997C27.8446 14.9287 28.1797 14.159 28.1797 13.1908C28.1797 12.2225 27.8694 11.4653 27.2487 10.9191C26.628 10.348 25.7218 10.0625 24.5301 10.0625C23.388 10.0625 22.4942 10.348 21.8487 10.9191C21.228 11.4901 20.9177 12.2473 20.9177 13.1908C20.9177 14.1839 21.2404 14.9659 21.8859 15.537Z" fill="#292930"/>
</svg>
