<svg width="52" height="51" viewBox="0 0 52 51" fill="none" xmlns="http://www.w3.org/2000/svg">
<path d="M22.1562 35.0002V33.5302L23.8663 33.2602C24.2663 33.2002 24.5163 33.0702 24.6163 32.8702C24.7363 32.6702 24.7963 32.2902 24.7963 31.7302V23.5402C24.7963 22.8202 24.7263 22.3402 24.5863 22.1002C24.4662 21.8602 24.1762 21.7102 23.7163 21.6502L22.2763 21.4402L22.4862 19.9402L27.2263 19.7002L27.5863 19.8502V31.8502C27.5863 32.2302 27.6363 32.5402 27.7363 32.7802C27.8363 33.0202 28.1062 33.1802 28.5463 33.2602L30.2263 33.5602V35.0002H22.1562ZM25.7563 16.4002C25.1763 16.4002 24.6963 16.2202 24.3163 15.8602C23.9363 15.4802 23.7463 15.0002 23.7463 14.4202C23.7463 13.8402 23.9363 13.3602 24.3163 12.9802C24.6963 12.6002 25.1763 12.4102 25.7563 12.4102C26.3563 12.4102 26.8463 12.6002 27.2263 12.9802C27.6063 13.3402 27.7963 13.8102 27.7963 14.3902C27.7963 14.9702 27.6063 15.4502 27.2263 15.8302C26.8463 16.2102 26.3563 16.4002 25.7563 16.4002Z" fill="white"/>
<path fill-rule="evenodd" clip-rule="evenodd" d="M26.457 48.5C39.1596 48.5 49.457 38.2025 49.457 25.5C49.457 12.7975 39.1596 2.5 26.457 2.5C13.7545 2.5 3.45703 12.7975 3.45703 25.5C3.45703 38.2025 13.7545 48.5 26.457 48.5ZM26.457 51C40.5403 51 51.957 39.5833 51.957 25.5C51.957 11.4167 40.5403 0 26.457 0C12.3738 0 0.957031 11.4167 0.957031 25.5C0.957031 39.5833 12.3738 51 26.457 51Z" fill="white"/>
</svg>
