<svg width="19" height="22" viewBox="0 0 19 22" fill="none" xmlns="http://www.w3.org/2000/svg">
<path d="M17.5628 15.5635L16.9013 14.8915C15.71 13.6885 14.1471 12.3727 12.6337 12.7566C12.3512 12.8283 12.084 12.9615 11.8398 13.1435L11.1123 13.7098C11.0494 13.7585 10.9789 13.82 10.916 13.8687C10.7298 14.025 10.5259 14.1967 10.2838 14.2582C9.68849 14.4092 8.79487 13.7961 7.76742 12.5189C6.76783 11.2673 6.62357 10.5186 6.66994 10.1033C6.72881 9.65204 7.06862 9.38039 7.44126 9.11133C7.49667 9.07546 7.54199 9.04214 7.58731 9.00883L8.32746 8.45019C10.2483 6.99207 8.65121 3.99425 8.12734 3.01464L7.67972 2.16838C7.29331 1.4811 6.29651 -0.360165 4.63174 0.0622327C4.31897 0.141592 4.01406 0.295308 3.70691 0.52594C3.49793 0.677129 0.741161 2.74 0.182786 5.27035C-0.479772 8.28524 0.659843 11.8136 3.58608 15.7503C6.49214 19.6922 9.51737 21.7932 12.5605 21.9918C13.0833 22.0228 13.6487 21.9666 14.2439 21.8155C16.1912 21.3215 17.8979 19.994 18.0313 19.8838C18.6254 19.4277 18.949 18.8766 18.9971 18.2536C19.0537 17.1921 18.2623 16.2586 17.5628 15.5635ZM17.4237 18.1401C17.4167 18.2837 17.2961 18.4452 17.0695 18.6118C17.0695 18.6118 17.0595 18.6143 17.062 18.6246C17.0444 18.6399 15.5013 19.8495 13.8467 20.2693C13.4128 20.3794 13.0065 20.428 12.6453 20.3996C10.082 20.232 7.45398 18.3465 4.82714 14.7919C2.19021 11.2399 1.14068 8.15768 1.70658 5.61451C2.14589 3.63791 4.60064 1.82618 4.61826 1.81081C4.62835 1.80825 4.62835 1.80825 4.63587 1.79543C4.77183 1.69549 4.90282 1.61863 5.01381 1.59047C5.34676 1.50599 5.78022 1.95227 6.30153 2.92163L6.74658 3.75763C7.69773 5.54504 7.92455 6.75273 7.38585 7.173L6.65578 7.72908C6.62808 7.74702 6.59285 7.77777 6.55506 7.79827C6.14462 8.08783 5.28595 8.68745 5.13144 9.87191C4.98907 10.9333 5.44811 12.1257 6.56688 13.5106C8.06113 15.3675 9.40721 16.1167 10.6785 15.7941C11.2738 15.6431 11.689 15.2869 11.9356 15.0716C11.9784 15.028 12.0237 14.9947 12.069 14.9614L12.7965 14.395C12.8695 14.3438 12.9451 14.3028 13.0359 14.2798C13.4294 14.1799 14.2357 14.4007 15.8249 15.9935L16.4864 16.6655C17.2849 17.4991 17.4356 17.9299 17.4237 18.1401Z" fill="#D0AF83"/>
</svg>
