<svg width="133" height="109" viewBox="0 0 133 109" fill="none" xmlns="http://www.w3.org/2000/svg">
<path fill-rule="evenodd" clip-rule="evenodd" d="M38.8305 1.20767C39.2873 0.890439 39.8988 0.913168 40.3308 1.26343L57.4803 15.1684C57.7889 15.4187 57.9602 15.8008 57.9416 16.1977C57.9231 16.5946 57.717 16.959 57.3864 17.1795C50.1172 22.0256 43.5816 28.5524 37.7875 36.7854C32.747 44.067 29.6836 51.0265 28.528 57.6703L29.1013 57.5557C30.6795 57.24 32.0078 57.0679 33.0545 57.0679C39.8735 57.0679 45.6099 59.5173 50.1761 64.4018C54.7534 68.9871 57.016 74.8751 57.016 81.9564C57.016 89.3888 54.4166 95.734 49.2339 100.917C49.2244 100.926 49.2147 100.936 49.2049 100.945C44.0284 105.798 37.8515 108.235 30.737 108.235C22.3348 108.235 15.2035 104.985 9.41389 98.5516C9.40929 98.5465 9.40474 98.5414 9.40023 98.5362C9.39812 98.5338 9.39602 98.5313 9.39393 98.5289C3.5906 91.7583 0.75 82.7913 0.75 71.7594C0.75 57.9447 4.20618 44.7603 11.1017 32.223L11.1068 32.2138L11.1068 32.2138C18.2996 19.3919 27.5398 9.04843 38.8305 1.20767ZM112.991 1.20767C113.447 0.890439 114.059 0.913168 114.491 1.26343L131.64 15.1684C131.949 15.4187 132.12 15.8008 132.102 16.1977C132.083 16.5946 131.877 16.9591 131.546 17.1795C124.277 22.0255 117.742 28.5524 111.948 36.7853C106.884 44.0997 103.816 51.0892 102.673 57.7601C102.981 57.7025 103.331 57.6344 103.725 57.5557C105.264 57.2478 106.458 57.0679 107.215 57.0679C114.033 57.0679 119.77 59.5173 124.336 64.4018C128.913 68.9871 131.176 74.8751 131.176 81.9564C131.176 89.3888 128.577 95.734 123.394 100.917C123.384 100.926 123.375 100.936 123.365 100.945C118.188 105.798 112.011 108.235 104.897 108.235C96.4948 108.235 89.3635 104.985 83.5739 98.5516C83.5671 98.5441 83.5605 98.5365 83.5539 98.5289C77.7506 91.7583 74.91 82.7913 74.91 71.7594C74.91 57.9447 78.3662 44.7603 85.2617 32.223L85.2668 32.2138C92.4596 19.3919 101.7 9.04843 112.991 1.20767ZM113.65 3.79993C103.04 11.3417 94.306 21.2118 87.4497 33.4326C80.751 45.6138 77.41 58.3838 77.41 71.7594C77.41 82.351 80.1281 90.6844 85.4424 96.8906C90.7748 102.81 97.2361 105.735 104.897 105.735C111.372 105.735 116.932 103.543 121.64 99.1347C126.336 94.4322 128.676 88.7311 128.676 81.9564C128.676 75.4495 126.618 70.2188 122.553 66.1543C122.543 66.1441 122.533 66.1338 122.523 66.1233C118.44 61.7482 113.366 59.5679 107.215 59.5679C106.735 59.5679 105.766 59.697 104.215 60.0071L103.97 58.7814L104.215 60.0071C103.437 60.1628 102.804 60.2816 102.322 60.362C101.876 60.4362 101.465 60.4949 101.189 60.4949C100.83 60.4949 100.489 60.3409 100.252 60.0721C100.015 59.8034 99.9042 59.4456 99.9487 59.0898C100.907 51.422 104.252 43.5089 109.895 35.3584L109.9 35.3505C115.479 27.4225 121.765 20.9838 128.765 16.0553L113.65 3.79993ZM13.2898 33.4323C20.1461 21.2116 28.8803 11.3417 39.4896 3.79993L54.6046 16.0553C47.6052 20.9838 41.3192 27.4225 35.7402 35.3505L35.7402 35.3505L35.7348 35.3584C30.0921 43.5089 26.7471 51.422 25.7887 59.0898C25.7388 59.4885 25.8837 59.8869 26.178 60.1605C26.4723 60.434 26.8801 60.5494 27.2741 60.4706L29.5917 60.0071L29.3465 58.7814L29.5917 60.0071C31.1035 59.7047 32.2472 59.5679 33.0545 59.5679C39.2062 59.5679 44.2798 61.7482 48.3632 66.1233C48.373 66.1338 48.383 66.1441 48.3931 66.1543C52.4576 70.2188 54.516 75.4495 54.516 81.9564C54.516 88.7311 52.1761 94.4322 47.4804 99.1347C42.772 103.543 37.2118 105.735 30.737 105.735C23.0761 105.735 16.6147 102.81 11.2823 96.8905C5.96808 90.6843 3.25 82.351 3.25 71.7594C3.25 58.3837 6.59099 45.6136 13.2898 33.4323Z" fill="#9891C5"/>
</svg>
