<svg width="30" height="30" viewBox="0 0 30 30" fill="none" xmlns="http://www.w3.org/2000/svg">
<path fill-rule="evenodd" clip-rule="evenodd" d="M9.375 0H20.625C25.8019 0 30 4.19812 30 9.375V20.625C30 25.8019 25.8019 30 20.625 30H9.375C4.19812 30 0 25.8019 0 20.625V9.375C0 4.19812 4.19812 0 9.375 0ZM20.6225 27.1901C24.2412 27.1901 27.185 24.2464 27.185 20.6278V9.37795C27.185 5.75926 24.2412 2.81556 20.6225 2.81556H9.37253C5.75378 2.81556 2.81004 5.75926 2.81004 9.37795V20.6278C2.81004 24.2464 5.75378 27.1901 9.37253 27.1901H20.6225Z" fill="#666565"/>
<path fill-rule="evenodd" clip-rule="evenodd" d="M7.49818 15.0033C7.49818 10.8613 10.8563 7.50309 14.9982 7.50309C19.1402 7.50309 22.4983 10.8613 22.4983 15.0033C22.4983 19.1453 19.1402 22.5036 14.9982 22.5036C10.8563 22.5036 7.49818 19.1453 7.49818 15.0033ZM10.3082 15.0062C10.3082 17.5899 12.412 19.6937 14.9957 19.6937C17.5795 19.6937 19.6832 17.5899 19.6832 15.0062C19.6832 12.4205 17.5795 10.3187 14.9957 10.3187C12.412 10.3187 10.3082 12.4205 10.3082 15.0062Z" fill="#666565"/>
<path d="M24.058 6.93475C24.058 7.48661 23.6106 7.93399 23.0587 7.93399C22.5068 7.93399 22.0594 7.48661 22.0594 6.93475C22.0594 6.38288 22.5068 5.93551 23.0587 5.93551C23.6106 5.93551 24.058 6.38288 24.058 6.93475Z" fill="#666565"/>
</svg>
