<svg width="26" height="25" viewBox="0 0 26 25" fill="none" xmlns="http://www.w3.org/2000/svg">
<path d="M5.709 7.8V24.002H0.314V7.8H5.709ZM6.052 2.798C6.053 2.827 6.054 2.861 6.054 2.896C6.054 3.645 5.736 4.319 5.228 4.791L5.226 4.792C4.681 5.29 3.952 5.595 3.151 5.595C3.102 5.595 3.052 5.594 3.003 5.592H3.01H2.977C2.936 5.594 2.888 5.595 2.84 5.595C2.056 5.595 1.344 5.289 0.815 4.791L0.816 4.792C0.312 4.304 0 3.622 0 2.867C0 2.843 -1.16415e-10 2.819 0.001 2.794V2.798C-1.16415e-10 2.777 0 2.753 0 2.729C0 1.967 0.324 1.281 0.841 0.8L0.843 0.799C1.387 0.304 2.114 0 2.911 0C2.957 0 3.002 0.001 3.048 0.003H3.042C3.085 0.001 3.134 0 3.185 0C3.97 0 4.685 0.303 5.219 0.798L5.217 0.796C5.732 1.293 6.052 1.989 6.052 2.76V2.802V2.798ZM25.114 14.718V24.002H19.736V15.337C19.741 15.258 19.743 15.166 19.743 15.074C19.743 14.178 19.494 13.341 19.061 12.627L19.073 12.648C18.646 12.052 17.956 11.669 17.177 11.669C17.117 11.669 17.057 11.671 16.997 11.676H17.005C16.978 11.675 16.947 11.674 16.916 11.674C16.296 11.674 15.726 11.887 15.275 12.244L15.281 12.24C14.828 12.607 14.473 13.076 14.249 13.615L14.241 13.638C14.125 13.993 14.059 14.401 14.059 14.825C14.059 14.873 14.06 14.921 14.062 14.969V14.962V24.004H8.684C8.706 19.6553 8.717 16.1293 8.717 13.426C8.717 10.7227 8.71167 9.10967 8.701 8.587L8.685 7.802H14.063V10.156H14.03C14.244 9.811 14.465 9.512 14.708 9.232L14.7 9.241C14.981 8.932 15.283 8.653 15.608 8.403L15.624 8.391C16.028 8.08 16.502 7.836 17.016 7.687L17.046 7.68C17.584 7.519 18.203 7.426 18.843 7.426H18.922H18.918C18.989 7.423 19.072 7.421 19.155 7.421C20.836 7.421 22.35 8.135 23.411 9.277L23.414 9.281C24.5487 10.5183 25.116 12.3303 25.116 14.717L25.114 14.718Z" fill="#666565"/>
</svg>
