<svg width="129" height="311" viewBox="0 0 129 311" fill="none" xmlns="http://www.w3.org/2000/svg">
<path d="M-7.24189 0.747952C-7.3721 0.748676 -7.56741 0.749761 -7.69761 0.750485L-7.62455 2.18236C0.967425 1.8742 7.97383 9.12687 11.7226 15.9419C13.6301 19.4469 15.1484 23.2145 16.6009 26.8522C18.252 31.0748 20.0343 35.4919 22.4 39.4501C28.1171 48.9886 37.1391 55.7743 45.8992 62.3011C53.2868 67.859 60.8705 73.5459 66.445 80.8717C76.4135 93.9672 79.0462 110.814 81.6108 127.141C83.8388 141.452 86.1995 156.217 93.3657 168.807C97.2447 175.622 102.421 181.648 107.466 187.414C111.136 191.625 114.936 196.031 118.152 200.635C121.565 205.564 132.207 222.823 124.282 237.71C119.772 246.199 109.778 251.984 96.8318 253.618C90.8465 254.368 84.6614 254.337 78.6714 254.24C73.5931 254.203 68.3846 254.167 63.2437 254.586C31.8785 257.234 2.96869 279.986 -7.02184 309.794L-5.65217 310.242C4.21105 280.956 32.5371 258.598 63.3819 256.018C68.4576 255.599 73.6661 255.635 78.6793 255.672C84.7341 255.704 90.9846 255.799 97.0351 255.049C110.437 253.347 120.885 247.3 125.588 238.419C131.194 227.907 128.9 213.466 119.384 199.847C116.103 195.178 112.303 190.772 108.568 186.496C103.588 180.73 98.4122 174.834 94.5991 168.149C87.5644 155.819 85.2696 141.183 83.0424 127.003C80.4115 110.481 77.7778 93.4388 67.5474 80.0843C61.8419 72.6291 54.1274 66.8126 46.7398 61.2548C38.1102 54.7924 29.1536 48.0714 23.6333 38.7922C21.3331 34.8988 19.6166 30.6115 17.9004 26.3893C16.4475 22.6864 14.9289 18.8538 12.9559 15.284C9.14022 8.14383 1.80724 0.697664 -7.24189 0.747952Z" fill="#B4AEDD"/>
<path d="M-6.81218 31.2141L-7.58653 32.4553C-3.99362 34.6489 -1.95305 38.674 -0.0433938 42.5696C0.351921 43.4138 0.812336 44.2575 1.27275 45.1013C7.39161 56.6558 17.5977 65.6485 27.4118 74.3829C40.039 85.5757 51.9465 96.1214 56.1988 111.527C58.1254 118.483 58.2314 125.839 58.2712 133C58.2994 138.078 58.3938 143.351 59.0734 148.49C60.0225 155.256 62.0786 162.08 64.1333 168.644C68.2449 182.163 72.1568 194.902 67.2771 207.168C61.4342 221.849 46.3654 228.183 30.3218 234.847C15.1878 241.181 -0.530938 247.714 -7.22155 262.139L-5.91627 262.718C0.58193 248.814 15.9756 242.349 30.9149 236.146C46.5035 229.614 62.5467 222.884 68.6471 207.681C73.7192 194.893 69.5425 181.374 65.563 168.181C63.5734 161.616 61.5176 154.857 60.5693 148.222C59.8904 143.212 59.796 137.939 59.7682 132.927C59.6629 125.701 59.6213 118.214 57.6288 111.129C53.2442 95.333 40.617 84.1402 28.4473 73.2704C18.6987 64.6007 8.62311 55.6724 2.57081 44.378C2.11039 43.5342 1.71545 42.7551 1.32013 41.911C-0.785549 37.8863 -2.89233 33.6662 -6.81218 31.2141Z" fill="#B4AEDD"/>
<path d="M-7.80561 75.0344L-8.58031 76.2105C1.35204 82.7959 11.6113 89.6399 19.6695 98.7096C28.5798 108.816 33.0711 120.38 32.3499 131.191C32.232 133.405 31.8537 135.621 31.475 137.771C30.9712 140.834 30.4678 143.962 30.5506 147.151C30.6327 150.211 31.2353 153.202 31.8371 156.063C32.3047 158.209 32.7073 160.355 32.9796 162.502C34.009 172.002 30.6129 181.786 23.9454 188.659C19.8671 192.848 14.676 195.937 9.61434 198.895C3.3201 202.641 -3.16871 206.518 -7.56233 212.532L-6.38581 213.372C-2.1864 207.554 3.91325 203.94 10.4024 200.127C15.5288 197.104 20.7847 193.95 24.9924 189.63C31.984 182.495 35.5078 172.254 34.4759 162.299C34.2683 160.086 33.7999 157.81 33.3323 155.664C32.7304 152.803 32.1282 149.877 32.0472 147.013C31.9651 143.953 32.4689 140.891 32.9731 137.893C33.3514 135.678 33.7297 133.462 33.8472 131.183C34.6313 119.98 29.9425 108.027 20.7704 97.6618C12.5817 88.5277 2.1922 81.6845 -7.80561 75.0344Z" fill="#B4AEDD"/>
</svg>
