<svg width="217" height="695" viewBox="0 0 217 695" fill="none" xmlns="http://www.w3.org/2000/svg">
<path d="M244.402 1.95037L243.646 0.55206C228.635 9.74271 223.344 27.661 217.699 46.7233C214.035 59.0578 210.243 71.7515 203.643 81.7763C195.561 94.0092 183.201 102.072 171.252 109.817C158.039 118.449 144.329 127.356 136.395 142C130.36 153.112 128.145 166.725 126.004 179.845C123.275 196.749 120.636 212.69 110.66 224.053C105.373 230.084 98.2882 234.127 91.4358 238.077C83.4723 242.622 75.3025 247.326 69.7241 255.171C64.5956 262.452 62.0059 271.891 59.538 281.127C56.0268 294.018 52.7116 306.214 42.8325 312.213C37.8798 315.179 31.6155 316.195 25.6105 317.186C16.7484 318.614 7.60065 320.001 2.87397 328.126C-3.31357 338.682 2.38074 351.861 7.86357 364.507C9.80396 369.063 11.8818 373.797 13.3091 378.248C17.1203 390.244 16.6619 402.852 16.2723 415.123C15.9683 424.042 15.6218 433.364 16.9208 442.419C20.4271 466.731 35.1177 490.546 61.897 515.127C67.8262 520.573 74.0199 525.836 79.9598 530.969C95.1348 543.941 110.812 557.332 123.077 574.005C131.554 585.541 135.26 595.572 134.522 604.586C133.148 620.489 119.258 627.923 105.776 635.196C101.506 637.505 97.0608 639.884 93.1239 642.525C91.0391 643.891 88.9753 645.481 87.8319 647.864C85.2117 653.147 88.1777 660.461 92.388 664.118C96.0957 667.357 100.947 669.062 107.65 669.493C132.509 671.218 153.654 657.281 174.095 643.778C191.981 631.982 210.511 619.776 231.621 617.816C251.895 615.956 272.558 623.744 292.57 631.249C300.706 634.277 309.122 637.502 317.364 639.947C327.452 642.972 337.858 645.1 347.894 647.143C358.898 649.42 370.245 651.714 381.265 655.22C398.616 660.769 422.145 672.052 435.625 694.34L436.799 693.566C423.077 670.834 399.183 659.31 381.545 653.719C370.442 650.17 359.067 647.809 348.006 645.555C337.97 643.512 327.622 641.361 317.619 638.379C309.377 635.934 300.987 632.776 292.909 629.726C272.812 622.177 251.98 614.302 231.389 616.211C209.962 618.219 191.314 630.471 173.254 642.336C152.962 655.703 131.965 669.504 107.534 667.841C101.175 667.428 96.5511 665.787 93.1501 662.813C89.3841 659.597 86.7618 653.15 89.0433 648.541C90.0914 646.428 92.007 644.974 93.859 643.7C97.7641 641.149 102.124 638.727 106.421 636.484C120.194 629.096 134.465 621.434 135.866 604.748C136.678 595.242 132.84 584.877 124.087 572.987C111.77 556.181 95.9817 542.679 80.722 529.663C74.7239 524.554 68.5884 519.267 62.6856 513.889C36.2131 489.572 21.6811 466.157 18.2753 442.268C17.0291 433.346 17.2856 424.138 17.616 415.285C18.0373 402.924 18.4747 390.093 14.5577 377.83C13.0776 373.246 11.0579 368.489 9.03293 363.889C3.47079 351.043 -1.76873 338.841 4.02182 328.983C8.44149 321.443 16.9279 320.087 25.8481 318.635C31.996 317.665 38.3449 316.693 43.504 313.568C53.8223 307.318 57.3388 294.27 60.7811 281.715C63.2437 272.635 65.7433 263.309 70.7501 256.231C76.1486 248.612 84.2285 244.021 92.0491 239.455C98.9597 235.481 106.161 231.393 111.596 225.225C121.868 213.591 124.656 196.664 127.279 180.343C129.388 167.313 131.598 153.857 137.511 142.947C145.292 128.595 158.827 119.758 171.95 111.238C183.988 103.381 196.466 95.2716 204.728 82.813C211.476 72.6523 215.273 59.8022 218.969 47.3779C224.577 28.5619 229.83 10.8898 244.402 1.95037Z" fill="#B4AEDD"/>
<path d="M260.766 42.391C253.406 45.2306 247.24 51.7644 242.36 61.8796C239.983 66.7577 238.109 72.0541 236.271 77.1042C234.969 80.7847 233.608 84.4883 232.137 88.0816C225.106 104.837 213.997 119.119 200.911 128.241C196.943 130.971 192.694 133.504 188.535 135.924C178.047 142.087 167.237 148.455 160.023 159.649C152.867 170.82 150.398 185.151 148.034 198.9C145.427 213.902 142.772 229.464 133.955 240.522C128.017 247.969 119.667 252.899 111.582 257.646C101.417 263.604 90.8981 269.857 85.3187 281.098C82.0845 287.551 80.7279 295.343 79.4085 302.889C77.3155 314.601 75.3604 325.641 67.0632 331.553C61.9145 335.214 55.1688 336.035 48.5978 336.787C40.2967 337.761 31.7098 338.695 26.6766 345.706C19.5687 355.469 24.0725 369.043 28.3913 382.15C29.8503 386.511 31.2776 390.962 32.2816 395.195C34.5434 404.641 34.382 414.429 34.2313 423.905C34.0859 433.224 33.9298 442.856 36.0488 452.282C40.461 471.912 54.1637 490.176 77.9557 508.069C82.4623 511.454 87.2282 514.813 91.7983 518.019C105.731 527.856 120.113 537.979 131.241 551.783C145.536 569.504 154.094 597.216 142.746 615.991C137.543 624.613 129.008 629.925 120.796 635.032C118.742 636.309 116.631 637.608 114.604 638.952C112.461 640.341 110.281 641.977 109.302 644.604C108.418 646.961 108.724 649.772 110.241 652.412C112.219 655.873 115.805 658.466 119.234 658.959C125.064 659.736 130.196 656.544 134.99 653.178C140.314 649.448 145.674 645.471 150.855 641.72C165.93 630.652 181.509 619.153 198.52 611.099C216.934 602.335 244.769 594.237 272.812 605.352C278.334 607.563 283.804 610.489 289.046 613.351C295.473 616.824 302.096 620.451 308.994 622.734C321.114 626.807 333.631 626.786 345.746 626.769C353.211 626.744 360.962 626.76 368.48 627.717C402.068 631.925 434.736 656.412 451.614 690.165L452.841 689.524C435.72 655.327 402.634 630.466 368.501 626.242C360.841 625.264 353.116 625.315 345.625 625.274C333.626 625.244 321.193 625.309 309.301 621.3C302.546 619.038 295.95 615.477 289.607 612.048C284.307 609.209 278.811 606.216 273.203 603.962C244.738 592.629 216.527 600.799 197.907 609.721C180.806 617.888 165.142 629.343 150.035 640.501C144.881 644.319 139.552 648.206 134.229 651.936C129.641 655.143 124.741 658.243 119.34 657.528C116.34 657.096 113.204 654.789 111.495 651.838C110.279 649.619 110.01 647.41 110.709 645.435C111.561 643.168 113.535 641.691 115.53 640.437C117.557 639.094 119.668 637.794 121.721 636.517C130.081 631.275 138.733 625.917 144.089 617.002C155.776 597.552 147.018 568.994 132.363 550.876C121.124 536.961 106.631 526.728 92.6134 516.847C88.0433 513.641 83.362 510.326 78.8554 506.94C55.3702 489.312 41.8578 471.358 37.5724 452.218C35.5328 442.993 35.6571 433.451 35.7972 424.288C35.9532 414.656 36.0882 404.8 33.8053 395.132C32.7748 390.832 31.3212 386.314 29.8622 381.953C25.702 369.246 21.2986 356.095 27.9831 346.963C32.741 340.447 40.6665 339.544 49.0258 338.547C55.7133 337.749 62.6864 336.992 68.0997 333.149C76.8096 326.919 78.9079 315.051 80.9638 303.585C82.2779 296.195 83.6608 288.47 86.7734 282.219C92.141 271.294 102.099 265.495 112.56 259.265C120.762 254.472 129.202 249.429 135.23 241.869C144.259 230.496 146.977 214.754 149.589 199.595C151.921 185.937 154.327 171.785 161.387 160.883C168.421 149.915 179.142 143.66 189.455 137.566C193.614 135.146 197.863 132.613 201.89 129.86C215.182 120.579 226.439 106.161 233.565 89.1364C235.095 85.5201 236.429 81.7498 237.731 78.0692C239.51 73.0422 241.411 67.8125 243.73 62.9574C248.483 53.2013 254.384 46.8495 261.453 44.1253L260.766 42.391Z" fill="#B4AEDD"/>
<path d="M198.314 590.188C197.207 594.022 195.048 597.579 191.555 601.51C185.347 608.447 169.51 619.972 160.983 614.938C156.873 612.554 155.234 606.72 156.057 597.75L156.884 588.623C157.558 581.487 158.381 572.517 163.012 566.36C168.722 558.849 180.029 557.301 188.28 562.829C192.21 565.439 195.283 569.624 197.133 574.294C199.195 579.496 199.718 585.232 198.314 590.188ZM161.517 613.569C169.002 618.012 184.089 607.479 190.418 600.34C193.763 596.545 195.859 593.168 196.844 589.536C199.412 580.723 195.236 569.334 187.603 564.178C179.97 559.022 169.357 560.45 164.122 567.463C159.703 573.305 158.891 581.962 158.223 588.942L157.395 598.068C156.939 603.034 157.266 606.918 158.349 609.653C159.121 611.431 160.195 612.781 161.517 613.569Z" fill="#B4AEDD"/>
<path d="M271.925 73.7799C259.973 77.436 250.215 86.6286 245.032 98.8703C242.718 104.418 241.331 110.602 239.922 116.563C237.723 126.31 235.631 135.474 229.884 142.383C224.046 149.404 215.708 152.323 206.93 155.493C200.014 157.925 192.951 160.492 187.167 165.1C173.647 176.015 170.345 195.383 167.124 214.103C164.495 229.731 161.734 245.875 153.155 257.533C146.413 266.689 136.396 272.51 126.702 278.127C114.812 285 102.568 292.168 96.4911 305.381C93.7913 311.313 92.525 318.144 91.2958 324.728C89.7115 333.306 88.2279 341.457 83.7292 347.948C80.6489 352.41 76.2832 355.838 72.0393 359.064C66.9382 363.015 61.6624 367.035 58.497 373.152C53.7594 382.439 54.9042 394.334 56.4988 405.665C59.3238 425.538 62.9157 446.497 73.2643 464.623C87.542 489.606 112.012 504.452 131.648 514.576C137.064 517.369 142.571 520.049 147.993 522.685C164.825 530.833 182.25 539.286 197.304 551.612C199.816 553.704 202.381 555.929 204.836 558.043C212.78 565.006 221.031 572.232 230.681 575.509C239.536 578.483 248.578 577.678 257.302 576.922C262.915 576.472 268.703 575.954 274.401 576.397C287.082 577.469 299.455 583.371 311.373 589.144C319.789 593.218 328.491 597.333 337.331 599.927C348.816 603.248 360.656 603.727 372.121 604.277C380.289 604.668 388.717 605.033 396.996 606.382C428.595 611.688 465.553 637.484 474.986 676.581L476.372 676.34C466.791 636.53 429.246 610.273 397.076 604.884C388.77 603.468 380.284 603.126 372.057 602.759C360.678 602.252 348.954 601.727 337.612 598.427C328.883 595.943 320.24 591.805 311.85 587.797C299.789 582.003 287.305 575.991 274.365 574.945C268.582 574.458 262.71 574.933 257.064 575.472C248.457 576.182 239.531 576.941 230.93 574.098C221.561 571.019 213.479 563.88 205.619 556.961C203.138 554.78 200.573 552.555 198.061 550.463C182.838 538.05 165.328 529.553 148.385 521.295C143.048 518.702 137.456 515.978 132.124 513.229C112.658 503.192 88.4417 488.477 74.4073 463.939C64.1908 446.146 60.62 425.41 57.8479 405.67C56.2744 394.563 55.119 382.98 59.6713 374.076C62.6832 368.251 67.578 364.459 72.7955 360.462C77.0712 357.147 81.5797 353.739 84.7553 349.008C89.4075 342.225 90.9653 333.581 92.5706 325.226C93.7681 318.732 95.029 312.058 97.6653 306.305C103.589 293.384 115.156 286.716 127.342 279.572C137.152 273.909 147.259 267.974 154.181 258.593C162.94 246.709 165.738 230.319 168.43 214.511C171.7 195.232 174.821 176.939 187.928 166.342C193.538 161.803 200.57 159.325 207.369 156.94C215.94 153.929 224.776 150.736 230.852 143.466C236.779 136.331 239.035 126.562 241.197 117.061C242.547 111.123 243.903 105.029 246.212 99.6377C251.183 87.7115 260.729 78.8343 272.306 75.2499L271.925 73.7799Z" fill="#B4AEDD"/>
<path d="M280.559 95.9051C271.125 98.9491 268.54 109.93 266.051 120.641C264.875 125.66 263.604 130.949 261.703 135.33C256.044 148.069 243.535 154.57 231.408 160.842C218.111 167.733 204.316 174.897 199.974 190.279C198.279 196.199 198.288 202.678 198.334 208.912C198.327 213.314 198.316 217.872 197.738 222.191C195.14 241.126 182.27 253.173 168.66 265.899C159.081 274.866 149.117 284.217 143.024 296.202C140.652 300.924 138.783 306.064 137.063 311.068C134.834 317.508 132.483 324.151 128.905 329.736C124.66 336.358 118.744 341.481 113.034 346.445C107.679 351.115 102.117 355.943 97.8617 362.028C82.3172 384.319 88.0855 417.227 100.602 439.974C114.229 464.674 135.693 482.641 156.465 499.03C177.881 515.857 203.07 534.046 229.892 536.305C237.077 536.931 244.33 536.372 251.325 535.838C261.541 535.108 272.133 534.307 282.427 537.173C289.082 539.012 295.626 542.439 301.889 545.669C306.655 548.179 311.648 550.754 316.722 552.679C328.709 557.268 341.284 558.073 353.457 558.883C358.869 559.285 364.456 559.618 369.916 560.31C424.539 567.297 476.734 610.131 499.801 666.978L501.082 666.471C477.803 609.09 425.105 565.837 369.969 558.745C364.451 558.076 358.838 557.676 353.426 557.274C341.311 556.441 328.852 555.59 317.06 551.156C312.072 549.274 307.163 546.743 302.397 544.232C296.049 540.959 289.506 537.532 282.682 535.606C272.16 532.675 261.509 533.5 251.177 534.276C244.183 534.81 236.987 535.346 229.946 534.74C203.467 532.499 178.532 514.441 157.311 497.768C136.677 481.556 115.383 463.677 101.861 439.244C89.5299 416.963 83.9096 384.769 99.0624 363.019C103.169 357.069 108.699 352.331 113.996 347.685C119.823 342.674 125.829 337.439 130.137 330.637C133.779 324.872 136.161 318.139 138.449 311.676C140.196 306.739 142.007 301.622 144.346 296.99C150.317 285.208 160.192 275.969 169.739 267.092C182.905 254.774 196.574 242.025 199.219 222.53C199.829 218.121 199.814 213.496 199.852 209.005C199.859 202.905 199.819 196.515 201.476 190.841C205.713 176.042 218.602 169.313 232.307 162.261C244.667 155.896 257.382 149.237 263.227 136.115C265.217 131.622 266.488 126.333 267.669 121.157C270.191 110.356 272.574 100.227 281.31 97.4598L280.559 95.9051Z" fill="#B4AEDD"/>
<path d="M244.056 321.226C249.67 338.451 254.347 356.201 258.871 373.394C263.775 392.058 268.86 411.344 271.648 430.615C272.894 439.537 274.16 451.23 272.369 462.513C270.546 473.886 265.718 483.286 258.749 488.981C253.108 493.609 245.41 496.274 235.241 497.293C216.517 499.157 190.732 496.795 174.472 484.484C156.446 470.944 140.251 453.359 127.628 433.741C122.228 425.384 116.089 414.31 115.801 402.539C115.477 388.466 123.347 377.398 130.916 366.758C132.726 364.188 134.536 361.618 136.261 359.005C142.771 349.093 147.811 337.68 152.607 326.672C157.557 315.372 162.692 303.689 169.557 293.482C175.336 284.786 187.508 270.469 203.919 272.455C213.325 273.59 222.863 280.153 230.118 290.475C234.116 296.146 237.146 302.431 239.605 308.635C241.296 312.904 242.729 317.198 244.056 321.226ZM128.744 432.989C141.256 452.497 157.287 469.838 175.144 483.291C191.071 495.271 216.513 497.615 234.919 495.8C244.828 494.806 252.326 492.144 257.787 487.741C264.46 482.318 269.134 473.211 270.888 462.174C272.7 451.114 271.428 439.578 270.177 430.812C267.415 411.608 262.358 392.388 257.479 373.791C252.982 356.665 248.305 338.915 242.717 321.757C239.546 312.054 235.649 300.863 229.023 291.449C222.042 281.481 212.87 275.16 203.892 274.087C188.138 272.227 176.325 286.092 170.667 294.586C163.893 304.68 158.816 316.339 153.84 327.573C148.985 338.604 143.946 350.017 137.372 360.109C135.647 362.722 133.778 365.315 132.026 367.861C124.606 378.365 116.858 389.231 117.172 402.768C117.313 407.883 118.55 412.872 120.426 417.608C122.732 423.255 125.825 428.512 128.744 432.989Z" fill="#B4AEDD"/>
<path d="M294.291 124.268L293.27 123.052C276.044 140.76 260.384 160.55 246.739 181.857C237.493 196.249 228.552 213.453 232.272 232.354C234.422 243.388 240.636 253.12 246.691 262.452C247.616 263.937 248.573 265.333 249.499 266.818C274.687 306.926 289.022 354.654 289.813 401.343C289.943 407.62 289.783 414.012 289.66 420.158C289.429 430.283 289.215 440.787 290.037 451.189C291.63 471.011 297.053 487.076 306.092 499.007C314.665 510.274 327.407 518.808 343.949 524.524C352.831 527.564 362.063 529.617 370.982 531.562C376.082 532.706 381.382 533.847 386.562 535.19C416.525 542.996 445.873 557.916 471.473 578.334L472.204 577.118C446.466 556.523 416.949 541.517 386.758 533.646C381.579 532.302 376.278 531.161 371.12 530.041C362.259 528.073 353.112 526.064 344.256 523.09C327.968 517.505 315.48 509.102 307.097 498.146C298.249 486.525 292.958 470.793 291.413 451.261C290.559 440.949 290.8 430.512 291.03 420.387C291.153 414.241 291.287 407.782 291.215 401.482C290.434 354.48 276.025 306.396 250.674 266.044C249.748 264.559 248.849 263.14 247.865 261.677C241.921 252.456 235.819 242.834 233.743 232.157C230.176 213.813 238.99 196.968 247.998 182.824C261.553 161.631 277.123 141.954 294.291 124.268Z" fill="#B4AEDD"/>
<path d="M306.344 157.232L305.201 156.219C297.003 167.649 290.027 180.292 284.489 193.678C280.111 204.211 275.383 218.28 277.278 233.428C278.709 244.515 283.52 254.957 288.2 265.065L288.469 265.576C299.779 290.036 310.126 314.106 312.812 339.746C313.978 351.015 313.589 362.438 313.21 373.547C312.73 387.63 312.208 402.115 314.934 416.471C318.774 436.868 329.44 456.644 344.117 470.74C362.132 487.99 384.932 496.242 406.939 504.192C420.777 509.204 435.156 514.389 448.253 521.779L448.788 520.409C435.521 512.932 421.143 507.748 407.219 502.692C385.356 494.762 362.725 486.597 344.932 469.568C330.504 455.76 320.028 436.294 316.262 416.253C313.615 402.098 314.106 387.702 314.554 373.71C314.932 362.6 315.354 351.088 314.135 339.685C311.428 313.822 301.001 289.552 289.639 264.958L289.369 264.447C284.743 254.472 279.984 244.164 278.659 233.343C276.806 218.642 281.497 204.82 285.727 194.422C291.233 181.126 298.204 168.639 306.344 157.232Z" fill="#B4AEDD"/>
<path d="M435.329 481.519C419.58 475.257 403.266 468.756 388.318 459.244C371.486 448.549 358.977 435.677 351.014 420.85C340.946 402.072 338.576 380.629 337.486 362.075C337.191 357.252 337.044 352.293 336.834 347.514C336.23 332.395 335.615 316.74 332.345 301.519C330.463 292.695 327.688 283.993 325.019 275.557C322.455 267.389 319.701 258.91 317.894 250.442C315.31 238.654 312.56 216.59 323.066 201.467L321.923 200.453C311.084 216.094 313.903 238.671 316.508 250.682C318.341 259.217 321.122 267.763 323.712 275.998C326.381 284.433 329.13 293.069 330.985 301.827C334.203 316.914 334.849 332.479 335.427 347.532C335.637 352.311 335.842 357.246 336.079 362.092C337.085 379.754 339.528 402.402 349.839 421.624C357.908 436.718 370.639 449.81 387.666 460.659C402.7 470.215 419.098 476.76 434.931 483.065L435.329 481.519Z" fill="#B4AEDD"/>
</svg>
