<svg width="346" height="415" viewBox="0 0 346 415" fill="none" xmlns="http://www.w3.org/2000/svg">
<path d="M-25.3754 -38.4162C-25.3754 -38.4162 15.3517 11.4838 48.2322 4.318C81.1126 -2.84783 96.1209 11.3488 100.276 23.0916C104.432 34.8345 122.961 55.2775 121.098 66.8554C119.236 78.4334 116.238 84.6289 101.284 91.6789C86.3292 98.729 89.5657 109.44 76.6912 116.196C63.8168 122.951 60.4297 122.315 51.726 128.083C43.0224 133.851 25.3564 146.609 22.9339 159.274C20.5243 172.051 8.88577 187.53 -9.05794 196.399C-27.0516 205.33 -48.6924 200.984 -53.3105 240.153C-57.9285 279.322 -64.7461 323.686 -68.2949 333.525C-78.2072 361.479 -93.7712 373.144 -118.358 375.442C-144.8 378.008 -155.53 340.99 -166.763 330.794C-196.436 303.896 -237.736 342.539 -237.736 342.539" stroke="#B4AEDD" stroke-width="1.3" stroke-miterlimit="10"/>
<path d="M372.363 556.58C372.363 556.58 316.639 524.037 288.367 542.208C260.095 560.379 241.037 552.313 233.009 542.762C224.98 533.212 200.424 520.523 198.09 509.03C195.755 497.537 196.381 490.689 207.904 478.874C219.426 467.059 212.622 458.155 222.3 447.341C231.979 436.527 235.375 435.942 241.495 427.507C247.615 419.071 259.667 400.965 257.474 388.259C255.23 375.452 260.678 356.898 274.359 342.338C288.066 327.702 309.866 324.231 300.393 285.935C290.92 247.64 281.677 203.712 281.535 193.261C280.971 163.624 291.439 147.274 313.658 136.553C337.519 124.935 360.61 155.866 374.722 161.501C411.989 176.353 437.058 125.766 437.058 125.766" stroke="#B4AEDD" stroke-width="1.3" stroke-miterlimit="10"/>
<path d="M-31.2272 -25.3043C-31.2272 -25.3043 -24.515 3.13735 -2.57361 17.508C19.3677 31.8787 47.3938 30.6659 68.1617 49.7167C88.9295 68.7674 68.4163 81.1122 57.4388 88.9581C46.4613 96.8039 48.4055 107.208 27.008 114.369C5.61057 121.53 1.19709 117.943 -1.49899 131.207C-4.14515 144.409 2.64529 160.17 -13.7935 169.208C-30.2452 178.133 -52.483 175.048 -62.5146 194.549C-72.5461 214.05 -75.4769 228.25 -78.1933 259.644C-80.9097 291.038 -86.9162 331.048 -109.301 339.06C-131.685 347.073 -155.836 301.7 -177.853 300.522C-199.871 299.343 -222.453 311.583 -222.453 311.583" stroke="#B4AEDD" stroke-width="1.3" stroke-miterlimit="10"/>
<path d="M373.223 542.254C373.223 542.254 356.917 517.954 331.304 512.142C305.692 506.329 279.869 517.232 253.707 506.627C227.545 496.021 242.409 477.31 249.926 466.136C257.444 454.962 251.958 445.895 269.476 431.73C286.994 417.566 292.392 419.388 290.244 406.025C288.072 392.738 276.16 380.343 288.373 366.149C300.637 352.055 322.552 347.195 325.078 325.434C327.604 303.674 325.346 289.352 316.831 259.002C308.316 228.651 299.847 189.085 317.99 173.779C336.133 158.473 374.736 192.553 395.773 185.983C416.81 179.413 433.648 160.079 433.648 160.079" stroke="#B4AEDD" stroke-width="1.3" stroke-miterlimit="10"/>
<path d="M-38.9199 -18.625C-38.9199 -18.625 -26.2279 16.5777 -27.6385 35.0367C-29.0492 53.4958 10.8398 43.1994 26.1244 47.42C41.409 51.6406 62.4051 61.289 52.2692 72.9597C42.0705 84.5808 30.9863 97.4395 18.1633 101.177C5.34032 104.915 -9.53392 99.7955 -17.3583 116.146C-25.1827 132.496 -20.0336 151.854 -42.3478 161.961C-64.662 172.068 -78.9618 179.839 -82.6778 198.618C-86.331 217.447 -91.0929 278.624 -95.3363 293.827C-99.5297 308.967 -116.188 326.497 -132.257 313.501C-148.326 300.505 -164.17 274.13 -213.184 291.492" stroke="#B4AEDD" stroke-width="1.3" stroke-miterlimit="10"/>
<path d="M378.076 533.32C378.076 533.32 353.788 504.773 348.606 486.992C343.425 469.212 309.692 492.757 293.889 494.131C278.087 495.505 255.023 493.785 260.405 479.322C265.863 464.883 271.715 448.977 282.408 441.007C293.101 433.037 308.836 432.648 310.405 414.608C311.973 396.567 300.331 380.231 317.67 362.988C335.009 345.745 345.665 333.483 342.53 314.599C339.319 295.691 322.228 236.733 320.846 221.015C319.44 205.373 328.867 183.149 348.496 189.721C368.124 196.292 392.255 215.474 432.045 182.131" stroke="#B4AEDD" stroke-width="1.3" stroke-miterlimit="10"/>
<path d="M367.59 272.066C356.668 279.962 343.072 275.333 339.176 256.455C335.279 237.578 326.275 215.21 336.043 205.936C345.71 196.712 376.863 209.092 380.446 226.861C383.902 244.757 374.754 266.904 367.59 272.066Z" stroke="#B4AEDD" stroke-width="1.3" stroke-miterlimit="10"/>
<path d="M367.474 253.229C362.007 266.658 348.681 258.088 345.638 243.849C342.619 229.534 344.497 214.949 353.282 215.177C362.067 215.404 378.557 225.916 367.474 253.229Z" stroke="#B4AEDD" stroke-width="1.3" stroke-miterlimit="10"/>
<path d="M15.3436 63.3761C4.76625 60.8339 -10.8434 60.2305 -5.83903 74.3767C-0.834696 88.5228 13.7801 87.9329 23.5395 82.897C33.3618 77.9108 44.5073 68.0568 36.0262 62.8885C27.5452 57.7202 25.9209 65.9182 15.3436 63.3761Z" stroke="#B4AEDD" stroke-width="1.3" stroke-miterlimit="10"/>
<path d="M-45.7461 -12.9023C-45.7461 -12.9023 -36.6851 23.5107 -40.1965 36.6408C-43.7079 49.7709 -39.6621 55.6164 -28.5487 57.3586C-15.6789 59.4683 -25.0584 72.246 -17.5939 80.4853C-8.95901 89.9548 -18.2132 99.3654 -25.8109 109.269C-33.4085 119.172 -37.6306 143.464 -50.3778 147.364C-71.5146 153.813 -87.6135 159.858 -93.4956 186.101C-97.3061 203.073 -113.107 215.163 -131.924 218.449C-150.741 221.736 -156.866 239.938 -160.797 251.411C-167.717 271.636 -192.273 272.225 -207.956 271.971" stroke="#B4AEDD" stroke-width="1.3" stroke-miterlimit="10"/>
<path d="M382.453 525.57C382.453 525.57 361.139 494.624 359.802 481.102C358.466 467.581 352.617 463.516 341.595 465.757C328.797 468.266 333.081 453.03 323.187 447.914C311.764 442.055 317.116 430.015 320.744 418.092C324.371 406.169 319.768 381.945 330.333 373.85C347.858 360.443 360.807 349.171 357.071 322.542C354.661 305.318 365.201 288.487 381.667 278.852C398.134 269.216 397.458 250.033 397.099 237.917C396.455 216.563 419.247 207.453 434.025 202.225" stroke="#B4AEDD" stroke-width="1.3" stroke-miterlimit="10"/>
<path d="M-51.1797 -6.08594C-51.1797 -6.08594 -51.7817 37.6818 -53.3664 53.149C-54.9511 68.6162 -32.3543 73.8198 -32.2199 86.363C-32.0856 98.9061 -49.3618 108.608 -51.0116 120.048C-52.6614 131.488 -70.1471 135.418 -78.5753 141.097C-103.497 157.81 -105.551 182.082 -110.065 188.507C-123.931 208.446 -145.761 200.484 -155.102 213.598C-164.442 226.712 -198.75 247.736 -211.566 250.053" stroke="#B4AEDD" stroke-width="1.3" stroke-miterlimit="10"/>
<path d="M385.143 517.301C385.143 517.301 370.288 476.098 366.324 461.059C362.359 446.02 339.362 449.021 334.817 437.32C330.273 425.619 343.036 410.511 340.551 399.222C338.066 387.932 353.059 378.158 358.952 369.901C376.407 345.562 369.78 322.113 371.744 314.522C377.707 291.015 400.958 290.864 405.087 275.326C409.215 259.788 433.942 228.14 445.13 221.504" stroke="#B4AEDD" stroke-width="1.3" stroke-miterlimit="10"/>
<path d="M365.864 437.588C355.186 438.513 345.86 434.504 346.655 420.913C347.45 407.323 353.002 400.635 360.747 398.093C368.492 395.552 401.532 411.728 392.859 424.377C384.187 437.026 378.623 436.493 365.864 437.588Z" stroke="#B4AEDD" stroke-width="1.3" stroke-miterlimit="10"/>
<path d="M392.203 503.629C389.161 495.349 377.535 460.556 381.499 452.266C385.463 443.975 408.648 433.398 404.178 415.763C399.709 398.127 376.905 397.163 375.27 381.448C373.635 365.732 385.585 350.53 386.037 332.55C386.464 314.645 408.037 299.688 415.317 287.43C422.597 275.173 432.898 248.447 439.392 242.23" stroke="#B4AEDD" stroke-width="1.3" stroke-miterlimit="10"/>
</svg>
