<svg width="703" height="160" viewBox="0 0 703 160" fill="none" xmlns="http://www.w3.org/2000/svg">
<path d="M66.0258 159.454C54.3158 160.24 46.9203 150.636 44.2679 146.441C32.0974 127.17 34.3252 101.15 49.7907 81.6298C67.0698 59.9101 89.9943 42.5735 112.206 25.8064C120.706 19.3618 130.711 12.6085 140.921 13.6504C149.491 14.5604 156.66 21.5234 158.24 30.5947C159.482 37.8051 157.753 46.0481 152.989 55.8629C146.34 69.5788 136.123 81.9422 126.353 93.8677C122.935 98.0193 119.345 102.328 116.013 106.654C110.232 114.074 104.785 121.835 99.5094 129.44C97.0993 132.948 94.5939 136.432 92.0885 139.915C87.4667 146.327 81.6369 153.481 74.3097 157.1C71.7407 158.442 68.9794 159.226 66.0258 159.454ZM113.172 26.923C91.0647 43.566 68.2735 60.8368 51.0988 82.4325C35.9557 101.431 33.8307 126.821 45.6758 145.6C48.2131 149.563 55.2166 158.708 66.05 157.993C76.626 157.26 84.7736 147.585 90.7714 139.262C93.2768 135.778 95.6868 132.27 98.1257 128.819C103.43 121.273 108.848 113.453 114.696 106.001C118.028 101.674 121.618 97.366 125.036 93.2144C134.835 81.3471 144.919 69.0495 151.492 55.5159C156.142 45.9745 157.786 38.0631 156.593 31.1185C155.109 22.5789 148.495 16.0665 140.535 15.2174C135.721 14.6978 130.988 16.0213 126.392 18.2916C121.863 20.5291 117.47 23.7133 113.172 26.923Z" fill="#B4ADE1"/>
<path d="M701.48 237.904L702.859 237.006C692.093 222.257 673.145 218.287 652.986 214.047C639.941 211.291 626.514 208.433 615.604 202.449C602.287 195.118 592.912 183.016 583.899 171.313C573.863 158.377 563.502 144.95 547.709 137.974C535.723 132.666 521.482 131.514 507.756 130.399C490.073 128.991 473.392 127.597 460.813 118.235C454.136 113.275 449.36 106.289 444.698 99.5368C439.329 91.6853 433.777 83.6338 425.204 78.5238C417.251 73.8315 407.287 71.9441 397.542 70.1656C383.935 67.6144 371.062 65.2077 364.028 55.4977C360.545 50.6263 358.963 44.236 357.429 38.1117C355.2 29.0707 352.99 19.731 344.2 15.5247C332.776 10.0117 319.655 17 307.068 23.7251C302.529 26.1119 297.819 28.6557 293.346 30.5032C281.286 35.4461 268.232 36.0267 255.531 36.6504C246.297 37.0821 236.645 37.5036 227.407 39.6037C202.608 45.2614 179.273 62.4385 156.177 92.1754C151.06 98.7596 146.153 105.602 141.361 112.171C129.26 128.942 116.771 146.268 100.603 160.339C89.4156 170.067 79.3756 174.737 70.0076 174.728C53.4729 174.637 44.6163 160.902 35.9612 147.574C33.2134 143.353 30.3793 138.958 27.3181 135.109C25.73 133.068 23.9133 131.068 21.3563 130.085C15.6791 127.819 8.38082 131.496 4.96407 136.154C1.93637 140.258 0.589119 145.415 0.714912 152.379C1.05001 178.22 17.2368 198.912 32.9166 218.911C46.6161 236.412 60.7942 254.546 64.6141 276.203C68.26 297.004 61.9793 319.013 55.9347 340.327C53.5021 348.99 50.8893 357.959 49.0668 366.683C46.8022 377.364 45.4914 388.299 44.2366 398.843C42.8228 410.408 41.4197 422.329 38.7389 434.013C34.4867 452.412 24.8423 477.677 2.98055 493.475L3.87972 494.625C26.179 478.538 36.0415 452.876 40.3118 434.177C43.0305 422.403 44.5003 410.448 45.8853 398.826C47.1401 388.281 48.4796 377.405 50.7063 366.815C52.5289 358.091 55.0751 349.155 57.5365 340.55C63.6189 319.145 69.9752 296.953 66.2521 275.828C62.3549 253.848 48.1195 235.597 34.3336 217.922C18.8068 198.064 2.77275 177.514 2.41042 152.121C2.29523 145.514 3.5955 140.597 6.37644 136.833C9.37537 132.671 15.8079 129.421 20.7599 131.394C23.0307 132.301 24.6946 134.159 26.1676 135.967C29.1334 139.79 32.0053 144.095 34.6865 148.348C43.4855 161.967 52.61 176.078 69.9546 176.131C79.8373 176.175 90.2104 171.341 101.74 161.299C118.041 147.161 130.635 129.712 142.773 112.85C147.537 106.223 152.472 99.4384 157.522 92.887C180.372 63.4893 203.308 46.5097 227.678 40.9912C236.783 38.9569 246.311 38.4517 255.478 38.0529C268.274 37.4545 281.557 36.8335 293.883 31.759C298.49 29.8456 303.228 27.3601 307.805 24.8822C320.593 18.0584 332.743 11.6219 343.413 16.7829C351.573 20.7207 353.696 29.3794 355.953 38.4786C357.478 44.7523 359.022 51.2336 362.687 56.3051C370.018 66.448 383.786 68.9916 397.041 71.4997C406.624 73.2858 416.464 75.0896 424.197 79.6729C432.522 84.6159 437.949 92.5838 443.328 100.286C448.019 107.097 452.853 114.199 459.682 119.301C472.567 128.946 490.278 130.412 507.35 131.758C520.981 132.849 535.06 134.007 546.826 139.206C562.304 146.049 572.58 159.301 582.491 172.153C591.628 183.94 601.061 196.159 614.626 203.657C625.689 209.782 639.278 212.632 652.419 215.414C672.32 219.637 691.011 223.589 701.48 237.904Z" fill="#B4ADE1"/>
<path d="M223.527 16.818L200.108 25.2709C196.738 26.5009 192.512 28.0091 188.583 27.2694C182.805 26.1395 179.363 22.696 178.718 17.3641C177.303 6.11056 188.069 -10.5086 195.764 -15.3963C198.989 -17.4238 203.88 -19.7675 208.818 -19.1643C213.566 -18.6118 217.072 -15.7075 220.006 -12.9552C224.593 -8.70134 228.905 -4.16653 232.779 0.656848C234.07 2.26464 235.2 3.88002 235.339 5.83957C235.509 8.3637 233.983 11.1459 231.244 13.1506C230.331 13.8189 229.361 14.3706 228.362 14.8642C226.734 15.5956 225.049 16.2106 223.527 16.818ZM196.568 -14.2721C189.377 -9.7059 178.991 6.50828 180.29 17.0226C180.867 21.881 183.792 24.7827 189.093 25.7859C192.574 26.4572 196.505 25.0222 199.742 23.8581L223.16 15.4053C225.702 14.5119 228.282 13.5274 230.412 11.9682C232.171 10.6646 234.022 8.3736 233.843 5.99884C233.686 4.33803 232.672 2.95563 231.533 1.48963C227.688 -3.27552 223.472 -7.78501 218.913 -11.9806C216.161 -14.5329 212.808 -17.2955 208.575 -17.8125C205.333 -18.1673 202.039 -17.1196 199.375 -15.8035C198.214 -15.3024 197.31 -14.7835 196.568 -14.2721Z" fill="#B4ADE1"/>
<path d="M661.124 258.201C657.567 250.83 650.297 245.004 639.439 240.805C634.201 238.756 628.574 237.262 623.204 235.785C619.294 234.747 615.355 233.65 611.52 232.429C593.624 226.564 577.935 216.275 567.404 203.512C564.248 199.638 561.271 195.457 558.419 191.361C551.164 181.036 543.67 170.394 531.5 163.873C519.359 157.411 504.354 156.057 489.96 154.764C474.251 153.324 457.96 151.881 445.794 143.692C437.601 138.177 431.801 129.959 426.211 121.998C419.196 111.989 411.846 101.639 399.766 96.8119C392.829 94.0084 384.67 93.2579 376.767 92.5252C364.498 91.3414 352.935 90.2438 346.126 82.1617C341.908 77.1459 340.486 70.2418 339.151 63.5123C337.438 55.0132 335.744 46.2153 328.078 41.5991C317.394 35.0684 303.765 40.8592 290.602 46.4196C286.223 48.2925 281.75 50.1401 277.466 51.532C267.907 54.66 257.788 55.3118 247.993 55.9485C238.36 56.5777 228.404 57.222 218.854 60.2006C198.965 66.4032 181.277 82.0948 164.83 108.184C161.719 113.126 158.657 118.333 155.737 123.325C146.767 138.55 137.542 154.263 124.238 166.92C107.162 183.178 79.2821 194.342 58.9337 184.182C49.5899 179.525 43.3797 171.147 37.4087 163.086C35.916 161.07 34.3945 158.996 32.8352 157.014C31.2183 154.915 29.3441 152.798 26.5494 152.005C24.0409 151.289 21.1645 151.84 18.5682 153.63C15.1635 155.964 12.7928 159.887 12.5748 163.472C12.2691 169.563 16.001 174.602 19.8842 179.276C24.1883 184.467 28.7498 189.675 33.063 194.716C45.7724 209.374 58.9693 224.515 68.7312 241.425C79.3454 259.726 90.075 287.821 80.9877 317.737C79.1757 323.631 76.6203 329.529 74.1119 335.187C71.0737 342.121 67.8931 349.27 66.1235 356.592C62.9507 369.46 64.038 382.397 65.0858 394.919C65.7475 402.633 66.3911 410.646 66.043 418.497C64.5571 453.568 42.06 489.384 8.65187 509.653L9.41785 510.868C43.2635 490.31 66.1119 454.032 67.5675 418.396C67.9247 410.396 67.2145 402.416 66.6194 394.669C65.6291 382.263 64.5039 369.417 67.6298 356.789C69.3903 349.617 72.5044 342.501 75.5048 335.658C77.9844 329.942 80.6063 324.011 82.4561 318.026C91.7326 287.654 80.8972 259.177 70.1013 240.676C60.2152 223.682 47.0561 208.45 34.2514 193.767C29.8716 188.759 25.4055 183.576 21.1014 178.385C17.3999 173.911 13.7831 169.105 14.0615 163.462C14.2522 160.326 16.3671 156.89 19.2677 154.878C21.4552 153.435 23.7124 152.972 25.8107 153.529C28.2238 154.221 29.9163 156.138 31.3803 158.095C32.9397 160.077 34.4612 162.151 35.9539 164.166C42.0778 172.37 48.3455 180.865 58.0042 185.656C79.0778 196.109 107.814 184.667 125.271 168.003C138.679 155.222 148.009 139.385 157.016 124.07C159.936 119.078 162.961 113.961 166.072 109.02C182.271 83.2697 199.655 67.8007 219.049 61.7702C228.399 58.8904 238.261 58.2207 247.731 57.5992C257.688 56.9549 267.874 56.2701 277.661 53.1017C282.012 51.6769 286.552 49.7964 290.93 47.9235C303.694 42.5605 316.895 36.909 326.891 43.0547C334.023 47.4278 335.629 55.5446 337.37 64.102C338.763 70.9479 340.138 78.0925 344.566 83.3666C351.739 91.8487 364.17 93.025 376.181 94.1911C383.922 94.9314 392.015 95.7147 398.732 98.4093C410.468 103.044 417.302 112.852 424.623 123.145C430.27 131.222 436.194 139.524 444.512 145.122C457.021 153.504 473.503 154.997 489.374 156.43C503.673 157.697 518.487 159.001 530.342 165.387C542.264 171.741 549.634 182.299 556.802 192.449C559.655 196.546 562.631 200.726 565.816 204.658C576.529 217.622 592.371 228.052 610.552 233.994C614.416 235.273 618.422 236.337 622.332 237.375C627.673 238.793 633.234 240.321 638.443 242.311C648.919 246.409 655.979 251.977 659.393 259.056L661.124 258.201Z" fill="#B4ADE1"/>
<path d="M90.3011 239.463C86.2484 238.64 82.3925 236.705 78.037 233.424C70.3478 227.587 57.1025 212.18 61.5728 202.945C63.6846 198.497 69.5675 196.316 78.8976 196.416L88.3897 196.508C95.8139 196.608 105.144 196.708 111.894 200.979C120.135 206.254 122.695 217.812 117.69 226.803C115.33 231.084 111.271 234.61 106.609 236.914C101.413 239.48 95.5361 240.5 90.3011 239.463ZM63.0322 203.383C59.0826 211.492 71.2395 226.205 79.1482 232.151C83.3508 235.29 87.0159 237.174 90.8491 237.889C100.166 239.807 111.567 234.537 116.24 226.216C120.913 217.895 118.536 207.044 110.85 202.22C104.443 198.14 95.4369 198.025 88.1747 197.918L78.6827 197.826C73.5173 197.769 69.5358 198.432 66.8048 199.781C65.035 200.728 63.7331 201.95 63.0322 203.383Z" fill="#B4ADE1"/>
<path d="M629.671 272.362C624.879 260.313 614.558 250.994 601.48 246.661C595.556 244.734 589.054 243.816 582.78 242.859C572.531 241.402 562.892 240.005 555.271 234.642C547.526 229.196 543.803 220.82 539.784 212.012C536.685 205.067 533.433 197.981 528.184 192.387C515.765 179.325 495.489 177.532 475.891 175.768C459.533 174.358 442.632 172.854 429.867 164.961C419.842 158.758 412.979 148.891 406.355 139.34C398.248 127.625 389.807 115.568 375.649 110.391C369.295 108.097 362.136 107.359 355.234 106.639C346.244 105.719 337.703 104.867 330.619 100.76C325.751 97.9493 321.84 93.7233 318.149 89.6063C313.636 84.6639 309.037 79.5467 302.453 76.7863C292.463 72.6659 280.28 74.8442 268.719 77.4402C248.443 82.0225 227.113 87.4883 209.281 99.7014C184.706 116.549 171.463 143.085 162.683 164.228C160.261 170.061 157.963 175.977 155.703 181.802C148.724 199.883 141.481 218.601 130.038 235.193C128.092 237.965 126.014 240.802 124.04 243.516C117.529 252.31 110.771 261.444 108.21 271.692C105.894 281.094 107.494 290.373 109.017 299.328C109.959 305.093 110.987 311.032 111.014 316.959C110.987 330.157 105.948 343.44 101.002 356.242C97.5128 365.282 94.0053 374.621 92.0798 383.976C89.629 396.125 90.1425 408.403 90.55 420.3C90.8423 428.776 91.1831 437.518 90.4944 446.189C87.7065 479.296 64.2224 519.655 24.6647 532.676L25.0311 534.089C65.3124 520.856 89.2235 479.85 92.0477 446.146C92.803 437.442 92.4334 428.642 92.1122 420.108C91.6669 408.302 91.2111 396.14 93.6528 384.14C95.4738 374.91 99.0099 365.629 102.433 356.622C107.387 343.67 112.531 330.263 112.51 316.8C112.52 310.782 111.53 304.751 110.493 298.961C109.027 290.123 107.485 280.96 109.687 271.831C112.068 261.889 118.75 252.938 125.224 244.235C127.264 241.489 129.343 238.651 131.288 235.879C142.807 219.105 150.088 200.296 157.172 182.091C159.394 176.357 161.73 170.35 164.114 164.608C172.818 143.647 185.948 117.385 210.085 100.826C227.584 88.7769 248.686 83.3517 268.828 78.8352C280.161 76.2796 292.019 74.1166 301.599 78.0774C307.868 80.7036 312.199 85.446 316.77 90.5049C320.556 94.6473 324.458 99.0225 329.613 101.909C337.011 106.151 346.067 107.038 354.828 107.999C361.635 108.693 368.632 109.439 374.795 111.682C388.638 116.725 396.506 128.124 404.919 140.122C411.6 149.789 418.587 159.74 428.86 166.111C441.874 174.171 459.032 175.692 475.58 177.152C495.761 178.92 514.911 180.616 526.967 193.278C532.129 198.697 535.286 205.758 538.327 212.587C542.165 221.195 546.214 230.061 554.236 235.733C562.105 241.264 572.383 242.779 582.375 244.218C588.619 245.118 595.026 246.01 600.788 247.945C613.523 252.085 623.5 261.211 628.186 272.878L629.671 272.362Z" fill="#B4ADE1"/>
<path d="M607.565 283.136C603.62 273.639 592.064 271.886 580.795 270.208C575.513 269.413 569.944 268.541 565.26 266.943C551.628 262.159 543.852 249.773 536.345 237.761C528.1 224.593 519.529 210.933 503.281 207.731C497.025 206.475 490.337 207.026 483.906 207.595C479.361 207.956 474.655 208.325 470.146 208.089C450.378 206.988 436.846 194.692 422.55 181.687C412.478 172.537 401.976 163.019 389.085 157.723C384.009 155.667 378.544 154.165 373.232 152.805C366.394 151.039 359.336 149.165 353.265 145.934C346.068 142.1 340.276 136.413 334.665 130.926C329.389 125.781 323.931 120.436 317.287 116.546C292.952 102.343 259.471 111.057 237.054 125.898C212.715 142.049 195.995 165.739 180.844 188.58C165.296 212.126 148.663 239.684 148.614 267.598C148.579 275.077 149.774 282.528 150.92 289.713C152.543 300.212 154.272 311.093 152.189 321.974C150.857 329.007 147.876 336.058 145.076 342.802C142.89 347.938 140.657 353.315 139.101 358.72C135.384 371.495 135.624 384.561 135.824 397.212C135.869 402.84 136.001 408.642 135.752 414.344C133.188 471.39 93.4119 528.925 36.6901 557.524L37.323 558.805C94.5777 529.943 134.743 471.854 137.371 414.268C137.592 408.508 137.527 402.673 137.482 397.045C137.31 384.452 137.128 371.502 140.702 358.943C142.221 353.629 144.416 348.343 146.602 343.207C149.44 336.372 152.421 329.321 153.829 322.106C155.958 310.985 154.201 300.045 152.52 289.429C151.374 282.244 150.208 274.852 150.234 267.522C150.294 239.965 166.813 212.68 182.219 189.35C197.198 166.666 213.843 143.158 237.915 127.138C259.866 112.528 292.624 104.026 316.366 117.87C322.858 121.618 328.22 126.937 333.468 132.024C339.136 137.628 345.052 143.398 352.44 147.283C358.701 150.565 365.855 152.464 372.722 154.288C377.967 155.681 383.404 157.125 388.384 159.156C401.056 164.343 411.434 173.777 421.41 182.903C435.248 195.482 449.572 208.545 469.922 209.649C474.526 209.91 479.299 209.508 483.939 209.172C490.237 208.669 496.83 208.092 502.828 209.331C518.467 212.473 526.51 225.233 534.956 238.809C542.579 251.054 550.536 263.64 564.579 268.583C569.387 270.265 574.956 271.137 580.399 271.925C591.764 273.627 602.424 275.244 606.024 284.042L607.565 283.136Z" fill="#B4ADE1"/>
<path d="M371.852 264.25C354.548 271.493 336.622 277.812 319.258 283.927C300.409 290.557 280.931 297.426 261.275 301.92C252.171 303.954 240.208 306.241 228.407 305.333C216.511 304.4 206.397 300.196 199.924 293.468C194.667 288.025 191.26 280.29 189.342 269.864C185.825 250.666 186.068 223.815 197.393 205.978C209.837 186.212 226.612 168.001 245.789 153.312C253.957 147.032 264.866 139.76 276.994 138.478C291.494 136.966 303.59 144.175 315.218 151.108C318.025 152.765 320.832 154.421 323.676 155.986C334.463 161.886 346.674 166.141 358.446 170.178C370.533 174.349 383.03 178.68 394.151 184.922C403.621 190.169 419.437 201.553 418.783 218.683C418.412 228.5 412.449 238.907 402.411 247.271C396.897 251.878 390.666 255.535 384.472 258.595C380.208 260.701 375.897 262.541 371.852 264.25ZM246.66 154.403C227.587 168.968 211.049 186.989 198.681 206.573C187.67 224.038 187.416 250.532 190.856 269.406C192.726 279.566 196.112 287.093 201.122 292.37C207.288 298.814 217.088 302.884 228.631 303.774C240.203 304.722 252.004 302.442 260.946 300.416C280.536 295.955 299.947 289.119 318.73 282.522C336.027 276.44 353.953 270.121 371.19 262.91C380.937 258.82 392.157 253.857 401.312 246.22C411.008 238.171 416.753 228.161 417.097 218.791C417.676 202.35 402.357 191.3 393.107 186.162C382.11 180.004 369.641 175.731 357.621 171.527C345.82 167.432 333.609 163.177 322.632 157.226C319.787 155.661 316.951 153.947 314.173 152.349C302.698 145.557 290.821 138.457 276.874 139.913C271.606 140.487 266.56 142.183 261.831 144.519C256.197 147.374 251.034 151.012 246.66 154.403Z" fill="#B4ADE1"/>
<path d="M579.454 299.702L580.623 298.546C560.875 282.221 539.113 267.689 515.956 255.367C500.311 247.013 481.79 239.21 462.594 244.636C451.387 247.781 441.869 255.018 432.751 262.057C431.296 263.138 429.937 264.244 428.482 265.325C389.221 294.716 341.171 313.525 293.04 318.248C286.571 318.908 279.958 319.277 273.603 319.663C263.131 320.272 252.269 320.929 241.601 322.649C221.274 325.953 205.151 332.903 193.604 343.243C182.702 353.047 174.977 366.933 170.484 384.51C168.102 393.945 166.768 403.659 165.519 413.041C164.773 418.408 164.046 423.983 163.1 429.449C157.592 461.074 144.688 492.658 125.789 520.828L127.106 521.481C146.176 493.154 159.156 461.388 164.711 429.522C165.657 424.057 166.384 418.482 167.101 413.057C168.379 403.732 169.674 394.11 171.991 384.707C176.37 367.404 183.981 353.792 194.578 344.211C205.822 334.093 221.612 327.307 241.643 324.077C252.216 322.332 263.012 321.708 273.483 321.099C279.839 320.712 286.518 320.311 293.016 319.709C341.471 314.971 389.883 296.055 429.381 266.475C430.836 265.394 432.224 264.346 433.65 263.207C442.664 256.291 452.077 249.179 462.923 246.139C481.557 240.919 499.697 248.62 515.064 256.749C538.097 268.988 559.735 283.436 579.454 299.702Z" fill="#B4ADE1"/>
<path d="M546.45 314.919L547.399 313.653C534.902 306.135 521.255 299.981 506.966 295.377C495.719 291.732 480.793 288.021 465.317 291.247C453.993 293.653 443.623 299.5 433.586 305.182L433.082 305.504C408.793 319.24 384.826 331.949 358.586 336.87C347.051 339.018 335.226 339.57 323.725 340.108C309.147 340.79 294.148 341.461 279.561 345.48C258.831 351.156 239.323 363.835 226.021 380.185C209.747 400.249 203.168 424.507 196.835 447.919C192.838 462.643 188.71 477.939 182.196 492.096L183.656 492.534C190.245 478.195 194.373 462.899 198.408 448.084C204.732 424.821 211.235 400.746 227.3 380.93C240.327 364.86 259.531 352.404 279.898 346.834C294.286 342.915 309.189 342.218 323.672 341.511C335.173 340.973 347.094 340.445 358.761 338.232C385.23 333.27 409.398 320.463 433.819 306.661L434.323 306.34C444.227 300.723 454.464 294.942 465.521 292.667C480.541 289.522 495.209 293.215 506.303 296.718C520.497 301.297 533.981 307.459 546.45 314.919Z" fill="#B4ADE1"/>
<path d="M222.658 475.369C227.782 458.567 233.104 441.159 241.651 424.912C251.26 406.619 263.483 392.613 278.111 383.141C296.639 371.164 318.574 366.921 337.635 364.242C342.589 363.534 347.695 362.967 352.611 362.35C368.168 360.461 384.277 358.516 399.711 353.863C408.661 351.18 417.408 347.584 425.889 344.119C434.103 340.786 442.622 337.23 451.21 334.654C463.159 330.997 485.702 326.309 502.208 335.903L503.158 334.638C486.088 324.741 463.021 329.544 450.844 333.241C442.189 335.85 433.603 339.439 425.323 342.805C416.842 346.27 408.161 349.833 399.278 352.483C383.977 357.071 367.963 359.041 352.473 360.897C347.557 361.514 342.48 362.139 337.498 362.789C319.351 365.306 296.178 369.726 277.212 381.992C262.317 391.595 249.885 405.849 240.135 424.357C231.55 440.696 226.189 458.194 221.027 475.088L222.658 475.369Z" fill="#B4ADE1"/>
</svg>
