<svg width="313" height="436" viewBox="0 0 313 436" fill="none" xmlns="http://www.w3.org/2000/svg">
<mask id="mask0_3262_18771" style="mask-type:alpha" maskUnits="userSpaceOnUse" x="0" y="0" width="313" height="436">
<rect x="0.802734" width="312.198" height="436" fill="#B4AEDD"/>
</mask>
<g mask="url(#mask0_3262_18771)">
<path d="M32.0195 -27.1836C40.3627 -6.5947 51.1282 25.4325 80.8677 46.0213C110.607 66.6102 106.032 78.8559 90.0183 102.54C74.0047 126.224 54.0887 141.43 75.485 186.376C96.8813 231.321 146.402 219.21 190.675 206.157C234.948 193.239 275.723 176.82 283.393 195.122C291.064 213.423 274.646 282.994 296.85 313.541C319.054 344.088 390.643 369.388 390.643 369.388" stroke="#B4AEDD" stroke-width="1.3" stroke-miterlimit="10"/>
<path d="M20.9863 -21.8008C24.0814 -6.19091 39.6913 35.7943 59.4727 51.4042C79.2542 67.014 81.2728 88.0066 66.3357 110.883C51.3987 133.76 48.8419 161.615 59.4727 189.067C70.1036 216.519 100.651 251.237 167.8 240.203C234.949 229.168 243.293 232.128 244.369 261.06C245.58 289.992 279.491 351.491 314.21 365.351C348.928 379.077 401.141 391.726 401.141 391.726" stroke="#B4AEDD" stroke-width="1.3" stroke-miterlimit="10"/>
<path d="M103.837 140.938C100.062 159.617 110.166 185.702 136.26 185.702C162.354 185.702 195.11 179.733 202.994 162.491C210.878 145.248 198.219 118.943 175.568 124.911C152.916 130.88 138.481 121.816 131.486 112.421C124.601 103.027 106.502 127.785 103.837 140.938Z" stroke="#B4AEDD" stroke-width="1.3" stroke-miterlimit="10"/>
<path d="M154.857 169.554C173.014 169.554 178.506 158.823 178.43 153.191C178.354 147.559 175.989 141.395 164.164 140.177C152.339 138.959 141.659 142.917 138.302 145.2C122.205 156.235 136.624 169.554 154.857 169.554Z" stroke="#B4AEDD" stroke-width="1.3" stroke-miterlimit="10"/>
<path d="M59.4727 -30.9531C59.4727 -30.9531 69.4307 -2.29016 101.458 26.6419C133.485 55.574 134.696 77.7777 153.401 91.1C172.106 104.422 230.508 90.6963 237.371 122.32C244.234 153.943 270.206 161.21 299.542 178.435C328.878 195.659 305.597 277.611 320.938 299.68C336.144 321.749 419.711 353.104 419.711 353.104" stroke="#B4AEDD" stroke-width="1.3" stroke-miterlimit="10"/>
<path d="M100.65 -27.1836C104.822 -12.2466 136.311 22.7411 153.67 42.6572C171.029 62.5732 229.97 69.7053 245.984 83.8349C261.997 97.9646 270.744 121.514 285.278 133.76C299.811 146.005 342.873 174.937 342.065 199.429C341.258 223.92 343.276 266.578 362.654 286.36C382.166 306.141 433.571 329.421 433.571 329.421" stroke="#B4AEDD" stroke-width="1.3" stroke-miterlimit="10"/>
<path d="M186.639 29.4728C195.386 39.2962 236.025 67.5555 257.018 50.3308C278.011 33.1061 243.292 17.7654 221.761 13.0555C200.365 8.21103 176.412 18.0345 186.639 29.4728Z" stroke="#B4AEDD" stroke-width="1.3" stroke-miterlimit="10"/>
<path d="M148.02 -29.4727C148.02 -29.4727 146.674 -11.0369 154.883 -5.385C179.643 11.436 233.739 -26.1085 260.384 -3.23192C287.028 19.6446 296.179 31.0829 294.429 46.8273C292.68 62.5718 278.416 83.4298 287.566 96.8866C296.717 110.343 342.201 136.45 351.621 155.693C361.041 174.936 370.999 203.464 367.096 220.554C363.328 237.645 379.611 276.804 405.717 288.242C431.823 299.68 457.66 320.538 457.66 320.538" stroke="#B4AEDD" stroke-width="1.3" stroke-miterlimit="10"/>
</g>
</svg>
