<svg width="397" height="381" viewBox="0 0 397 381" fill="none" xmlns="http://www.w3.org/2000/svg">
<path fill-rule="evenodd" clip-rule="evenodd" d="M397 247.706C383.367 263.262 373.169 282.303 363.239 300.86C347.819 329.723 331.852 359.546 303.206 375.321C295.501 379.612 289.166 381.233 283.268 380.411C276.583 379.499 269.29 373.811 269.33 366.328C269.306 362.981 270.739 359.826 272.317 356.894C275.133 351.543 278.595 346.119 281.95 340.864L281.951 340.863L282.422 340.125L282.548 339.927C293.57 322.692 304.882 305.002 297.772 287.16C293.681 277.038 284.083 268.981 268.346 262.702C245.631 253.652 220.908 250.493 196.965 247.435L196.835 247.419C195.191 247.199 193.537 246.981 191.874 246.762L191.842 246.757L191.821 246.754L191.82 246.754C183.975 245.72 175.956 244.662 168.07 243.346C124.825 236.141 95.4714 221.187 78.3111 197.781C72.0371 189.208 67.394 179.235 62.9426 169.674L62.7086 169.171L62.4554 168.631C56.2808 155.456 49.9459 141.939 39.3047 132C35.7076 128.661 31.4056 125.45 27.2093 122.319L27.2079 122.317L27.2025 122.313C26.7149 121.95 26.2288 121.587 25.7454 121.225C12.7417 111.643 -0.788689 101.642 0.352671 86.0162C1.18164 74.1537 10.4128 66.2413 19.412 58.5277L19.412 58.5277L19.7277 58.2571L19.873 58.1318C25.9811 52.8608 32.3381 47.375 36.2101 40.7597C43.2812 28.5282 41.4264 14.6695 38.6782 0H40.4246C43.0929 14.409 45.0343 29.0626 37.6969 41.7265C33.7008 48.6235 27.2666 54.1067 21.0169 59.4326L21.0169 59.4327L20.7827 59.6322L20.6862 59.7151L20.6862 59.7152C11.5714 67.5501 2.91158 74.994 2.09916 86.1158C1.01991 100.717 13.5107 109.999 26.7119 119.739C31.4763 123.203 36.3201 126.837 40.4686 130.671C51.5187 140.955 58.0256 154.929 64.2945 168.392C68.7518 178.053 73.4859 188.042 79.7383 196.661C96.5559 219.687 125.515 234.327 168.273 241.468C177.783 243.014 187.503 244.297 196.973 245.488C221.074 248.538 246.03 251.73 268.918 260.902C285.154 267.363 295.081 275.681 299.358 286.38C306.892 305.143 295.165 323.413 283.843 341.039C280.277 346.472 276.739 352.141 273.777 357.624C272.408 360.293 271.066 363.199 271.049 366.192C271.019 372.716 277.456 377.724 283.406 378.48C288.818 379.238 294.865 377.71 302.177 373.644C330.311 358.106 346.187 328.533 361.516 299.92L361.52 299.913C371.889 280.607 382.514 260.824 397 244.838V247.706ZM397 218.004V220.474C387.12 229.721 378.998 239.723 372.645 248.754C358.274 269.104 347.285 292.037 336.653 314.222L336.216 315.134C335.094 317.442 333.964 319.783 332.827 322.14L332.825 322.144C330.186 327.613 327.507 333.165 324.782 338.576C321.275 345.558 317.295 352.593 310.374 355.896C306.284 357.799 300.874 357.58 296.784 355.295C293.653 353.559 291.779 350.782 291.48 347.645C291.14 344.154 292.678 340.867 294.309 337.869C295.652 335.346 297.087 332.812 298.498 330.321L298.523 330.278L299.071 329.309C305.44 318.052 312.056 306.348 313.154 293.479C315.566 265.444 290.922 241.995 265.331 233.253C245.513 226.472 224.092 225.852 203.309 225.25L202.969 225.24C196.128 225.064 188.986 224.863 182.118 224.451C145.849 222.252 120.622 212.511 105.004 194.732C97.524 186.217 92.454 175.88 87.5476 165.876L87.5101 165.8L87.475 165.728C82.4885 155.552 77.3386 145.043 69.6868 136.606C66.2604 132.81 62.2435 129.081 58.24 125.47L58.1321 125.372C46.2075 114.504 33.8711 103.26 36.4626 87.8739C38.2295 76.9666 47.1057 69.9252 55.7332 63.0809L55.7332 63.0808L55.7333 63.0808L56.0308 62.8448C62.9441 57.3886 70.0143 51.735 73.7564 44.1882C79.7657 32.0431 75.9599 18.9352 71.9189 5.01772L71.8894 4.9161L71.8672 4.84081C71.3943 3.23567 70.9186 1.62133 70.457 0H72.6891C73.1203 1.52778 73.5627 3.04741 74.0019 4.5551L74.0482 4.71477C77.9929 18.3319 82.0675 32.3975 75.7815 45.1534C71.9321 52.9037 64.8136 58.569 57.9401 64.0393L57.4672 64.4156L57.2794 64.5651C48.5762 71.4944 40.3418 78.0503 38.604 88.2873C36.1572 102.605 47.9707 113.417 59.4277 123.903L59.7718 124.218C63.7752 127.829 67.858 131.61 71.3502 135.459C79.1651 144.139 84.3871 154.73 89.4638 165.098C94.3026 174.955 99.3658 185.205 106.668 193.584C121.877 210.932 146.723 220.477 182.506 222.612C189.373 223.024 196.398 223.239 203.239 223.414C224.246 224.006 245.976 224.635 266.087 231.491C292.296 240.403 317.624 264.611 315.203 293.604C314.106 306.736 307.53 318.449 301.141 329.827L300.912 330.235C300.722 330.572 300.531 330.909 300.339 331.248L300.339 331.248C298.928 333.738 297.493 336.272 296.15 338.796C294.61 341.544 293.215 344.515 293.501 347.534C293.799 350.132 295.303 352.293 297.868 353.795C301.38 355.727 306.134 355.962 309.712 354.297C316.121 351.232 319.892 344.459 323.257 337.793C327.156 330.049 330.976 322.134 334.638 314.417C345.392 291.831 356.604 268.534 371.21 247.721C377.864 238.216 386.466 227.659 397 218.004ZM397 183.236V185.199C394.453 186.35 391.821 187.326 389.085 188.066C376.545 191.413 363.41 189.563 350.761 187.777C350.208 187.704 349.652 187.631 349.092 187.557C345.718 187.109 342.241 186.649 338.862 186.265C315.366 183.804 291.339 187.147 268.139 190.395C260.659 191.429 253.061 192.477 245.502 193.34C218.1 196.47 182.737 197.997 153.207 181.508C131.792 169.536 116.364 149.761 102.383 130.598C94.4288 119.661 86.6687 107.804 86.8861 94.5578C87.0761 85.9531 90.6404 78.0606 94.1145 70.3677L94.2986 69.96C97.2699 63.5183 100.267 56.7745 101.267 49.8401C102.733 39.8068 99.9886 30.1363 97.0992 19.9537L97.0418 19.7514L97.0051 19.621C95.2053 13.2287 93.3524 6.64757 92.6075 0H94.3972C95.1105 6.52885 96.9313 13.0326 98.7342 19.3786L98.9752 20.2527C101.668 30.0111 104.432 40.0271 102.988 50.2417C102.063 57.268 99.0867 63.8614 96.2239 70.2034L95.9036 70.9133C92.2678 78.8668 88.88 86.3731 88.6984 94.7097C88.4792 107.418 96.0806 118.934 103.889 129.648C117.739 148.706 133.022 168.259 154.107 179.969C183.124 196.158 218.133 194.671 245.299 191.568C252.74 190.718 260.456 189.657 267.818 188.637L268.332 188.567C291.556 185.379 315.521 182.089 339.079 184.505C343.019 184.953 347.091 185.505 351.044 186.07L351.226 186.096C363.7 187.887 376.532 189.73 388.593 186.387C391.497 185.588 394.292 184.512 397 183.236ZM397 124.146V126.46C394.937 127.932 392.895 129.421 390.867 130.901L390.466 131.193L390.358 131.273L390.357 131.273C382.887 136.772 375.143 142.473 366.836 146.875C335.712 163.472 297.726 161.948 264.685 159.202C232.602 156.465 198.888 152.539 170.237 135.889C143.888 120.532 119.52 89.5739 124.693 54.8222C126.105 45.4087 129.622 36.4016 133.018 27.7054L133.107 27.4776L133.182 27.2847C136.626 18.4967 140.18 9.42857 141.49 0H143.374C142.089 9.76074 138.437 19.1048 134.855 28.1155C134.715 28.4762 134.575 28.8374 134.435 29.199L134.414 29.2525C131.177 37.5968 127.846 46.1826 126.571 55.0264C121.54 88.9244 145.354 119.228 171.242 134.219C199.63 150.659 233.108 154.612 264.941 157.258C297.68 159.979 335.312 161.544 366.042 145.171C374.22 140.827 381.946 135.158 389.45 129.634L389.669 129.474C392.091 127.694 394.529 125.903 397 124.146ZM397 24.1129V26.9626C393.696 22.9114 390.515 18.4621 387.465 13.618C384.691 9.19754 382.112 4.62739 379.662 0H381.686C383.996 4.33145 386.426 8.59777 389.038 12.7205C391.603 16.8067 394.258 20.6048 397 24.1129ZM167.071 0C167.111 8.17345 166.82 16.3632 165.839 24.3966C165.34 28.4021 164.724 32.4211 164.107 36.44C161.473 53.1334 158.736 70.4966 166.768 85.2535C173.506 97.5858 186.384 105.029 196.957 110.103C221.719 122.052 249.353 129.305 276.824 130.953C301.656 132.543 331.68 116.79 351.531 101.54C362.307 93.2492 369.434 84.9569 373.198 76.0316C377.86 65.0294 378.116 51.599 373.948 38.1954C369.794 24.9099 362.008 13.3553 355.756 4.73663C354.589 3.14615 353.402 1.56749 352.199 0H349.71C351.242 1.97798 352.748 3.97368 354.224 5.98848C360.397 14.4368 368.103 25.8209 372.113 38.8837C376.174 51.8807 375.93 64.8909 371.449 75.3937C367.763 83.9512 360.859 92.0984 350.358 100.178C330.834 115.151 301.203 130.681 276.923 129.207C249.689 127.531 222.37 120.422 197.792 108.512C192.098 105.812 185.785 102.405 180.138 98.0249C175.464 94.3111 171.366 89.8734 168.42 84.5264C160.748 70.4359 163.365 53.5191 165.891 37.1859L165.947 36.8282C166.143 35.4502 166.353 34.0561 166.563 32.655L166.563 32.6545C166.957 30.0365 167.353 27.3938 167.678 24.7848C168.651 16.571 168.933 8.26597 168.893 0H167.071ZM359.656 243.477C361.405 236.816 361.873 231.498 361.016 226.63C359.879 220.358 356.17 214.62 351.036 210.54C346.429 206.878 340.723 204.599 334.92 204.603C322.71 204.562 310.954 214.221 308.684 226.266C306.891 236.046 310.806 246.118 313.936 254.171L313.992 254.317L318.045 264.623C322.018 274.758 327.024 279.81 332.904 279.437C345.151 278.756 356.519 255.262 359.656 243.477ZM357.751 243.036C354.589 255.124 343.517 277.028 332.754 277.6C330.85 277.698 328.918 277.021 327.089 275.674C324.39 273.53 321.908 269.625 319.71 264.014L315.657 253.708L315.616 253.602C312.564 245.714 308.791 235.965 310.524 226.654C312.533 215.477 323.583 206.437 334.9 206.52C346.218 206.603 357.08 215.772 359.022 226.977C359.904 231.543 359.409 236.625 357.751 243.036Z" fill="#B7B7B7"/>
</svg>
