<svg width="575" height="174" viewBox="0 0 575 174" fill="none" xmlns="http://www.w3.org/2000/svg">
<mask id="mask0_3246_2588" style="mask-type:alpha" maskUnits="userSpaceOnUse" x="0" y="0" width="575" height="174">
<rect width="575" height="174" fill="#F8ECE3"/>
</mask>
<g mask="url(#mask0_3246_2588)">
<path d="M284.981 36.0897C274.689 31.8372 272.433 20.559 271.939 15.8751C269.683 -5.63391 282.514 -26.8348 303.874 -36.9421C327.702 -48.1588 354.491 -53.2742 380.434 -58.2046C390.374 -60.1151 401.724 -61.6558 409.972 -56.4789C416.881 -52.1032 420.053 -43.1668 417.586 -34.7851C415.612 -28.129 410.677 -21.8427 402.5 -15.4948C391.079 -6.62001 377.191 -0.395401 363.867 5.64436C359.215 7.73979 354.35 9.89691 349.697 12.1772C341.661 16.0599 333.765 20.374 326.081 24.6265C322.556 26.5987 318.961 28.5092 315.365 30.4198C308.739 33.9327 300.773 37.5689 293.018 37.5689C290.269 37.6305 287.59 37.1374 284.981 36.0897ZM380.787 -56.8487C354.985 -51.9799 328.337 -46.8646 304.65 -35.7095C283.783 -25.9103 271.305 -5.20255 273.49 15.7517C273.984 20.1891 276.099 30.9128 285.616 34.8571C294.921 38.6782 305.919 33.871 314.52 29.3104C318.115 27.3999 321.64 25.4277 325.164 23.5171C332.849 19.3263 340.744 14.9506 348.851 11.0679C353.504 8.78754 358.369 6.63049 363.021 4.53506C376.345 -1.44307 390.092 -7.66772 401.372 -16.4192C409.338 -22.5823 414.061 -28.622 415.964 -35.0316C418.291 -42.9202 415.401 -51.2404 408.985 -55.3079C405.108 -57.7732 400.526 -58.636 395.661 -58.636C390.868 -58.636 385.792 -57.7732 380.787 -56.8487Z" fill="#F5D6BD"/>
<path d="M792.629 369.879L794.18 369.694C791.219 352.623 776.768 341.283 761.399 329.203C751.459 321.376 741.237 313.303 734.469 303.627C726.221 291.794 723.331 277.557 720.581 263.814C717.48 248.591 714.307 232.814 703.803 220.241C695.837 210.688 684.205 203.724 672.996 197.006C658.544 188.378 644.938 180.181 638.171 166.931C634.575 159.905 633.447 151.955 632.319 144.251C631.05 135.314 629.711 126.132 624.565 118.181C619.771 110.847 612.087 105.054 604.544 99.4457C594.04 91.557 584.099 84.0997 582.196 72.883C581.28 67.2747 582.619 61.1733 583.888 55.3184C585.791 46.6902 587.836 37.8154 582.126 30.543C574.723 21.0519 560.624 21.4834 547.089 21.9148C542.224 22.038 537.149 22.2229 532.566 21.9148C520.229 21.0519 508.879 16.0599 497.811 11.2528C489.775 7.73985 481.386 4.04198 472.644 1.94655C449.169 -3.6618 422.098 1.14535 389.951 16.7378C382.831 20.1891 375.781 23.9486 368.943 27.5231C351.601 36.706 333.695 46.1971 314.026 51.3741C300.42 54.9486 289.916 54.7021 281.95 50.7578C267.921 43.7319 266.159 28.3243 264.396 13.3482C263.832 8.60262 263.268 3.67221 262.281 -0.888428C261.788 -3.29201 261.083 -5.75722 259.32 -7.66776C255.443 -11.9819 247.688 -11.9202 242.824 -9.39336C238.524 -7.17467 235.21 -3.35359 232.391 2.62455C221.816 24.7498 226.892 49.1553 231.827 72.7597C236.127 93.4059 240.568 114.792 234.717 134.821C229.077 154.05 214.484 170.136 200.385 185.728C194.675 192.076 188.683 198.609 183.466 205.265C177.051 213.4 171.34 222.151 165.841 230.595C159.779 239.839 153.575 249.392 146.384 258.205C135.034 272.072 116.212 289.513 90.9739 293.766L91.2558 295.122C116.987 290.808 136.162 273.12 147.653 259.006C154.914 250.132 161.189 240.579 167.251 231.273C172.75 222.829 178.46 214.14 184.805 206.066C190.022 199.41 195.944 192.877 201.654 186.591C215.824 170.937 230.558 154.728 236.268 135.191C242.19 114.853 237.748 93.3442 233.448 72.5132C228.584 49.0937 223.578 24.873 233.942 3.11754C236.62 -2.55244 239.793 -6.18865 243.741 -8.22245C248.041 -10.5028 254.879 -10.5644 258.263 -6.80492C259.814 -5.07927 260.448 -2.79895 260.942 -0.641891C261.858 3.85712 262.493 8.72593 262.986 13.4715C264.749 28.7558 266.582 44.5947 281.315 51.9287C289.705 56.1196 300.561 56.3661 314.59 52.6683C334.4 47.4913 352.447 37.9386 369.86 28.6941C376.698 25.0579 383.747 21.3601 390.797 17.9088C422.591 2.50124 449.239 -2.30588 472.292 3.24084C480.892 5.33627 489.211 8.91077 497.177 12.4237C508.315 17.2925 519.877 22.3462 532.496 23.209C537.219 23.5171 542.295 23.3939 547.23 23.209C560.977 22.7776 574.018 22.4079 580.927 31.2826C586.214 38.0619 584.382 46.3204 582.478 55.0103C581.139 60.9884 579.729 67.1514 580.716 73.0063C582.69 84.716 593.335 92.6663 603.557 100.37C610.959 105.917 618.573 111.587 623.225 118.736C628.231 126.44 629.5 135.499 630.839 144.312C631.967 152.078 633.095 160.151 636.761 167.362C643.669 180.982 658.121 189.672 672.08 197.992C683.218 204.649 694.709 211.551 702.534 220.919C712.827 233.245 715.999 248.837 719.031 263.937C721.85 277.804 724.741 292.163 733.13 304.243C739.968 314.104 750.331 322.239 760.342 330.128C775.499 342.084 789.739 353.301 792.629 369.879Z" fill="#F5D6BD"/>
<path d="M478.918 -19.0694L455.443 -21.7194C452.059 -22.0892 447.829 -22.5823 444.798 -24.8626C440.356 -28.2523 438.876 -32.628 440.568 -37.4352C444.093 -47.6042 460.237 -57.2185 468.837 -58.1429C472.432 -58.5127 477.579 -58.4511 481.527 -55.8626C485.333 -53.3974 487.096 -49.4531 488.435 -45.8785C490.55 -40.3318 492.313 -34.6618 493.582 -28.9302C494.005 -27.0197 494.286 -25.1707 493.582 -23.4451C492.665 -21.2264 490.198 -19.5007 487.025 -18.9461C485.968 -18.7612 484.91 -18.6996 483.853 -18.6996C482.161 -18.7612 480.469 -18.9461 478.918 -19.0694ZM469.049 -56.8487C461.012 -55.9859 445.362 -46.5564 442.048 -37.0654C440.497 -32.6896 441.766 -28.9918 445.855 -25.9103C448.534 -23.8765 452.482 -23.4451 455.725 -23.0753L479.2 -20.4252C481.738 -20.117 484.346 -19.8705 486.814 -20.302C488.858 -20.6717 491.396 -21.8427 492.242 -23.9382C492.806 -25.4173 492.524 -27.0196 492.172 -28.7453C490.903 -34.4153 489.211 -40.0236 487.096 -45.5087C485.827 -48.8368 484.135 -52.5962 480.751 -54.8149C478.143 -56.4789 474.9 -56.972 472.08 -56.972C470.882 -57.0336 469.895 -56.972 469.049 -56.8487Z" fill="#F5D6BD"/>
<path d="M749.767 370.187C749.838 362.422 746.101 354.41 738.629 346.275C735.033 342.33 730.874 338.694 726.926 335.181C724.036 332.655 721.146 330.066 718.396 327.416C705.636 314.905 696.613 299.559 693.017 284.275C691.96 279.653 691.184 274.845 690.479 270.161C688.646 258.328 686.743 246.126 679.129 235.464C671.516 224.863 659.32 217.406 647.617 210.257C634.857 202.43 621.604 194.356 614.695 182.277C610.042 174.142 608.562 164.712 607.152 155.591C605.39 144.128 603.486 132.233 595.238 123.05C590.515 117.75 583.888 113.682 577.473 109.738C567.533 103.575 558.157 97.7816 555.76 88.0441C554.279 82.0043 555.971 75.5331 557.663 69.2468C559.778 61.2965 562.034 53.0997 557.452 45.9506C551.107 35.9048 537.078 35.1036 523.543 34.3024C519.031 34.0559 514.449 33.7478 510.219 33.1315C500.772 31.7757 491.89 28.0778 483.289 24.5033C474.829 20.9904 466.088 17.3542 456.712 15.8751C437.184 12.7935 415.542 18.71 390.586 33.9943C385.862 36.8909 381.069 40.0341 376.486 43.054C362.457 52.2369 348.005 61.7279 331.368 66.9049C310.008 73.5609 281.597 71.3423 268.556 54.1474C262.563 46.2588 260.801 36.5211 259.109 27.1533C258.686 24.8114 258.263 22.4078 257.769 20.0659C257.276 17.6006 256.571 15.0122 254.527 13.1633C252.694 11.4993 250.015 10.7597 247.054 11.1911C243.177 11.7458 239.511 14.0877 237.819 17.046C234.999 22.0996 236.056 27.9545 237.396 33.5629C238.876 39.7876 240.568 46.1355 242.119 52.2369C246.772 70.048 251.636 88.4754 252.835 106.964C254.174 126.994 251.495 155.406 231.192 177.038C227.174 181.291 222.521 185.235 218.009 188.994C212.51 193.617 206.8 198.362 202.218 203.847C194.111 213.462 189.599 224.925 185.228 236.018C182.549 242.859 179.729 249.947 176.134 256.48C160.131 285.692 125.94 306.708 89 309.913L89.1409 311.269C126.575 308.002 161.259 286.74 177.474 257.034C181.139 250.378 183.889 243.291 186.638 236.45C191.009 225.48 195.45 214.078 203.416 204.648C207.928 199.287 213.568 194.541 218.996 189.981C223.508 186.159 228.231 182.215 232.32 177.901C252.976 155.961 255.725 127.179 254.315 106.903C253.046 88.2906 248.252 69.8015 243.529 51.9287C241.908 45.8274 240.286 39.541 238.806 33.3164C237.537 27.9545 236.479 22.3462 239.088 17.6623C240.568 15.0738 243.811 13.04 247.124 12.547C249.592 12.2388 251.707 12.7935 253.258 14.1494C255.02 15.7518 255.655 18.0937 256.078 20.374C256.571 22.716 256.994 25.1195 257.417 27.4615C259.179 37.0142 260.942 46.8751 267.146 55.0103C280.681 72.7598 309.937 75.1017 331.791 68.2608C348.569 63.0222 363.162 53.4695 377.262 44.225C381.844 41.2051 386.567 38.1235 391.291 35.2269C415.894 20.1275 437.184 14.2726 456.218 17.2925C465.383 18.7716 474.054 22.3462 482.373 25.7975C491.114 29.4337 500.067 33.1315 509.725 34.549C514.026 35.1653 518.678 35.4734 523.19 35.72C536.303 36.5211 549.909 37.2607 555.83 46.6902C560.06 53.4079 558.016 60.9884 555.901 69.0003C554.209 75.4099 552.376 82.0659 553.927 88.4138C556.465 98.6445 566.546 104.869 576.274 110.909C582.549 114.792 589.105 118.859 593.687 123.974C601.724 132.849 603.416 144.066 605.319 155.899C606.729 165.144 608.28 174.696 613.003 182.955C620.123 195.342 633.518 203.539 646.419 211.428C658.051 218.515 670.106 225.849 677.508 236.265C684.981 246.68 686.813 258.76 688.646 270.408C689.351 275.092 690.127 279.899 691.184 284.583C694.85 300.114 703.944 315.645 716.916 328.341C719.665 331.052 722.626 333.641 725.516 336.168C729.464 339.619 733.553 343.255 737.148 347.138C744.339 355.026 748.005 362.73 747.934 370.187H749.767Z" fill="#F5D6BD"/>
<path d="M272.01 114.36C268.908 111.957 266.441 108.69 264.114 104.068C260.025 95.8711 255.232 77.1971 262.916 71.219C266.582 68.3224 272.503 68.9387 280.399 72.9447L288.436 77.0122C294.71 80.217 302.605 84.2229 306.553 90.6941C311.347 98.6444 308.668 109.553 300.632 115.1C296.825 117.75 291.89 119.044 286.955 119.044C281.456 119.044 276.028 117.442 272.01 114.36ZM263.973 72.205C257.206 77.4436 261.365 95.0699 265.595 103.452C267.851 107.889 270.177 111.032 273.138 113.251C280.258 118.798 292.172 119.106 299.645 113.99C307.117 108.875 309.655 98.6444 305.143 91.3104C301.407 85.1474 293.793 81.2648 287.66 78.1216L279.624 74.054C275.253 71.8353 271.587 70.726 268.697 70.726C266.793 70.7876 265.172 71.2806 263.973 72.205Z" fill="#F5D6BD"/>
<path d="M717.057 369.016C718.044 356.752 713.179 344.488 703.874 335.305C699.644 331.175 694.498 327.662 689.563 324.211C681.456 318.664 673.842 313.426 669.612 305.661C665.312 297.772 665.664 289.082 665.946 279.899C666.228 272.688 666.44 265.293 664.325 258.328C659.249 241.996 642.753 231.951 626.821 222.213C613.497 214.139 599.75 205.758 592.207 193.678C586.285 184.187 584.593 172.909 582.972 162C580.998 148.627 578.883 134.821 569.013 124.468C564.572 119.845 558.791 116.209 553.222 112.696C545.961 108.136 539.052 103.821 534.752 97.3502C531.791 92.9129 530.24 87.6743 528.83 82.6206C527.068 76.5192 525.305 70.2329 520.864 65.1176C514.096 57.4138 502.817 54.1474 491.89 51.4973C472.714 46.875 452.27 42.561 431.967 45.4576C403.98 49.4635 381.562 66.4734 365.207 80.7717C360.695 84.716 356.254 88.7836 351.883 92.7896C338.347 105.239 324.319 118.12 307.611 127.426C304.791 128.967 301.83 130.507 299.01 131.986C289.775 136.732 280.188 141.662 273.702 149.305C267.78 156.33 265.242 164.897 262.775 173.155C261.153 178.456 259.532 183.941 257.065 188.994C251.495 200.211 241.626 209.394 232.038 218.207C225.27 224.432 218.362 230.903 212.792 238.052C205.602 247.358 200.879 258.02 196.226 268.313C192.912 275.647 189.528 283.227 185.299 290.315C169.014 317.309 132.074 341.776 92.9478 336.229L92.6658 337.585C132.497 343.255 170.071 318.418 186.638 290.931C190.938 283.843 194.322 276.201 197.636 268.806C202.218 258.575 206.941 248.036 214.061 238.853C219.49 231.766 226.398 225.356 233.096 219.132C242.754 210.195 252.764 200.951 258.404 189.487C260.942 184.372 262.634 178.825 264.185 173.464C266.652 165.328 269.19 156.885 274.9 150.044C281.104 142.587 290.551 137.78 299.715 133.096C302.605 131.617 305.566 130.076 308.386 128.535C325.235 119.106 339.334 106.163 353.011 93.6524C357.311 89.7081 361.823 85.5788 366.264 81.6961C382.478 67.5212 404.685 50.6961 432.179 46.7518C452.129 43.8552 472.362 48.1076 491.396 52.7299C502.112 55.3184 513.109 58.4615 519.595 65.8572C523.825 70.726 525.517 76.5808 527.279 82.8055C528.759 87.9208 530.24 93.2826 533.412 97.9049C537.924 104.623 545.256 109.183 552.305 113.682C557.804 117.134 563.444 120.708 567.744 125.207C577.402 135.314 579.306 148.318 581.421 162.062C583.042 173.094 584.804 184.495 590.867 194.233C598.551 206.559 612.51 215.064 625.975 223.261C642.4 233.245 657.98 242.736 662.915 258.575C665.03 265.354 664.748 272.688 664.466 279.776C664.113 288.712 663.832 297.957 668.273 306.154C672.644 314.166 680.751 319.774 688.646 325.197C693.581 328.587 698.657 332.038 702.746 336.106C711.84 344.981 716.493 356.937 715.576 368.832L717.057 369.016Z" fill="#F5D6BD"/>
<path d="M693.722 368.893C694.357 359.155 685.263 352.808 676.38 346.645C672.221 343.748 667.85 340.666 664.536 337.338C654.949 327.539 653.539 313.734 652.2 300.36C650.719 285.692 649.168 270.47 636.69 260.917C631.896 257.219 625.975 254.877 620.264 252.658C616.246 251.056 612.087 249.392 608.35 247.297C591.995 238.052 585.65 221.905 578.953 204.833C574.23 192.816 569.295 180.305 560.554 170.382C557.099 166.499 553.081 162.925 549.133 159.535C544.057 155.159 538.841 150.599 535.034 145.299C530.522 139.012 527.984 131.74 525.517 124.714C523.19 118.12 520.793 111.279 516.775 105.177C502.041 82.8671 469.895 76.2111 444.586 79.4158C417.092 82.9288 392.912 96.056 370.423 109.122C347.301 122.619 321.569 139.074 309.796 162.802C306.624 169.149 304.509 175.99 302.465 182.585C299.433 192.199 296.331 202.183 289.987 210.565C285.898 215.988 280.399 220.734 275.182 225.295C271.164 228.746 267.005 232.382 263.409 236.326C254.879 245.633 249.592 256.849 244.446 267.696C242.119 272.503 239.793 277.495 237.184 282.241C211.03 329.696 153.011 361.929 92.7363 362.422V363.778C153.575 363.285 212.158 330.744 238.594 282.857C241.203 278.05 243.6 273.058 245.926 268.251C251.072 257.466 256.36 246.372 264.678 237.189C268.203 233.307 272.292 229.732 276.31 226.281C281.597 221.658 287.096 216.913 291.326 211.366C297.812 202.8 300.914 192.754 303.945 183.016C305.989 176.422 308.104 169.643 311.206 163.418C322.838 139.998 348.358 123.728 371.269 110.354C393.546 97.3502 417.586 84.3462 444.798 80.8333C469.613 77.6285 501.054 84.1614 515.436 105.917C519.383 111.833 521.71 118.613 524.036 125.145C526.504 132.295 529.112 139.69 533.765 146.1C537.713 151.523 543 156.145 548.076 160.583C551.953 163.973 555.971 167.485 559.355 171.307C567.956 181.044 572.82 193.432 577.473 205.388C583.959 221.905 590.656 239.038 607.504 248.529C611.311 250.686 615.541 252.35 619.63 254.014C625.199 256.233 631.05 258.513 635.633 262.088C647.617 271.332 649.098 285.569 650.578 300.668C651.917 314.289 653.398 328.34 663.268 338.448C666.651 341.899 671.022 344.981 675.323 347.939C684.276 354.163 692.665 360.018 692.03 369.016L693.722 368.893Z" fill="#F5D6BD"/>
<path d="M501.125 253.768C483.359 252.659 465.453 250.501 448.111 248.406C429.288 246.126 409.831 243.784 391.22 239.346C382.619 237.251 371.481 234.169 361.823 228.438C352.094 222.645 345.256 214.817 342.577 206.374C340.392 199.533 340.744 191.521 343.494 181.845C348.569 164.034 360.06 141.293 377.191 130.877C396.084 119.291 418.009 110.847 440.497 106.41C450.085 104.499 462.422 102.897 473.278 106.903C486.25 111.71 493.511 122.927 500.49 133.712C502.182 136.301 503.874 138.889 505.637 141.416C512.334 150.969 520.934 159.72 529.253 168.102C537.783 176.73 546.595 185.666 553.433 195.651C559.285 204.094 567.956 220.426 560.201 234.724C555.76 242.921 546.313 249.269 534.258 252.165C527.632 253.768 520.793 254.261 514.237 254.261C509.725 254.261 505.284 254.014 501.125 253.768ZM440.779 107.704C418.432 112.08 396.789 120.462 378.037 131.925C361.329 142.155 349.979 164.589 344.974 182.092C342.295 191.521 342.013 199.348 344.058 205.943C346.596 214.016 353.222 221.597 362.669 227.205C372.115 232.875 383.113 235.895 391.573 237.929C410.113 242.366 429.5 244.708 448.252 246.989C465.524 249.084 483.43 251.241 501.125 252.35C511.135 252.967 522.767 253.46 533.765 250.81C545.397 248.036 554.491 241.935 558.721 234.108C566.123 220.364 557.734 204.525 552.023 196.267C545.256 186.406 536.444 177.531 527.984 168.903C519.665 160.46 511.065 151.708 504.227 142.032C502.464 139.505 500.772 136.855 499.08 134.328C492.172 123.728 485.051 112.696 472.573 108.074C467.85 106.348 462.845 105.67 457.84 105.67C451.847 105.732 445.926 106.656 440.779 107.704Z" fill="#F5D6BD"/>
<path d="M662.845 371.174L664.325 370.68C654.385 348.494 641.977 326.985 627.455 306.77C617.656 293.088 605.178 278.666 586.567 275.215C575.71 273.181 564.572 275.338 553.856 277.496C552.164 277.804 550.543 278.173 548.851 278.482C503.099 286.987 454.315 282.796 411.382 266.587C405.601 264.43 399.821 261.965 394.251 259.623C385.087 255.74 375.57 251.734 365.771 248.714C347.089 242.983 330.452 242.12 316.282 246.064C302.887 249.824 290.48 258.39 279.271 271.456C273.279 278.482 268.062 286.185 263.057 293.643C260.166 297.895 257.206 302.332 254.104 306.585C236.127 331.175 211.876 352.623 183.959 368.647L184.805 369.756C212.933 353.671 237.325 332.1 255.443 307.324C258.545 303.072 261.506 298.635 264.396 294.321C269.401 286.925 274.548 279.283 280.469 272.257C291.467 259.376 303.663 250.995 316.705 247.297C330.522 243.414 346.807 244.277 365.207 249.947C374.935 252.905 384.382 256.911 393.546 260.794C399.116 263.136 404.967 265.601 410.748 267.82C453.962 284.152 503.099 288.404 549.133 279.837C550.825 279.529 552.446 279.221 554.138 278.851C564.713 276.756 575.71 274.661 586.214 276.633C604.262 280.022 616.458 294.197 626.116 307.571C640.568 327.663 652.904 349.048 662.845 371.174Z" fill="#F5D6BD"/>
<path d="M628.372 370.249L629.711 369.571C622.238 357.923 613.215 346.953 602.993 337.03C594.956 329.203 583.818 319.774 569.295 316.014C558.65 313.303 547.371 313.919 536.444 314.535L535.88 314.597C509.443 316.076 483.712 316.816 459.32 309.975C448.605 306.955 438.312 302.456 428.301 298.08C415.612 292.533 402.57 286.802 388.471 284.09C368.45 280.207 346.525 282.796 328.337 291.116C306.06 301.346 290.269 319.219 275.041 336.476C265.454 347.323 255.514 358.601 244.023 367.907L245.08 368.893C256.712 359.464 266.652 348.185 276.31 337.277C291.467 320.144 307.117 302.394 329.112 292.287C346.948 284.09 368.52 281.563 388.189 285.384C402.077 288.096 415.048 293.766 427.667 299.251C437.678 303.627 448.041 308.187 458.897 311.207C483.501 318.11 509.443 317.37 536.021 315.891L536.585 315.83C547.371 315.213 558.509 314.597 568.872 317.309C582.972 320.945 593.899 330.251 601.865 337.893C612.016 347.754 620.899 358.663 628.372 370.249Z" fill="#F5D6BD"/>
<path d="M285.475 370.68C296.895 358.539 308.739 345.967 322.838 335.736C338.7 324.211 354.985 317.432 371.41 315.521C392.207 313.118 412.651 318.726 429.993 324.458C434.505 325.937 439.087 327.601 443.529 329.142C457.558 334.072 472.08 339.187 487.166 341.714C495.908 343.193 504.861 343.81 513.532 344.426C521.921 345.042 530.663 345.597 539.052 347.014C550.754 348.925 571.904 354.41 581.914 369.509L583.254 368.832C572.891 353.239 551.248 347.631 539.334 345.659C530.874 344.241 522.062 343.686 513.603 343.07C504.932 342.454 496.049 341.838 487.378 340.358C472.432 337.832 457.981 332.778 444.022 327.847C439.581 326.307 434.999 324.704 430.487 323.164C413.991 317.678 392.419 311.7 371.128 314.166C354.421 316.076 337.854 322.979 321.781 334.627C307.611 344.919 295.697 357.553 284.206 369.756L285.475 370.68Z" fill="#F5D6BD"/>
</g>
</svg>
