<svg width="575" height="202" viewBox="0 0 575 202" fill="none" xmlns="http://www.w3.org/2000/svg">
<mask id="mask0_3474_3529" style="mask-type:alpha" maskUnits="userSpaceOnUse" x="0" y="0" width="575" height="202">
<rect width="574.293" height="202" fill="#FCF6F1"/>
</mask>
<g mask="url(#mask0_3474_3529)">
<path d="M-19.707 209.131C-19.707 209.269 -19.707 209.477 -19.707 209.615L-18.1845 209.546C-18.4613 200.407 -10.7104 193 -3.44388 189.053C0.293179 187.046 4.30706 185.453 8.18254 183.93C12.6809 182.199 17.3868 180.33 21.6083 177.838C31.7814 171.814 39.0479 162.26 46.0376 152.983C51.9892 145.16 58.0792 137.129 65.8994 131.244C79.8788 120.721 97.8028 118.021 115.173 115.39C130.398 113.105 146.108 110.682 159.534 103.136C166.8 99.051 173.236 93.5816 179.395 88.2507C183.894 84.3737 188.6 80.3582 193.513 76.9658C198.773 73.3657 217.181 62.15 232.96 70.6656C241.957 75.5119 248.047 86.1737 249.708 99.951C250.469 106.32 250.4 112.897 250.261 119.267C250.192 124.667 250.123 130.206 250.538 135.675C253.168 169.045 277.182 199.923 308.809 210.723L309.293 209.269C278.22 198.607 254.621 168.353 252.061 135.537C251.645 130.136 251.715 124.598 251.784 119.267C251.853 112.828 251.991 106.182 251.23 99.7433C249.5 85.4814 243.133 74.3349 233.721 69.281C222.579 63.2577 207.216 65.6116 192.683 75.6504C187.7 79.112 182.994 83.1275 178.427 87.0737C172.267 92.3354 165.97 97.8048 158.842 101.82C145.693 109.228 130.122 111.582 115.035 113.867C97.4568 116.567 79.3251 119.267 65.0689 130.067C57.1104 136.09 50.8819 144.26 44.9303 152.083C38.0098 161.222 30.8125 170.707 20.9162 176.522C16.7639 178.945 12.1964 180.745 7.6981 182.545C3.75342 184.069 -0.329666 185.661 -4.13593 187.738C-11.7485 191.753 -19.707 199.507 -19.707 209.131Z" fill="#F5D6BD"/>
<path d="M12.6809 208.854L13.9957 209.685C16.3487 205.877 20.6394 203.731 24.7917 201.723C25.6914 201.307 26.591 200.823 27.4907 200.338C39.8092 193.9 49.4286 183.099 58.7713 172.714C70.7438 159.353 82.0241 146.752 98.4257 142.321C105.831 140.314 113.651 140.244 121.263 140.244C126.661 140.244 132.267 140.175 137.734 139.483C144.931 138.514 152.198 136.367 159.188 134.221C173.582 129.929 187.146 125.844 200.157 131.106C215.728 137.406 222.372 153.468 229.361 170.568C236.005 186.699 242.856 203.454 258.151 210.654L258.773 209.269C244.033 202.277 237.251 185.869 230.745 169.945C223.894 153.329 216.835 136.229 200.711 129.652C187.146 124.182 172.752 128.544 158.703 132.698C151.713 134.775 144.516 136.921 137.457 137.89C132.128 138.583 126.523 138.652 121.194 138.652C113.512 138.721 105.554 138.721 98.0105 140.798C81.1937 145.368 69.2212 158.729 57.5948 171.607C48.3214 181.922 38.7711 192.584 26.7294 198.954C25.8298 199.438 24.9993 199.854 24.0997 200.269C19.809 202.484 15.3106 204.7 12.6809 208.854Z" fill="#F5D6BD"/>
<path d="M59.2557 210.169L60.5014 211C67.5603 200.477 74.896 189.607 84.5847 181.092C95.3807 171.676 107.699 166.968 119.187 167.799C121.54 167.937 123.893 168.353 126.177 168.768C129.429 169.322 132.751 169.876 136.142 169.807C139.395 169.737 142.578 169.114 145.623 168.491C147.907 168.007 150.191 167.591 152.475 167.314C162.579 166.276 172.959 169.945 180.226 177.076C184.655 181.438 187.908 186.976 191.022 192.376C194.967 199.092 199.05 206.015 205.416 210.723L206.316 209.477C200.157 204.977 196.351 198.469 192.337 191.546C189.153 186.076 185.831 180.468 181.264 175.968C173.721 168.491 162.855 164.683 152.267 165.722C149.914 165.93 147.492 166.414 145.208 166.899C142.163 167.522 139.049 168.145 136.004 168.214C132.751 168.284 129.499 167.73 126.315 167.176C123.962 166.76 121.609 166.345 119.187 166.207C107.284 165.307 94.5502 170.222 83.4774 179.915C73.7196 188.569 66.3838 199.577 59.2557 210.169Z" fill="#F5D6BD"/>
</g>
</svg>
