<svg width="473" height="62" viewBox="0 0 473 62" fill="none" xmlns="http://www.w3.org/2000/svg">
<path d="M35.4557 6.40496C35.4557 1.28099 30.5741 0 26.7203 0V0.768595C29.0326 0.768595 30.8311 1.53719 30.8311 3.33058C30.8311 4.35537 30.0603 5.89256 27.748 5.89256C25.9495 5.89256 22.0956 4.86777 19.2694 3.84298C15.9294 2.56198 12.8463 1.53719 10.277 1.53719C5.13851 1.53719 1.54155 5.38016 1.54155 9.73554C1.54155 13.5785 4.36773 14.8595 5.39544 15.3719L5.65236 14.8595C5.13851 14.3471 4.36773 13.8347 4.36773 12.2975C4.36773 11.2727 5.39544 9.47934 7.96469 9.47934C10.277 9.47934 13.3601 10.5041 17.4709 11.7851C21.0679 12.8099 24.9218 13.5785 26.9772 13.8347V21.7769L23.1233 25.1074V25.3636L26.9772 28.6942V39.7107C24.9218 40.9917 22.6095 41.2479 20.554 41.2479C16.7002 41.2479 13.3601 40.2231 10.5339 37.1488L21.0679 32.0248V14.3471L8.22162 19.9835C9.24932 16.6529 12.0755 14.3471 14.9017 12.8099L14.6448 12.0413C6.93699 14.0909 0 21.2645 0 29.9752C0 40.2231 8.47854 47.9091 17.9848 47.9091C28.2618 47.9091 34.9419 39.7107 34.9419 31.2562H34.428C32.8865 34.5868 30.5741 37.6612 27.748 39.1983V28.6942L31.8588 25.3636V25.1074L27.748 21.7769V13.8347C31.6018 13.8347 35.4557 11.2727 35.4557 6.40496ZM13.1032 34.5868L10.0201 36.124C8.22162 33.8182 7.19392 30.7438 7.19392 26.3884C7.19392 24.595 7.19392 22.5455 7.70777 21.0083L13.1032 18.7025V34.5868ZM40.3373 40.4793L36.9973 43.0413L37.5111 43.5537L39.0527 42.2727L44.7051 47.3967L52.4128 42.2727L52.1559 41.7603L50.1005 43.0413L47.5312 40.4793V23.0578L49.5866 21.5207L53.9544 25.1074V40.7355C53.9544 50.4711 51.899 52.0083 47.5312 53.5455V54.314C54.7251 54.5702 61.4052 52.2645 61.4052 39.7107V22.8017L63.7175 21.0083L63.2037 20.4959L61.1483 22.0331L54.7251 16.6529L47.5312 22.0331V1.02479H47.0174L38.025 7.17355V7.68595C39.0527 8.19835 40.5942 8.71074 40.5942 11.5289L40.3373 40.4793ZM87.3547 37.6612L80.9316 42.5289L74.5084 37.405V34.3306L86.5839 26.1322V25.876L80.4177 16.6529L67.0576 23.8264V40.7355L64.4883 42.7851L65.0022 43.2975L67.3145 41.5041L76.05 47.9091L87.6116 38.686L87.3547 37.6612ZM74.5084 33.3058V20.7521L75.0223 20.4959L80.6746 29.4628L74.5084 33.3058ZM136.427 4.09917C136.427 3.33058 136.171 2.56198 135.914 1.79339H135.4C134.629 3.84298 133.601 4.86777 131.032 4.86777C128.72 4.86777 127.178 3.58678 126.15 2.56198L118.7 11.0165L119.213 11.5289L121.783 9.22314C123.324 10.5041 124.609 11.5289 128.206 11.7851V33.0496L113.047 7.17355C111.763 5.12397 109.964 2.30578 106.367 2.30578C102.256 2.30578 98.6594 5.89256 99.1733 11.5289H99.9441C100.201 9.99174 100.972 8.19835 102.77 8.19835C104.055 8.19835 105.339 9.47934 106.11 10.7603V19.2149C101.486 19.2149 98.4025 21.2645 98.4025 25.1074C98.4025 27.157 99.4302 30.2314 102.513 31V30.4876C101.999 29.9752 101.743 29.4628 101.743 28.6942C101.743 27.4132 102.77 26.3884 104.569 26.3884H105.853V37.1488C100.458 37.1488 96.0902 40.2231 96.0902 45.3471C96.0902 50.2149 100.201 52.5207 104.826 52.2645V51.7521C101.999 51.4959 100.715 50.2149 100.715 48.4215C100.715 46.1157 102.256 45.0909 104.312 45.0909C106.367 45.0909 108.166 46.3719 109.45 47.9091L116.901 39.7107L116.387 39.1983L114.589 41.2479C111.763 38.686 110.221 37.9174 106.881 37.405V11.7851L127.435 47.6529H128.977V11.7851C132.831 11.5289 136.427 8.45455 136.427 4.09917ZM155.183 37.6612L148.76 42.5289L142.337 37.405V34.3306L154.412 26.1322V25.876L148.246 16.6529L134.886 23.8264V40.7355L132.317 42.7851L132.831 43.2975L135.143 41.5041L143.878 47.9091L155.44 38.686L155.183 37.6612ZM142.337 33.3058V20.7521L142.851 20.4959L148.503 29.4628L142.337 33.3058ZM197.062 19.4711L195.263 20.7521L190.382 16.6529L184.729 21.7769L187.042 24.0826V43.2975L180.876 39.4545V23.5702L182.931 22.2893L177.022 16.6529L171.369 21.7769L173.682 24.0826V42.5289L172.911 43.0413L167.515 39.1983V23.8264C167.515 20.2397 165.717 19.2149 163.662 17.9339C161.863 16.6529 160.835 15.8843 160.835 14.0909C160.835 12.5537 162.377 11.7851 163.148 11.2727V10.7603C161.092 10.7603 155.697 12.8099 155.697 17.6777C155.697 20.2397 156.982 21.2645 158.266 22.5455C159.551 23.8264 160.835 24.8512 160.835 27.157V42.0165L158.009 44.0661L158.523 44.5785L161.092 42.5289L167.002 47.6529L173.425 43.2975L180.619 47.6529L194.236 39.7107V22.5455L197.576 19.9835L197.062 19.4711ZM244.85 5.38016L242.281 7.68595L236.628 2.56198L228.15 8.71074V3.07438H227.379L227.636 44.5785C226.865 44.5785 224.553 44.0661 222.754 43.5537L222.241 8.96694C222.241 6.40496 220.442 2.81818 215.817 2.81818C211.193 2.81818 208.11 6.40496 208.11 9.99174H208.881C209.137 8.45455 209.908 7.17355 211.45 7.17355C212.991 7.17355 214.276 8.19835 214.276 11.5289V21.5207C209.651 21.7769 206.825 24.3388 206.825 27.6694C206.825 29.719 207.853 32.7934 210.936 32.7934V32.281C209.908 31.7686 209.651 31 209.651 30.4876C209.651 28.9504 210.936 28.438 212.991 28.438H214.019V44.3223C210.165 45.6033 208.624 48.4215 208.624 51.4959C208.624 55.8512 211.964 58.9256 217.102 58.9256C220.699 58.9256 223.782 58.4132 226.865 57.6446C229.435 57.1322 232.775 56.3636 234.316 56.3636C236.372 56.3636 237.142 57.3884 237.142 58.6694C237.142 60.4628 236.372 61.2314 235.344 61.4876V62C239.455 61.2314 242.024 58.6694 242.024 54.8264C242.024 50.9835 238.17 48.6777 234.059 48.6777C232.004 48.6777 227.636 49.4463 224.553 49.9587C220.956 50.7273 217.359 51.2397 216.331 51.2397C214.533 51.2397 212.477 50.4711 212.477 47.9091C212.477 45.8595 214.276 44.0661 218.644 44.0661C220.956 44.0661 223.782 44.3223 226.608 45.0909C229.691 45.8595 232.518 46.6281 235.087 46.6281C238.941 46.6281 242.281 45.3471 242.281 39.9669V8.45455L245.364 5.89256L244.85 5.38016ZM234.316 21.0083C233.545 21.7769 232.518 22.5455 231.233 22.5455C229.948 22.5455 228.664 21.7769 228.15 21.0083V9.73554L230.719 7.94215L234.316 11.2727V21.0083ZM234.316 28.6942C233.802 28.1818 232.518 27.4132 231.233 27.4132C229.948 27.4132 228.664 28.1818 228.15 28.6942V22.0331C228.664 22.5455 229.948 23.314 231.233 23.314C232.518 23.314 233.802 22.5455 234.316 22.0331V28.6942ZM234.316 40.7355C234.316 42.7851 233.031 44.8347 230.205 44.8347H228.15V29.719C228.664 29.2066 229.948 28.438 231.233 28.438C232.518 28.438 233.545 29.2066 234.316 29.719V40.7355ZM269.515 22.5455L261.293 16.6529L248.704 23.8264V40.4793L246.135 42.5289L246.392 43.0413L248.447 41.5041L256.669 47.6529L269.515 39.9669V22.5455ZM255.641 38.686V20.2397L262.064 24.8512V43.0413L255.641 38.686ZM293.923 17.1653H293.409C292.638 17.6777 291.867 18.1901 291.097 18.1901C290.069 18.1901 288.784 17.6777 288.271 16.9091H287.757L283.389 21.7769L279.021 16.9091L271.313 22.0331L271.57 22.5455L273.626 21.2645L276.195 24.0826V40.2231L272.855 42.7851L273.369 43.2975L274.91 42.0165L281.077 47.1405L289.041 41.7603L288.784 41.2479L286.472 42.5289L283.389 39.9669V22.0331C284.674 23.314 286.215 24.595 288.014 24.595C291.611 24.8512 293.666 21.2645 293.923 17.1653ZM324.754 41.7603L316.018 47.6529L304.2 29.719L312.678 16.6529H313.192C314.22 17.6777 315.762 18.7025 317.56 18.7025C319.358 18.7025 320.643 17.6777 321.414 16.6529H321.928C321.671 21.7769 318.074 24.8512 315.505 24.8512C312.935 24.8512 311.651 23.5702 310.109 22.8017L309.338 24.0826L322.185 43.0413L324.754 41.5041V41.7603ZM296.492 40.4793L293.152 43.0413L293.666 43.5537L295.207 42.2727L300.86 47.3967L308.568 42.2727L308.054 41.7603L305.998 43.0413L303.429 40.4793V1.02479H303.172L293.923 7.17355V7.68595C294.951 8.19835 296.492 8.45455 296.492 11.5289V40.4793ZM367.404 6.40496C367.404 1.28099 362.522 0 358.668 0V0.768595C360.98 0.768595 362.779 1.53719 362.779 3.33058C362.779 4.35537 362.008 5.89256 359.696 5.89256C357.897 5.89256 354.043 4.86777 351.217 3.84298C347.877 2.81818 344.794 1.79339 342.225 1.79339C337.086 1.79339 333.489 5.63636 333.489 9.99174C333.489 13.8347 336.316 15.1157 337.343 15.6281L337.6 15.1157C336.829 14.6033 336.059 14.0909 336.059 12.5537C336.059 11.5289 337.086 9.73554 339.656 9.73554C341.968 9.73554 345.051 10.7603 349.162 12.0413C352.759 13.0661 356.613 13.8347 358.668 14.0909V22.0331L354.814 25.3636V25.6198L358.668 28.9504V39.9669C356.613 41.2479 354.3 41.5041 352.245 41.5041C348.391 41.5041 345.051 40.4793 342.225 37.405L352.759 32.281V14.3471L339.913 19.9835C341.197 16.6529 344.023 14.3471 346.593 12.5537L346.336 12.0413C338.628 14.0909 331.691 21.0083 331.691 29.719C331.691 39.9669 340.169 47.6529 349.676 47.6529C359.953 47.6529 366.633 39.4545 366.633 31H366.119C364.577 34.3306 362.265 37.405 359.439 38.9422V28.438L363.55 25.1074V24.8512L359.696 21.5207V13.8347C363.55 13.8347 367.404 11.2727 367.404 6.40496ZM345.051 34.5868L341.968 36.124C340.169 33.8182 339.142 30.7438 339.142 26.3884C339.142 24.595 339.399 22.5455 339.913 21.0083L345.308 18.7025L345.051 34.5868ZM376.396 3.84298H376.139L371.001 8.19835V8.45455L375.368 13.3223H375.882L381.021 8.96694V8.71074L376.396 3.84298ZM384.104 41.7603L382.048 43.0413L379.479 40.4793V22.8017L382.048 21.0083L381.534 20.4959L379.736 22.0331L375.111 16.6529L367.661 21.7769L368.174 22.5455L369.973 21.2645L372.285 24.0826V40.7355L368.945 43.2975L369.202 43.8099L371.001 42.5289L376.653 47.6529L384.361 42.5289L384.104 41.7603ZM427.01 41.5041L425.212 42.7851L422.386 40.2231V22.8017L424.955 20.7521L424.441 20.2397L422.386 22.0331L416.476 16.6529L408.769 22.0331L402.859 16.6529L395.665 22.0331L391.041 16.6529L383.59 21.7769L383.847 22.5455L385.645 21.2645L388.215 24.0826V40.7355L386.159 42.7851L392.068 47.6529L397.721 42.5289L395.408 40.2231V22.8017L397.721 21.2645L401.575 24.8512V40.2231L399.519 42.2727L405.429 47.1405L411.081 42.0165L408.769 39.7107V22.8017L410.824 21.5207L414.935 25.1074V40.4793L413.136 42.2727L419.046 47.6529L427.01 42.2727V41.5041ZM449.363 37.6612L442.94 42.5289L436.517 37.405V34.3306L448.592 26.1322V25.876L442.426 16.6529L429.066 23.8264V41.2479L438.058 47.6529L449.62 38.4297L449.363 37.6612ZM436.517 33.3058V20.7521L437.03 20.4959L442.683 29.4628L436.517 33.3058ZM472.743 31L467.862 27.157C471.202 24.3388 472.486 20.4959 472.486 17.9339V16.3967H471.972C471.458 17.6777 470.431 18.9587 468.375 18.9587C466.32 18.9587 465.035 17.9339 463.751 16.3967L452.189 22.8017V32.0248L456.557 35.3554C452.189 39.1983 451.418 41.7603 451.418 43.8099C451.418 46.3719 452.703 48.1653 454.758 48.9339L455.015 48.4215C454.501 47.9091 453.987 47.6529 453.987 46.3719C453.987 45.6033 455.015 44.3223 457.071 44.3223C459.64 44.3223 461.181 46.1157 461.952 46.8843L473 40.2231V31H472.743ZM469.917 23.314C468.118 26.3884 464.265 29.4628 461.952 31L459.126 28.6942V19.7273C460.154 22.2893 462.98 24.3388 465.806 24.3388C467.605 24.3388 468.632 24.0826 469.917 23.314ZM465.549 43.8099C464.265 40.9917 461.181 38.9422 458.098 38.9422C457.328 38.9422 455.272 38.9422 453.217 40.2231C454.501 38.1736 457.841 34.5868 462.209 32.0248L465.292 34.5868L465.549 43.8099Z" fill="#666565"/>
</svg>
