<svg width="186" height="558" viewBox="0 0 186 558" fill="none" xmlns="http://www.w3.org/2000/svg">
<path d="M-58.4297 41.5061C-58.4297 41.5061 16.8543 58.172 42.2362 27.0432C67.6182 -4.08569 92.234 -1.88272 104.877 6.06711C117.52 14.0169 150.086 19.4765 156.982 31.7364C163.878 43.9964 165.698 52.042 156.982 69.7615C148.266 87.481 159.281 95.1435 152.289 111.043C145.297 126.943 141.657 128.858 137.826 140.735C133.995 152.612 127.003 177.707 134.186 191.404C141.465 205.196 142.136 228.375 131.983 250.022C121.83 271.764 98.364 283.737 123.267 323.965C148.17 364.193 174.893 410.934 178.916 422.811C190.505 456.43 184.663 478.938 163.399 499.34C140.603 521.369 102.961 494.551 84.8588 493.306C37.0641 490.049 27.2944 557 27.2944 557" stroke="#B7B7B7" stroke-width="1.3" stroke-miterlimit="10"/>
<path d="M-54.1172 58.172C-54.1172 58.172 -26.628 79.9143 4.59663 77.1366C35.8213 74.359 61.1075 52.4251 94.7267 54.9154C128.346 57.4057 118.385 84.2244 113.979 99.7409C109.573 115.257 119.151 123.59 104.496 146.195C89.8418 168.799 83.0414 168.703 90.4165 183.166C97.7917 197.533 115.894 207.303 107.274 227.992C98.5579 248.585 75.4747 262.186 80.6468 287.951C85.819 313.716 93.6731 329.232 114.553 360.744C135.434 392.256 159.666 434.304 144.724 458.441C129.783 482.578 73.3675 457.866 51.9125 473.096C30.4575 488.325 18.4849 516.58 18.4849 516.58" stroke="#B7B7B7" stroke-width="1.3" stroke-miterlimit="10"/>
<path d="M-56.3203 70.1445C-56.3203 70.1445 -18.1994 93.8025 -5.74789 112.192C6.70366 130.582 36.3 91.3122 53.7322 83.937C71.1643 76.5619 97.983 70.0488 97.2168 88.5345C96.3548 107.02 95.5885 127.326 86.3935 140.352C77.1985 153.378 59.4791 159.604 64.3639 180.772C69.2487 201.939 88.5007 216.307 75.1871 242.359C61.8736 268.411 54.3069 286.323 64.8428 306.724C75.4745 327.125 116.66 388.138 124.035 405.57C131.411 422.906 128.92 451.736 104.209 451.449C79.4973 451.162 45.0161 438.136 12.1632 490.815" stroke="#B7B7B7" stroke-width="1.3" stroke-miterlimit="10"/>
<path d="M55.5526 106.926C43.7715 112.385 28.7339 123.4 43.9631 132.978C59.1923 142.557 72.4101 131.159 77.7738 119.186C83.2333 107.213 86.2983 89.6854 74.5172 91.1221C62.7362 92.5588 67.3337 101.466 55.5526 106.926Z" stroke="#B7B7B7" stroke-width="1.3" stroke-miterlimit="10"/>
<path d="M-58.4297 80.5898C-58.4297 80.5898 -22.7991 108.079 -16.286 123.021C-9.77289 137.963 -1.6315 140.453 10.0538 133.844C23.6547 126.277 24.421 145.242 37.543 147.445C52.6764 149.935 51.0481 165.643 51.3355 180.585C51.6228 195.527 65.7984 221.484 56.795 234.606C41.8531 256.348 31.3172 273.972 45.397 302.994C54.4962 321.767 48.7494 344.85 33.6159 361.899C18.4825 378.948 26.3366 400.594 31.2214 414.291C39.8417 438.428 17.3332 457.201 2.48709 468.599" stroke="#B7B7B7" stroke-width="1.3" stroke-miterlimit="10"/>
<path d="M-58.4297 91.0273C-58.4297 91.0273 -26.343 132.596 -16.286 148.304C-6.22899 164.013 18.7699 152.136 28.2522 163.821C37.7345 175.506 28.8269 197.44 35.8189 209.413C42.8109 221.385 29.4016 238.051 25.7619 249.641C14.9386 283.835 31.1256 308.163 31.7003 317.55C33.6159 346.571 7.27614 355.287 8.32974 374.539C9.38333 393.791 -6.99524 439 -17.2438 450.685" stroke="#B7B7B7" stroke-width="1.3" stroke-miterlimit="10"/>
<path d="M-7.09016 174.93C4.69091 169.95 16.7593 171.099 20.8779 186.903C24.9965 202.707 21.1653 212.381 13.3112 218.128C5.45716 223.875 -38.0275 217.553 -32.8553 199.929C-27.6831 182.306 -21.17 180.869 -7.09016 174.93Z" stroke="#B7B7B7" stroke-width="1.3" stroke-miterlimit="10"/>
<path d="M-18.4856 190.926C-15.3249 186.52 1.43683 179.049 8.1415 184.988C13.4095 189.585 13.8884 205.389 8.23728 209.316C2.68198 213.243 -11.4936 209.029 -17.6236 205.581C-23.7536 202.133 -22.5085 196.577 -18.4856 190.926Z" stroke="#B7B7B7" stroke-width="1.3" stroke-miterlimit="10"/>
<path d="M-7.37403 194.662C-8.81074 196.673 -4.40481 206.73 1.15049 202.037C6.7058 197.344 -1.53138 186.425 -7.37403 194.662Z" stroke="#B7B7B7" stroke-width="1.3" stroke-miterlimit="10"/>
<path d="M-61.3984 109.227C-54.8853 117.56 -28.8329 152.999 -30.2696 163.918C-31.7063 174.837 -54.1191 195.43 -42.5296 213.915C-30.94 232.401 -4.69603 225.122 2.96646 242.458C10.629 259.794 2.67913 281.537 8.80912 302.225C14.9391 322.818 -4.02555 347.817 -7.76101 364.483C-11.4965 381.149 -13.3163 415.439 -18.3927 424.921" stroke="#B7B7B7" stroke-width="1.3" stroke-miterlimit="10"/>
</svg>
