<svg width="531" height="55" viewBox="0 0 531 55" fill="none" xmlns="http://www.w3.org/2000/svg">
<path d="M58.8772 7.6179H57.8356V11.4266H58.8772V7.6179Z" fill="#D0AF83"/>
<path d="M66.0981 29.9797L65.4304 29.2632C66.7657 28.2828 67.7672 27.0006 68.4349 25.5677L69.3946 25.9448C68.6852 27.4909 67.5586 28.8861 66.0981 29.9797Z" fill="#D0AF83"/>
<path d="M58.3365 32.5439C56.7509 32.5439 55.2486 32.28 53.8298 31.752L54.2054 30.8847C57.043 31.9406 60.2978 31.8275 63.0936 30.6208L63.5526 31.4881C61.9252 32.2046 60.1726 32.5439 58.3365 32.5439Z" fill="#D0AF83"/>
<path d="M48.6554 43.1779L45.5675 42.1598L55.4571 16.3288L56.4586 16.6304L46.8611 41.5941L48.0712 41.9712L57.8774 19.3078L58.8372 19.6849L48.6554 43.1779Z" fill="#D0AF83"/>
<path d="M46.8661 42.1583L45.5779 45.4257L46.5588 45.7425L47.847 42.4752L46.8661 42.1583Z" fill="#D0AF83"/>
<path d="M58.3364 19.949C56.6673 19.949 55.2902 18.7046 55.2902 17.1962C55.2902 15.6878 56.6673 14.4434 58.3364 14.4434C60.0056 14.4434 61.3826 15.6878 61.3826 17.1962C61.3826 18.7423 60.0056 19.949 58.3364 19.949ZM58.3364 15.4238C57.2515 15.4238 56.3335 16.2157 56.3335 17.2339C56.3335 18.252 57.2098 19.0439 58.3364 19.0439C59.4631 19.0439 60.3394 18.252 60.3394 17.2339C60.3394 16.2157 59.4631 15.4238 58.3364 15.4238Z" fill="#D0AF83"/>
<path d="M53.621 21.7968C52.2022 20.6278 51.4094 18.9686 51.4094 17.2339C51.4094 13.8024 54.4973 10.9742 58.3363 10.9742C62.1336 10.9742 65.2632 13.7647 65.2632 17.2339C65.2632 18.9686 64.4704 20.6278 63.0516 21.7968L62.3422 21.118C63.5106 20.0999 64.22 18.7046 64.22 17.2339C64.22 14.3303 61.5911 11.9169 58.3363 11.9169C55.0815 11.9169 52.4526 14.2926 52.4526 17.2339C52.4526 18.7423 53.1202 20.0999 54.3304 21.118L53.621 21.7968Z" fill="#D0AF83"/>
<path d="M58.3364 19.949C56.6673 19.949 55.2902 18.7046 55.2902 17.1962C55.2902 15.6878 56.6673 14.4434 58.3364 14.4434C60.0056 14.4434 61.3826 15.6878 61.3826 17.1962C61.3826 18.7423 60.0056 19.949 58.3364 19.949ZM58.3364 15.4238C57.2515 15.4238 56.3335 16.2157 56.3335 17.2339C56.3335 18.252 57.2098 19.0439 58.3364 19.0439C59.4631 19.0439 60.3394 18.252 60.3394 17.2339C60.3394 16.2157 59.4631 15.4238 58.3364 15.4238Z" fill="#D0AF83"/>
<path d="M68.0174 43.1779L67.8505 42.7631L57.8774 19.6849L58.8372 19.3078L68.6016 41.9712L69.8117 41.5941L60.2142 16.6304L61.2157 16.3288L71.147 42.1598L68.0174 43.1779Z" fill="#D0AF83"/>
<path d="M69.8034 42.1807L68.8223 42.497L70.1082 45.7651L71.0892 45.4488L69.8034 42.1807Z" fill="#D0AF83"/>
<path d="M530.461 54.0039L0 54V0L530.461 0.00390625V54.0039ZM1.4605 52.6802L529 52.6841V1.32374L1.4605 1.31983V52.6802Z" fill="#D0AF83"/>
<path d="M116.128 6.29883H114.67V47.6661H116.128V6.29883Z" fill="#D0AF83"/>
<path d="M143.24 37.3403C141.624 37.3403 140.208 36.9803 138.992 36.2603C137.792 35.5243 136.856 34.5003 136.184 33.1883C135.528 31.8763 135.2 30.3403 135.2 28.5803C135.2 27.2843 135.384 26.1003 135.752 25.0283C136.12 23.9563 136.64 23.0363 137.312 22.2683C137.984 21.5003 138.784 20.9083 139.712 20.4923C140.656 20.0763 141.696 19.8683 142.832 19.8683C143.664 19.8683 144.416 19.9963 145.088 20.2523C145.76 20.4923 146.336 20.8523 146.816 21.3323L147.056 19.8203H148.232L149.168 25.4123L147.872 25.7003C147.552 24.6763 147.16 23.8523 146.696 23.2283C146.248 22.5883 145.712 22.1243 145.088 21.8363C144.464 21.5323 143.728 21.3803 142.88 21.3803C141.776 21.3803 140.84 21.6523 140.072 22.1963C139.32 22.7403 138.744 23.5483 138.344 24.6203C137.96 25.6763 137.768 26.9883 137.768 28.5563C137.768 29.6123 137.904 30.5803 138.176 31.4603C138.448 32.3243 138.832 33.0763 139.328 33.7163C139.84 34.3403 140.448 34.8283 141.152 35.1803C141.856 35.5163 142.632 35.6843 143.48 35.6843C144.184 35.6843 144.816 35.5963 145.376 35.4203C145.952 35.2283 146.48 34.9323 146.96 34.5323C147.456 34.1323 147.92 33.6203 148.352 32.9963L149.48 33.8123C149.16 34.3563 148.776 34.8443 148.328 35.2763C147.88 35.7083 147.384 36.0843 146.84 36.4043C146.296 36.7083 145.72 36.9403 145.112 37.1003C144.504 37.2603 143.88 37.3403 143.24 37.3403Z" fill="#666565"/>
<path d="M156.672 37.0043V35.8523L157.824 35.6603C158.112 35.5963 158.32 35.4923 158.448 35.3483C158.592 35.1883 158.752 34.8603 158.928 34.3643L163.992 20.2043H166.536L171.552 34.3883C171.712 34.7883 171.84 35.0683 171.936 35.2283C172.048 35.3883 172.272 35.5083 172.608 35.5883L173.592 35.8043V37.0043H167.184V35.8523L168.576 35.6843C168.896 35.6363 169.088 35.5243 169.152 35.3483C169.232 35.1723 169.2 34.8843 169.056 34.4843L168 31.4603H161.568L160.56 34.3883C160.448 34.7083 160.408 34.9883 160.44 35.2283C160.472 35.4523 160.696 35.5963 161.112 35.6603L162.48 35.8763V37.0043H156.672ZM162.048 30.0923H167.544L164.88 22.1963H164.784L162.048 30.0923Z" fill="#666565"/>
<path d="M182.424 37.0043V35.8523L183.912 35.6363C184.216 35.5883 184.416 35.4843 184.512 35.3243C184.608 35.1643 184.656 34.8603 184.656 34.4123V29.9723L180.168 22.8203C179.96 22.4843 179.76 22.2123 179.568 22.0043C179.376 21.7963 179.096 21.6603 178.728 21.5963L177.84 21.4283V20.2043H184.536V21.3563L183.216 21.5243C182.864 21.5723 182.64 21.7003 182.544 21.9083C182.464 22.1003 182.528 22.3723 182.736 22.7243L186.264 28.4123H186.384L189.72 22.8443C189.928 22.5083 190 22.2363 189.936 22.0283C189.872 21.8203 189.656 21.6763 189.288 21.5963L188.184 21.3323V20.2043H193.968V21.3563L192.792 21.5483C192.536 21.5963 192.32 21.7003 192.144 21.8603C191.984 22.0203 191.744 22.3563 191.424 22.8683L187.032 29.9963V34.5083C187.032 34.9083 187.08 35.1883 187.176 35.3483C187.288 35.4923 187.496 35.5883 187.8 35.6363L189.264 35.8523V37.0043H182.424Z" fill="#666565"/>
<path d="M201.842 37.0043V35.8523L203.21 35.6363C203.546 35.5883 203.746 35.4683 203.81 35.2763C203.89 35.0683 203.938 34.7803 203.954 34.4123L204.65 22.7003C204.682 22.3003 204.642 22.0283 204.53 21.8843C204.434 21.7243 204.226 21.6203 203.906 21.5723L202.562 21.3563V20.2043H208.13L212.234 32.3723L212.33 32.1323L216.626 20.2043H222.17V21.3563L220.658 21.5723C220.37 21.6043 220.178 21.7003 220.082 21.8603C219.986 22.0203 219.946 22.3323 219.962 22.7963L220.634 34.5083C220.65 34.9243 220.714 35.2123 220.826 35.3723C220.938 35.5163 221.138 35.6043 221.426 35.6363L222.89 35.8523V37.0043H216.05V35.8523L217.538 35.6363C217.842 35.5883 218.042 35.4843 218.138 35.3243C218.25 35.1643 218.29 34.8603 218.258 34.4123L217.562 22.2683V22.0763L213.074 34.2923H210.674L206.354 22.0523V22.2443L205.634 34.5083C205.618 34.8123 205.642 35.0603 205.706 35.2523C205.77 35.4443 206.002 35.5723 206.402 35.6363L207.746 35.8523V37.0043H201.842Z" fill="#666565"/>
<path d="M230.688 37.0043V35.8523L231.84 35.6603C232.128 35.5963 232.336 35.4923 232.464 35.3483C232.608 35.1883 232.768 34.8603 232.944 34.3643L238.008 20.2043H240.552L245.568 34.3883C245.728 34.7883 245.856 35.0683 245.952 35.2283C246.064 35.3883 246.288 35.5083 246.624 35.5883L247.608 35.8043V37.0043H241.2V35.8523L242.592 35.6843C242.912 35.6363 243.104 35.5243 243.168 35.3483C243.248 35.1723 243.216 34.8843 243.072 34.4843L242.016 31.4603H235.584L234.576 34.3883C234.464 34.7083 234.424 34.9883 234.456 35.2283C234.488 35.4523 234.712 35.5963 235.128 35.6603L236.496 35.8763V37.0043H230.688ZM236.064 30.0923H241.56L238.896 22.1963H238.8L236.064 30.0923Z" fill="#666565"/>
<path d="M255.464 37.0043V35.8523L256.856 35.6363C257.144 35.5883 257.336 35.4843 257.432 35.3243C257.528 35.1483 257.576 34.8443 257.576 34.4123V22.7003C257.576 22.3003 257.528 22.0283 257.432 21.8843C257.336 21.7243 257.128 21.6203 256.808 21.5723L255.464 21.3563V20.2043H260.792L268.76 33.9083V22.7003C268.76 22.3003 268.704 22.0283 268.592 21.8843C268.496 21.7243 268.288 21.6203 267.968 21.5723L266.648 21.3563V20.2043H272.528V21.3563L271.16 21.5723C270.856 21.6203 270.656 21.7243 270.56 21.8843C270.464 22.0443 270.416 22.3483 270.416 22.7963V37.0043H267.944L259.256 22.3883V34.5083C259.256 34.9083 259.304 35.1883 259.4 35.3483C259.512 35.4923 259.72 35.5883 260.024 35.6363L261.368 35.8523V37.0043H255.464Z" fill="#666565"/>
<path d="M300.06 37.3403C298.444 37.3403 297.028 36.9803 295.812 36.2603C294.612 35.5243 293.676 34.5003 293.004 33.1883C292.348 31.8763 292.02 30.3403 292.02 28.5803C292.02 27.2843 292.204 26.1003 292.572 25.0283C292.94 23.9563 293.46 23.0363 294.132 22.2683C294.804 21.5003 295.604 20.9083 296.532 20.4923C297.476 20.0763 298.516 19.8683 299.652 19.8683C300.484 19.8683 301.236 19.9963 301.908 20.2523C302.58 20.4923 303.156 20.8523 303.636 21.3323L303.876 19.8203H305.052L305.988 25.4123L304.692 25.7003C304.372 24.6763 303.98 23.8523 303.516 23.2283C303.068 22.5883 302.532 22.1243 301.908 21.8363C301.284 21.5323 300.548 21.3803 299.7 21.3803C298.596 21.3803 297.66 21.6523 296.892 22.1963C296.14 22.7403 295.564 23.5483 295.164 24.6203C294.78 25.6763 294.588 26.9883 294.588 28.5563C294.588 29.6123 294.724 30.5803 294.996 31.4603C295.268 32.3243 295.652 33.0763 296.148 33.7163C296.66 34.3403 297.268 34.8283 297.972 35.1803C298.676 35.5163 299.452 35.6843 300.3 35.6843C301.004 35.6843 301.636 35.5963 302.196 35.4203C302.772 35.2283 303.3 34.9323 303.78 34.5323C304.276 34.1323 304.74 33.6203 305.172 32.9963L306.3 33.8123C305.98 34.3563 305.596 34.8443 305.148 35.2763C304.7 35.7083 304.204 36.0843 303.66 36.4043C303.116 36.7083 302.54 36.9403 301.932 37.1003C301.324 37.2603 300.7 37.3403 300.06 37.3403Z" fill="#666565"/>
<path d="M322.439 37.3403C320.871 37.3403 319.495 36.9883 318.311 36.2843C317.127 35.5803 316.207 34.6043 315.551 33.3563C314.895 32.0923 314.567 30.6203 314.567 28.9403C314.567 27.0843 314.895 25.4843 315.551 24.1403C316.223 22.7803 317.159 21.7323 318.359 20.9963C319.575 20.2443 321.007 19.8683 322.655 19.8683C324.207 19.8683 325.559 20.2123 326.711 20.9003C327.879 21.5883 328.783 22.5563 329.423 23.8043C330.079 25.0523 330.407 26.5083 330.407 28.1723C330.407 29.5323 330.215 30.7803 329.831 31.9163C329.447 33.0363 328.903 34.0043 328.199 34.8203C327.495 35.6203 326.655 36.2443 325.679 36.6923C324.703 37.1243 323.623 37.3403 322.439 37.3403ZM322.727 35.7323C323.559 35.7323 324.287 35.5803 324.911 35.2763C325.551 34.9723 326.079 34.5243 326.495 33.9323C326.927 33.3243 327.247 32.5803 327.455 31.7003C327.679 30.8043 327.791 29.7803 327.791 28.6283C327.791 27.4923 327.663 26.4843 327.407 25.6043C327.167 24.7083 326.815 23.9483 326.351 23.3243C325.887 22.7003 325.319 22.2283 324.647 21.9083C323.975 21.5723 323.207 21.4043 322.343 21.4043C321.511 21.4043 320.767 21.5643 320.111 21.8843C319.471 22.1883 318.927 22.6443 318.479 23.2523C318.031 23.8443 317.687 24.5803 317.447 25.4603C317.223 26.3243 317.111 27.3163 317.111 28.4363C317.111 29.5563 317.239 30.5643 317.495 31.4603C317.751 32.3563 318.127 33.1243 318.623 33.7643C319.119 34.4043 319.711 34.8923 320.399 35.2283C321.087 35.5643 321.863 35.7323 322.727 35.7323Z" fill="#666565"/>
<path d="M339.089 37.0043V35.8523L340.481 35.6363C340.785 35.5883 340.985 35.4843 341.081 35.3243C341.177 35.1643 341.225 34.8603 341.225 34.4123V22.7003C341.225 22.3003 341.169 22.0283 341.057 21.8843C340.961 21.7243 340.753 21.6203 340.433 21.5723L339.089 21.3563V20.2043H345.953V21.3563L344.369 21.5963C344.065 21.6443 343.857 21.7403 343.745 21.8843C343.649 22.0123 343.601 22.2843 343.601 22.7003V35.6843H346.313C346.857 35.6843 347.313 35.6363 347.681 35.5403C348.065 35.4283 348.393 35.2363 348.665 34.9643C348.953 34.6763 349.209 34.2843 349.433 33.7883C349.657 33.2923 349.889 32.6523 350.129 31.8683H351.449L350.849 37.0043H339.089Z" fill="#666565"/>
<path d="M360.371 37.0043V35.8523L361.763 35.6363C362.067 35.5883 362.267 35.4843 362.363 35.3243C362.459 35.1643 362.507 34.8603 362.507 34.4123V22.7003C362.507 22.3003 362.451 22.0283 362.339 21.8843C362.243 21.7243 362.035 21.6203 361.715 21.5723L360.371 21.3563V20.2043H367.235V21.3563L365.651 21.5963C365.347 21.6443 365.139 21.7403 365.027 21.8843C364.931 22.0123 364.883 22.2843 364.883 22.7003V35.6843H367.595C368.139 35.6843 368.595 35.6363 368.963 35.5403C369.347 35.4283 369.675 35.2363 369.947 34.9643C370.235 34.6763 370.491 34.2843 370.715 33.7883C370.939 33.2923 371.171 32.6523 371.411 31.8683H372.731L372.131 37.0043H360.371Z" fill="#666565"/>
<path d="M381.652 37.0043V35.8523L383.044 35.6363C383.348 35.5883 383.548 35.4843 383.644 35.3243C383.74 35.1643 383.788 34.8603 383.788 34.4123V22.7003C383.788 22.2843 383.732 22.0043 383.62 21.8603C383.524 21.7163 383.316 21.6203 382.996 21.5723L381.652 21.3563V20.2043H392.764L393.652 24.1163L392.404 24.5243C392.164 23.8843 391.932 23.3723 391.708 22.9883C391.484 22.5883 391.236 22.2843 390.964 22.0763C390.692 21.8523 390.356 21.7003 389.956 21.6203C389.556 21.5403 389.068 21.5003 388.492 21.5003H386.164V27.7163H388.252C388.828 27.7163 389.244 27.6843 389.5 27.6203C389.772 27.5403 389.964 27.3643 390.076 27.0923C390.204 26.8203 390.34 26.3723 390.484 25.7483L391.588 25.6043V31.0523L390.484 31.2443C390.388 30.6203 390.276 30.1643 390.148 29.8763C390.036 29.5883 389.836 29.4043 389.548 29.3243C389.26 29.2443 388.828 29.2043 388.252 29.2043H386.164V35.7083H389.26C389.836 35.7083 390.316 35.6683 390.7 35.5883C391.084 35.4923 391.404 35.3403 391.66 35.1323C391.932 34.9083 392.156 34.5883 392.332 34.1723C392.524 33.7563 392.7 33.2283 392.86 32.5883H394.18L393.604 37.0043H381.652Z" fill="#666565"/>
<path d="M410.685 37.3403C409.069 37.3403 407.653 36.9803 406.437 36.2603C405.237 35.5243 404.301 34.5003 403.629 33.1883C402.973 31.8763 402.645 30.3403 402.645 28.5803C402.645 27.2843 402.829 26.1003 403.197 25.0283C403.565 23.9563 404.085 23.0363 404.757 22.2683C405.429 21.5003 406.229 20.9083 407.157 20.4923C408.101 20.0763 409.141 19.8683 410.277 19.8683C411.109 19.8683 411.861 19.9963 412.533 20.2523C413.205 20.4923 413.781 20.8523 414.261 21.3323L414.501 19.8203H415.677L416.613 25.4123L415.317 25.7003C414.997 24.6763 414.605 23.8523 414.141 23.2283C413.693 22.5883 413.157 22.1243 412.533 21.8363C411.909 21.5323 411.173 21.3803 410.325 21.3803C409.221 21.3803 408.285 21.6523 407.517 22.1963C406.765 22.7403 406.189 23.5483 405.789 24.6203C405.405 25.6763 405.213 26.9883 405.213 28.5563C405.213 29.6123 405.349 30.5803 405.621 31.4603C405.893 32.3243 406.277 33.0763 406.773 33.7163C407.285 34.3403 407.893 34.8283 408.597 35.1803C409.301 35.5163 410.077 35.6843 410.925 35.6843C411.629 35.6843 412.261 35.5963 412.821 35.4203C413.397 35.2283 413.925 34.9323 414.405 34.5323C414.901 34.1323 415.365 33.6203 415.797 32.9963L416.925 33.8123C416.605 34.3563 416.221 34.8443 415.773 35.2763C415.325 35.7083 414.829 36.0843 414.285 36.4043C413.741 36.7083 413.165 36.9403 412.557 37.1003C411.949 37.2603 411.325 37.3403 410.685 37.3403Z" fill="#666565"/>
<path d="M428.585 37.0043V35.8523L430.505 35.5643C430.809 35.5163 431.017 35.4043 431.129 35.2283C431.241 35.0523 431.297 34.7643 431.297 34.3643V21.5243H429.977C429.385 21.5243 428.889 21.5723 428.489 21.6683C428.089 21.7643 427.745 21.9483 427.457 22.2203C427.169 22.4923 426.905 22.8763 426.665 23.3723C426.441 23.8683 426.193 24.5163 425.921 25.3163L424.625 25.0043L425.561 20.2043H439.433L440.321 25.0043L439.001 25.3163C438.745 24.5163 438.497 23.8683 438.257 23.3723C438.033 22.8763 437.777 22.4923 437.489 22.2203C437.217 21.9483 436.881 21.7643 436.481 21.6683C436.081 21.5723 435.593 21.5243 435.017 21.5243H433.673V34.4603C433.673 34.8443 433.721 35.1163 433.817 35.2763C433.929 35.4203 434.153 35.5163 434.489 35.5643L436.385 35.8523V37.0043H428.585Z" fill="#666565"/>
<path d="M448.824 37.0043V35.8523L450.312 35.6363C450.616 35.5883 450.816 35.4843 450.912 35.3243C451.008 35.1643 451.056 34.8603 451.056 34.4123V22.7003C451.056 22.2843 451 22.0043 450.888 21.8603C450.792 21.7163 450.584 21.6203 450.264 21.5723L448.824 21.3563V20.2043H455.664V21.3563L454.152 21.5723C453.864 21.6043 453.672 21.7083 453.576 21.8843C453.48 22.0603 453.432 22.3643 453.432 22.7963V34.5083C453.432 34.9083 453.48 35.1883 453.576 35.3483C453.688 35.4923 453.896 35.5883 454.2 35.6363L455.664 35.8523V37.0043H448.824Z" fill="#666565"/>
<path d="M472.228 37.3403C470.66 37.3403 469.284 36.9883 468.1 36.2843C466.916 35.5803 465.996 34.6043 465.34 33.3563C464.684 32.0923 464.356 30.6203 464.356 28.9403C464.356 27.0843 464.684 25.4843 465.34 24.1403C466.012 22.7803 466.948 21.7323 468.148 20.9963C469.364 20.2443 470.796 19.8683 472.444 19.8683C473.996 19.8683 475.348 20.2123 476.5 20.9003C477.668 21.5883 478.572 22.5563 479.212 23.8043C479.868 25.0523 480.196 26.5083 480.196 28.1723C480.196 29.5323 480.004 30.7803 479.62 31.9163C479.236 33.0363 478.692 34.0043 477.988 34.8203C477.284 35.6203 476.444 36.2443 475.468 36.6923C474.492 37.1243 473.412 37.3403 472.228 37.3403ZM472.516 35.7323C473.348 35.7323 474.076 35.5803 474.7 35.2763C475.34 34.9723 475.868 34.5243 476.284 33.9323C476.716 33.3243 477.036 32.5803 477.244 31.7003C477.468 30.8043 477.58 29.7803 477.58 28.6283C477.58 27.4923 477.452 26.4843 477.196 25.6043C476.956 24.7083 476.604 23.9483 476.14 23.3243C475.676 22.7003 475.108 22.2283 474.436 21.9083C473.764 21.5723 472.996 21.4043 472.132 21.4043C471.3 21.4043 470.556 21.5643 469.9 21.8843C469.26 22.1883 468.716 22.6443 468.268 23.2523C467.82 23.8443 467.476 24.5803 467.236 25.4603C467.012 26.3243 466.9 27.3163 466.9 28.4363C466.9 29.5563 467.028 30.5643 467.284 31.4603C467.54 32.3563 467.916 33.1243 468.412 33.7643C468.908 34.4043 469.5 34.8923 470.188 35.2283C470.876 35.5643 471.652 35.7323 472.516 35.7323Z" fill="#666565"/>
<path d="M488.878 37.0043V35.8523L490.27 35.6363C490.558 35.5883 490.75 35.4843 490.846 35.3243C490.942 35.1483 490.99 34.8443 490.99 34.4123V22.7003C490.99 22.3003 490.942 22.0283 490.846 21.8843C490.75 21.7243 490.542 21.6203 490.222 21.5723L488.878 21.3563V20.2043H494.206L502.174 33.9083V22.7003C502.174 22.3003 502.118 22.0283 502.006 21.8843C501.91 21.7243 501.702 21.6203 501.382 21.5723L500.062 21.3563V20.2043H505.942V21.3563L504.574 21.5723C504.27 21.6203 504.07 21.7243 503.974 21.8843C503.878 22.0443 503.83 22.3483 503.83 22.7963V37.0043H501.358L492.67 22.3883V34.5083C492.67 34.9083 492.718 35.1883 492.814 35.3483C492.926 35.4923 493.134 35.5883 493.438 35.6363L494.782 35.8523V37.0043H488.878Z" fill="#666565"/>
<path d="M17.9358 37.0043V35.8523L20.0958 35.4923C20.4318 35.4283 20.6478 35.3083 20.7438 35.1323C20.8398 34.9403 20.8878 34.6683 20.8878 34.3163V23.4923C20.8878 23.0283 20.8398 22.6923 20.7438 22.4843C20.6638 22.2603 20.3678 22.1243 19.8558 22.0763L17.8398 21.8843L17.9838 20.7563L22.9998 19.9163L23.2638 20.1803V34.3883C23.2638 34.7563 23.3118 35.0203 23.4078 35.1803C23.5038 35.3243 23.7278 35.4283 24.0798 35.4923L26.1678 35.8523V37.0043H17.9358Z" fill="#666565"/>
<path d="M35.1493 37.3403C34.2693 37.3403 33.3893 37.1643 32.5093 36.8123C31.6453 36.4443 30.9333 35.8843 30.3733 35.1323L31.2853 34.1483C31.7973 34.5963 32.3573 34.9403 32.9653 35.1803C33.5733 35.4043 34.2693 35.5163 35.0533 35.5163C35.7573 35.5163 36.3493 35.3483 36.8293 35.0123C37.3253 34.6763 37.7253 34.2123 38.0293 33.6203C38.3333 33.0283 38.5653 32.3483 38.7253 31.5803C38.9013 30.7963 39.0133 29.9563 39.0613 29.0603C38.6613 29.6523 38.1493 30.1403 37.5253 30.5243C36.9013 30.9083 36.1413 31.1003 35.2453 31.1003C34.2693 31.1003 33.4133 30.9003 32.6773 30.5003C31.9413 30.0843 31.3653 29.4923 30.9493 28.7243C30.5333 27.9563 30.3253 27.0363 30.3253 25.9643C30.3253 24.6043 30.5733 23.4763 31.0693 22.5803C31.5653 21.6683 32.2373 20.9883 33.0853 20.5403C33.9493 20.0923 34.9173 19.8683 35.9893 19.8683C37.0293 19.8683 37.9013 20.0603 38.6053 20.4443C39.3253 20.8123 39.8933 21.3323 40.3093 22.0043C40.7413 22.6603 41.0533 23.4283 41.2453 24.3083C41.4373 25.1723 41.5333 26.1003 41.5333 27.0923C41.5333 30.5323 41.0213 33.1003 39.9973 34.7963C38.9893 36.4923 37.3733 37.3403 35.1493 37.3403ZM35.7493 29.3483C36.1653 29.3483 36.5653 29.2843 36.9493 29.1563C37.3493 29.0283 37.7093 28.8203 38.0293 28.5323C38.3493 28.2283 38.6053 27.8283 38.7973 27.3323C38.9893 26.8203 39.0853 26.1883 39.0853 25.4363C39.0853 24.7003 38.9813 24.0123 38.7733 23.3723C38.5813 22.7163 38.2533 22.1883 37.7893 21.7883C37.3253 21.3723 36.6933 21.1643 35.8933 21.1643C35.3973 21.1643 34.9493 21.2523 34.5493 21.4283C34.1653 21.5883 33.8373 21.8443 33.5653 22.1963C33.2933 22.5483 33.0853 23.0043 32.9413 23.5643C32.7973 24.1243 32.7253 24.7883 32.7253 25.5563C32.7253 26.4683 32.8453 27.2043 33.0853 27.7643C33.3413 28.3243 33.6933 28.7323 34.1413 28.9883C34.5893 29.2283 35.1253 29.3483 35.7493 29.3483Z" fill="#666565"/>
<path d="M82.9625 37.3163C81.8905 37.3163 80.9145 37.1563 80.0345 36.8363C79.1705 36.5163 78.4825 36.0363 77.9705 35.3963C77.4585 34.7403 77.2025 33.9083 77.2025 32.9003C77.2025 32.3243 77.3145 31.7403 77.5385 31.1483C77.7625 30.5563 78.1465 30.0043 78.6905 29.4923C79.2505 28.9643 80.0425 28.5403 81.0665 28.2203C80.2505 27.8043 79.6105 27.3963 79.1465 26.9963C78.6985 26.5803 78.3785 26.1403 78.1865 25.6763C77.9945 25.1963 77.8985 24.6603 77.8985 24.0683C77.8985 23.4123 78.0825 22.7643 78.4505 22.1243C78.8345 21.4683 79.4105 20.9323 80.1785 20.5163C80.9465 20.0843 81.9225 19.8683 83.1065 19.8683C84.2105 19.8683 85.1385 20.0283 85.8905 20.3483C86.6585 20.6683 87.2345 21.1003 87.6185 21.6443C88.0185 22.1883 88.2185 22.8043 88.2185 23.4923C88.2185 24.1643 88.0825 24.7643 87.8105 25.2923C87.5545 25.8203 87.2105 26.2843 86.7785 26.6843C86.3465 27.0683 85.8585 27.3963 85.3145 27.6683C86.2425 28.0683 86.9705 28.5163 87.4985 29.0123C88.0265 29.5083 88.4025 30.0363 88.6265 30.5963C88.8505 31.1403 88.9625 31.7243 88.9625 32.3483C88.9625 33.1643 88.7945 33.8843 88.4585 34.5083C88.1225 35.1163 87.6665 35.6363 87.0905 36.0683C86.5305 36.4843 85.8905 36.7963 85.1705 37.0043C84.4665 37.2123 83.7305 37.3163 82.9625 37.3163ZM83.1785 35.9243C83.8665 35.9243 84.4505 35.8043 84.9305 35.5643C85.4265 35.3243 85.8105 34.9723 86.0825 34.5083C86.3545 34.0443 86.4905 33.4763 86.4905 32.8043C86.4905 32.2923 86.3945 31.8443 86.2025 31.4603C86.0265 31.0763 85.7545 30.7323 85.3865 30.4283C85.0345 30.1243 84.5945 29.8443 84.0665 29.5883C83.5385 29.3323 82.9225 29.0923 82.2185 28.8683C81.2905 29.3323 80.6185 29.9003 80.2025 30.5723C79.7865 31.2443 79.5785 31.9483 79.5785 32.6843C79.5785 33.3563 79.7225 33.9323 80.0105 34.4123C80.3145 34.8923 80.7305 35.2683 81.2585 35.5403C81.8025 35.7963 82.4425 35.9243 83.1785 35.9243ZM84.0425 27.1643C84.6185 26.7803 85.0905 26.2923 85.4585 25.7003C85.8265 25.1083 86.0105 24.4843 86.0105 23.8283C86.0105 23.2363 85.8665 22.7483 85.5785 22.3643C85.3065 21.9803 84.9385 21.6923 84.4745 21.5003C84.0265 21.2923 83.5385 21.1883 83.0105 21.1883C82.4825 21.1883 81.9945 21.2763 81.5465 21.4523C81.1145 21.6283 80.7625 21.9003 80.4905 22.2683C80.2345 22.6203 80.1065 23.0683 80.1065 23.6123C80.1065 24.0603 80.2185 24.4763 80.4425 24.8603C80.6665 25.2443 81.0665 25.6203 81.6425 25.9883C82.2185 26.3563 83.0185 26.7483 84.0425 27.1643Z" fill="#666565"/>
<path d="M93.7093 37.0043V35.8523L95.8693 35.4923C96.2053 35.4283 96.4213 35.3083 96.5173 35.1323C96.6133 34.9403 96.6613 34.6683 96.6613 34.3163V23.4923C96.6613 23.0283 96.6133 22.6923 96.5173 22.4843C96.4373 22.2603 96.1413 22.1243 95.6293 22.0763L93.6133 21.8843L93.7573 20.7563L98.7733 19.9163L99.0373 20.1803V34.3883C99.0373 34.7563 99.0853 35.0203 99.1813 35.1803C99.2773 35.3243 99.5013 35.4283 99.8533 35.4923L101.941 35.8523V37.0043H93.7093Z" fill="#666565"/>
</svg>
