<svg width="190" height="148" viewBox="0 0 190 148" fill="none" xmlns="http://www.w3.org/2000/svg">
<mask id="mask0_3262_2792" style="mask-type:alpha" maskUnits="userSpaceOnUse" x="0" y="0" width="190" height="148">
<rect x="1" y="1" width="188" height="146" fill="#DCDCDC" stroke="black" stroke-width="2"/>
</mask>
<g mask="url(#mask0_3262_2792)">
<path d="M-108.314 -32.0163C-108.439 -31.9351 -108.626 -31.8132 -108.751 -31.732L-107.795 -30.3994C-99.7164 -36.011 -88.4878 -33.3667 -80.6652 -29.1284C-76.6617 -26.9359 -72.8705 -24.2501 -69.2228 -21.6484C-65.0224 -18.6069 -60.5753 -15.4593 -55.8506 -13.1143C-44.4494 -7.47309 -31.5696 -6.525 -19.102 -5.6641C-8.55463 -4.88641 2.26124 -4.10575 12.1569 -0.505455C29.8498 5.92831 42.8024 20.5099 55.3676 34.6327C66.3619 47.0238 77.7652 59.7705 92.4486 67.4516C100.396 71.6087 109.105 74.2044 117.527 76.6317C123.662 78.414 130.045 80.3023 135.987 82.7434C142.32 85.3748 163.236 95.397 164.816 114.624C165.725 125.582 159.683 137.33 148.234 146.911C142.937 151.335 136.965 155.131 131.14 158.744C126.229 161.849 121.194 165.037 116.505 168.62C87.9554 190.571 74.2012 230.346 83.0197 265.207L84.6151 264.791C75.9965 230.51 89.4325 191.475 117.524 169.912C122.15 166.369 127.185 163.182 132.033 160.117C137.88 156.401 143.955 152.627 149.314 148.162C161.161 138.234 167.476 125.952 166.511 114.498C165.405 100.915 154.267 88.4401 136.686 81.2226C130.641 78.7597 124.258 76.8714 118.019 75.0673C109.66 72.5994 101.033 70.1285 93.2288 66.0557C78.8327 58.543 67.573 45.8805 56.66 33.6142C43.9104 19.3448 30.836 4.57595 12.731 -1.94499C2.62924 -5.58887 -8.39274 -6.41313 -18.9401 -7.19082C-31.2422 -8.07055 -44.0189 -8.99684 -55.0704 -14.5102C-59.6921 -16.8335 -63.9956 -19.8968 -68.2584 -22.8977C-71.9467 -25.5618 -75.7785 -28.3101 -79.885 -30.5243C-87.9732 -35.0341 -99.6357 -37.6625 -108.314 -32.0163Z" fill="#B7B7B7"/>
<path d="M-89.0594 -2.96809L-89.037 -1.29474C-84.2225 -1.40671 -79.7693 1.20386 -75.5222 3.77083C-74.6197 4.33852 -73.6547 4.86558 -72.6898 5.39265C-59.6551 12.725 -44.2708 15.0641 -29.4236 17.3972C-10.3486 20.3555 7.63358 23.1364 21.2536 35.3293C27.4093 40.8298 32.0606 47.8422 36.5275 54.708C39.695 59.5764 43.0467 64.5915 46.8792 69.1162C51.9766 75.0388 58.1759 80.3332 64.2128 85.378C76.5303 95.8421 88.1733 105.679 91.0627 120.5C94.5182 138.24 83.9321 153.656 72.6124 169.993C61.9638 185.45 50.8751 201.459 53.3566 219.478L54.9707 219.227C52.6268 201.83 63.444 186.086 73.9865 170.876C84.9503 154.948 96.2294 138.549 92.6987 120.147C89.6717 104.704 77.2917 94.2807 65.3021 84.0474C59.3276 78.962 53.1689 73.73 48.1527 67.9323C44.4015 63.5324 41.0498 58.5174 37.9229 53.7113C33.3529 46.8238 28.6829 39.6459 22.3835 34.0612C8.39496 21.575 -10.6801 18.6167 -29.115 15.6862C-43.8592 13.3749 -59.078 11.017 -71.8878 3.89367C-72.8527 3.3666 -73.7146 2.86133 -74.6172 2.29364C-79.1328 -0.276303 -83.7702 -3.0335 -89.0594 -2.96809Z" fill="#B7B7B7"/>
<path d="M-44.2671 50.4806L-44.2328 52.0912C-30.6017 51.8383 -16.4949 51.6165 -3.01527 54.9202C11.9403 58.6466 23.6805 66.6155 30.0232 77.2626C31.3503 79.4239 32.4331 81.7556 33.4733 84.0263C34.988 87.2371 36.5454 90.509 38.695 93.4581C40.7595 96.2852 43.2699 98.7101 45.695 101.013C47.5291 102.729 49.3022 104.488 50.9531 106.333C58.0924 114.608 61.2491 126.026 59.434 136.828C58.3142 143.422 55.4316 149.703 52.5859 155.776C49.0912 163.392 45.4986 171.258 45.267 179.775L46.9205 179.801C47.0967 171.595 50.4934 164.229 54.1286 156.424C56.9928 150.248 59.8939 143.863 61.0505 137.062C63.0005 125.802 59.6676 113.871 52.2299 105.169C50.5975 103.221 48.6781 101.382 46.844 99.6659C44.4188 97.3631 41.9511 94.9993 40.0145 92.3554C37.9501 89.5283 36.4353 86.3176 34.9632 83.1678C33.8804 80.8361 32.7977 78.5043 31.428 76.282C24.8905 65.2259 12.7113 57.0185 -2.65899 53.2185C-16.3033 49.939 -30.5324 50.2461 -44.2671 50.4806Z" fill="#B7B7B7"/>
<path d="M-89.4799 66.0387L-88.91 67.5456C-76.1447 62.7585 -62.9205 57.8418 -49.1111 56.458C-33.7694 54.9801 -20.0429 58.5744 -10.5107 66.4946C-8.53848 68.0891 -6.73964 69.9259 -5.00136 71.7193C-2.50199 74.2406 0.0579287 76.8052 3.06853 78.8679C5.95801 80.844 9.13371 82.2922 12.1883 83.6537C14.4901 84.6597 16.7485 85.7263 18.9202 86.914C28.4116 92.3321 35.1977 102.042 37.0915 112.832C38.2363 119.421 37.6148 126.304 36.9589 132.978C36.206 141.324 35.4443 149.938 38.0679 158.043L39.6354 157.517C37.0634 149.723 37.8073 141.645 38.6296 133.075C39.2683 126.296 39.8726 119.31 38.6934 112.512C36.7741 101.247 29.6508 91.1122 19.7355 85.3908C17.5466 84.0992 15.1237 83.0065 12.8219 82.0006C9.76733 80.639 6.65218 79.2342 3.94436 77.3881C1.05488 75.412 -1.44449 72.8908 -3.8833 70.4128C-5.68214 68.5761 -7.48097 66.7393 -9.51374 65.1015C-19.3659 56.8607 -33.5858 53.188 -49.3431 54.7349C-63.2998 56.1966 -76.6107 61.2344 -89.4799 66.0387Z" fill="#B7B7B7"/>
</g>
</svg>
