<svg width="355" height="375" viewBox="0 0 355 375" fill="none" xmlns="http://www.w3.org/2000/svg">
<mask id="mask0_3262_2788" style="mask-type:alpha" maskUnits="userSpaceOnUse" x="0" y="0" width="355" height="375">
<rect width="355" height="375" fill="#C4C4C4"/>
</mask>
<g mask="url(#mask0_3262_2788)">
<path d="M91.7495 409.85C74.5828 385.85 50.7987 350.327 80.9999 300.5C91.0008 284 100 274.5 114.5 265C129 255.5 144 252.585 159 254.5C182.5 257.5 210.919 238.152 232 211.5C260.751 175.15 237.249 62.3501 293.749 29.3501C338.949 2.95013 399.582 14.3501 424.249 23.3501" stroke="#B7B7B7" stroke-width="1.3"/>
<path d="M128.247 407.351C109.747 393.851 76.0472 356.351 89.2472 314.351C105.747 261.851 154.248 268.351 204.748 260.351C255.248 252.351 278.748 212.851 282.248 157.351C285.748 101.851 281.248 53.3508 316.248 38.8508C351.248 24.3508 372.248 38.3508 388.748 51.3508C401.948 61.7508 427.915 47.3508 439.248 38.8508" stroke="#B7B7B7" stroke-width="1.3"/>
<path d="M160.748 407.853C159.081 394.186 166.648 361.853 210.248 341.853C264.748 316.853 291.748 280.353 291.748 231.353C291.748 182.353 289.248 107.853 307.748 89.3527C326.248 70.8527 351.748 67.3527 366.248 78.3527C377.848 87.1527 402.415 89.3527 413.248 89.3527" stroke="#B7B7B7" stroke-width="1.3"/>
<path d="M123.249 369.35C107.249 362.35 86.248 329.351 111.749 304.35C137.25 279.349 227.246 266.354 197.748 307.853C168.25 349.352 139.249 376.35 123.249 369.35Z" stroke="#B7B7B7" stroke-width="1.3"/>
<path d="M331.762 244.185C311.671 214.43 298.157 169.799 311.85 141.449C338.286 94.7647 394.31 124.557 417.381 137.075C440.452 149.593 520.438 260.718 460.522 295.694C400.606 330.67 351.852 273.94 331.762 244.185Z" stroke="#B7B7B7" stroke-width="1.3"/>
<path d="M221.748 402.853C228.748 393.853 247.348 371.053 265.748 351.853C288.748 327.853 325.248 316.853 342.248 325.853C359.248 334.853 377.748 351.853 411.748 351.853" stroke="#B7B7B7" stroke-width="1.3"/>
<path d="M255.248 386.852C265.748 374.352 301.248 349.852 324.748 356.852C348.248 363.852 386.748 380.352 412.248 369.852" stroke="#B7B7B7" stroke-width="1.3"/>
<path d="M204 386.998C209.833 376.832 227.2 352.898 250 338.498C278.5 320.498 292 315 306 296.998C328 268.707 345.167 291.498 358.5 298.498" stroke="#B7B7B7" stroke-width="1.3"/>
</g>
</svg>
