<svg width="294" height="479" viewBox="0 0 294 479" fill="none" xmlns="http://www.w3.org/2000/svg">
<mask id="mask0_3262_2734" style="mask-type:alpha" maskUnits="userSpaceOnUse" x="0" y="0" width="294" height="479">
<rect width="294" height="479" fill="#C4C4C4"/>
</mask>
<g mask="url(#mask0_3262_2734)">
<path d="M442.943 337.958C442.943 337.958 366.256 345.993 352.039 383.558C337.823 421.123 313.777 426.83 299.267 423.294C284.756 419.757 252.138 424.893 241.714 415.448C231.29 406.003 227.016 398.948 229.671 379.38C232.327 359.812 219.452 356.033 221.049 338.737C222.645 321.441 225.491 318.472 225.363 305.993C225.236 293.514 223.92 267.497 212.768 256.78C201.496 246.003 193.519 224.23 196.293 200.482C199.037 176.643 217.504 157.855 181.142 127.585C144.78 97.3148 104.629 61.4432 97.0522 51.4518C75.4117 23.2338 73.8249 0.0334843 87.5324 -26.052C102.178 -54.1673 146.376 -40.6508 163.941 -45.203C210.307 -57.2512 198.369 -123.85 198.369 -123.85" stroke="#B4AEDD" stroke-width="1.3" stroke-miterlimit="10"/>
<path d="M433.576 323.514C433.576 323.514 400.616 311.597 371.879 324.12C343.141 336.644 326.103 365.457 293.426 373.743C260.749 382.028 261.703 353.435 260.968 337.322C260.233 321.209 248.509 316.338 255.25 290.256C261.991 264.175 268.472 262.112 256.896 250.729C245.35 239.437 225.085 235.904 226.709 213.55C228.455 191.257 246.042 171.045 232.976 148.244C219.91 125.444 207.546 113.213 177.761 89.9365C147.975 66.6597 111.673 34.451 118.201 6.82445C124.73 -20.8021 186.067 -15.2299 201.594 -36.4701C217.121 -57.7104 219.529 -88.3031 219.529 -88.3031" stroke="#B4AEDD" stroke-width="1.3" stroke-miterlimit="10"/>
<path d="M431.875 311.461C431.875 311.461 388.224 301.094 370.589 287.594C352.954 274.095 337.319 320.717 323.12 333.233C308.921 345.75 285.545 360.421 280.417 342.644C275.38 324.837 269.676 305.334 274.272 290.066C278.868 274.799 293.704 263.281 282.367 244.75C271.029 226.22 248.218 218.689 252.595 189.761C256.972 160.834 258.477 141.448 242.022 125.434C225.476 109.45 167.087 64.6219 154.571 50.4229C142.085 36.3147 135.316 8.18006 158.847 0.626224C182.377 -6.92761 219.209 -5.49252 233.686 -65.8652" stroke="#B4AEDD" stroke-width="1.3" stroke-miterlimit="10"/>
<path d="M235.812 66.6144C230.943 81.9733 214.59 87.1306 197.408 71.6619C180.227 56.1931 155.655 40.9704 158.434 25.0978C161.152 9.34627 199.886 -0.75952 215.976 13.8617C232.037 28.695 239.017 56.557 235.812 66.6144Z" stroke="#B4AEDD" stroke-width="1.3" stroke-miterlimit="10"/>
<path d="M222.293 48.511C226.603 65.3493 207.703 66.5098 194.643 54.9159C181.552 43.2312 172.973 27.8186 181.572 21.8171C190.171 15.8156 213.492 14.2893 222.293 48.511Z" stroke="#B4AEDD" stroke-width="1.3" stroke-miterlimit="10"/>
<path d="M208.269 45.2126C206.243 51.8468 195.033 44.8861 193.94 40.1011C192.847 35.316 196.691 30.1953 201.356 30.8593C205.96 31.6444 211.172 35.4582 208.269 45.2126Z" stroke="#B4AEDD" stroke-width="1.3" stroke-miterlimit="10"/>
<path d="M314.114 312.004C323.559 303.095 334.334 287.884 316.855 283.622C299.377 279.361 290.449 294.358 289.153 307.413C287.767 320.498 290.411 338.095 301.13 333.001C311.85 327.907 304.668 320.914 314.114 312.004Z" stroke="#B4AEDD" stroke-width="1.3" stroke-miterlimit="10"/>
<path d="M430.566 300.887C430.566 300.887 388.064 286.097 377.154 273.987C366.244 261.877 357.733 262.094 348.742 272.063C338.238 283.548 331.505 265.802 318.36 267.869C303.217 270.299 299.787 254.884 294.782 240.803C289.777 226.721 268.111 206.59 272.495 191.292C279.781 165.937 284.193 145.883 261.647 122.815C247.071 107.89 245.211 84.1748 254.166 63.2105C263.12 42.2463 248.815 24.2015 239.844 12.7569C224.023 -7.40726 239.427 -32.3427 249.899 -47.8558" stroke="#B4AEDD" stroke-width="1.3" stroke-miterlimit="10"/>
<path d="M427.26 290.988C427.26 290.988 383.66 261.721 369.145 250.007C354.631 238.293 334.681 257.476 321.986 249.395C309.291 241.314 310.793 217.688 300.369 208.547C289.945 199.405 297.386 179.35 297.168 167.204C296.604 131.343 273.545 113.393 270.028 104.672C259.019 77.7509 281.242 61.1414 274.146 43.2141C267.049 25.2868 268.267 -22.7819 274.287 -37.1115" stroke="#B4AEDD" stroke-width="1.3" stroke-miterlimit="10"/>
<path d="M424.311 272.785C415.494 266.944 379.558 241.58 377.463 230.768C375.368 219.956 390.105 193.325 373.257 179.462C356.409 165.598 333.822 180.814 321.063 166.797C308.305 152.78 308.959 129.639 296.592 111.957C284.256 94.3654 294.327 64.6471 292.592 47.656C290.857 30.665 281.723 -2.43586 283.535 -13.0378" stroke="#B4AEDD" stroke-width="1.3" stroke-miterlimit="10"/>
<path d="M423.939 252.312C423.939 252.312 399.551 240.967 396.423 223.734C393.294 206.501 397.886 182.45 378.312 167.073C358.737 151.696 332.514 164.189 320.958 132.906C309.493 101.594 320.113 78.6599 314.198 63.0642C308.193 47.4989 301.682 -9.80387 300.922 -15.7098" stroke="#B4AEDD" stroke-width="1.3" stroke-miterlimit="10"/>
<path d="M429.023 242.435C429.023 242.435 409.592 210.551 409.244 183.201C408.897 155.85 375.24 143.055 356.306 135.644C337.372 128.233 332.339 117.695 331.391 100.037C330.443 82.3796 331.301 42.6102 323.296 26.5007C315.292 10.3912 317.455 -24.2601 317.455 -24.2601" stroke="#B4AEDD" stroke-width="1.3" stroke-miterlimit="10"/>
</g>
</svg>
